<?xml version='1.0' encoding='UTF-8' standalone='no'?>
<!-- Created with Fritzing (http://www.fritzing.org/) -->
<svg xmlns:svg='http://www.w3.org/2000/svg' xmlns='http://www.w3.org/2000/svg' version='1.2' baseProfile='tiny' x='0in' y='0in' width='0.8in' height='0.5in' viewBox='0 0 57.6 36' >
<g partID='57740'><g  gorn="0.1" id="breadboard">
 <g  gorn="0.1.0" id="icon">
  <path  d="M57.6,7.2l0,21.6c0,3.976,-3.224,7.2,-7.2,7.2L7.2,36C3.224,36,0,32.776,0,28.8c0,0,0,0,0,0L0,7.2C0,3.224,3.224,0,7.2,0c0,0,0,0,0,0l43.2,0C54.376,0,57.6,3.224,57.6,7.2M2.183,29.52c0,0.783,0.635,1.417,1.417,1.417s1.417,-0.635,1.417,-1.417S4.383,28.103,3.6,28.103S2.183,28.737,2.183,29.52zM9.383,29.52c0,0.783,0.635,1.417,1.417,1.417s1.417,-0.635,1.417,-1.417l0,0c0,-0.783,-0.635,-1.417,-1.417,-1.417S9.383,28.737,9.383,29.52zM16.583,29.52c0,0.783,0.635,1.417,1.417,1.417c0.783,0,1.417,-0.635,1.417,-1.417l0,0c0,-0.783,-0.635,-1.417,-1.417,-1.417C17.217,28.103,16.583,28.737,16.583,29.52zM23.783,29.52c0,0.783,0.635,1.417,1.417,1.417c0.783,0,1.417,-0.635,1.417,-1.417l0,0c0,-0.783,-0.635,-1.417,-1.417,-1.417C24.417,28.103,23.783,28.737,23.783,29.52zM30.983,29.52c0,0.783,0.635,1.417,1.417,1.417c0.783,0,1.417,-0.635,1.417,-1.417l0,0c0,-0.783,-0.635,-1.417,-1.417,-1.417C31.617,28.103,30.983,28.737,30.983,29.52zM38.183,29.52c0,0.783,0.635,1.417,1.417,1.417s1.417,-0.635,1.417,-1.417s-0.635,-1.417,-1.417,-1.417S38.183,28.737,38.183,29.52zM45.383,29.52c0,0.783,0.635,1.417,1.417,1.417c0.783,0,1.417,-0.635,1.417,-1.417l0,0c0,-0.783,-0.635,-1.417,-1.417,-1.417S45.383,28.737,45.383,29.52zM52.583,29.52c0,0.783,0.635,1.417,1.417,1.417c0.783,0,1.417,-0.635,1.417,-1.417l0,0c0,-0.783,-0.635,-1.417,-1.417,-1.417S52.583,28.737,52.583,29.52zM3.657,7.2c-0.003,1.957,1.58,3.546,3.537,3.549s3.546,-1.58,3.549,-3.537c0,-0.004,0,-0.008,0,-0.012c0.003,-1.957,-1.58,-3.546,-3.537,-3.549C5.249,3.647,3.66,5.231,3.657,7.188C3.657,7.192,3.657,7.196,3.657,7.2zM46.857,7.2c-0.003,1.957,1.58,3.546,3.537,3.55c1.957,0.003,3.546,-1.58,3.55,-3.537c0,-0.004,0,-0.008,0,-0.012c0.003,-1.957,-1.58,-3.546,-3.537,-3.55c-1.957,-0.003,-3.546,1.58,-3.55,3.537C46.857,7.192,46.857,7.196,46.857,7.2z" fill="#014CB1"/>
  <g >
   <title >layer 21</title>
   <g >
    <title >text:MCP9808</title>
    <g transform="matrix(1, 0, 0, 1, 20.844, 8.028)">
     <g >
      <text  font-size="3.3408" fill="#FFFFFF" font-family="'OCRA'">MCP9808</text>
     </g>
    </g>
   </g>
   <g >
    <title >text:Vdd</title>
    <g transform="matrix(1, 0, 0, 1, 1.0569, 26.6176)">
     <g >
      <text  font-size="2.67264" fill="#FFFFFF" font-family="'OCRA'">Vdd</text>
     </g>
    </g>
   </g>
   <g >
    <title >text:Gnd</title>
    <g transform="matrix(1, 0, 0, 1, 7.1769, 35.257)">
     <g >
      <text  font-size="2.67264" fill="#FFFFFF" font-family="'OCRA'">Gnd</text>
     </g>
    </g>
   </g>
   <g >
    <title >text:SCL</title>
    <g transform="matrix(1, 0, 0, 1, 14.377, 26.6176)">
     <g >
      <text  font-size="2.67264" fill="#FFFFFF" font-family="'OCRA'">SCL</text>
     </g>
    </g>
   </g>
   <g >
    <title >text:SDA</title>
    <g transform="matrix(1, 0, 0, 1, 21.5769, 35.257)">
     <g >
      <text  font-size="2.67264" fill="#FFFFFF" font-family="'OCRA'">SDA</text>
     </g>
    </g>
   </g>
   <g >
    <title >text:Alert</title>
    <g transform="matrix(1, 0, 0, 1, 26.3616, 26.6176)">
     <g >
      <text  font-size="2.67264" fill="#FFFFFF" font-family="'OCRA'">Alert</text>
     </g>
    </g>
   </g>
   <g >
    <title >text:A0</title>
    <g transform="matrix(1, 0, 0, 1, 37.1846, 35.257)">
     <g >
      <text  font-size="2.67264" fill="#FFFFFF" font-family="'OCRA'">A0</text>
     </g>
    </g>
   </g>
   <g >
    <title >text:A1</title>
    <g transform="matrix(1, 0, 0, 1, 44.3846, 26.6176)">
     <g >
      <text  font-size="2.67264" fill="#FFFFFF" font-family="'OCRA'">A1</text>
     </g>
    </g>
   </g>
   <g >
    <title >text:A2</title>
    <g transform="matrix(1, 0, 0, 1, 51.5846, 26.6176)">
     <g >
      <text  font-size="2.67264" fill="#FFFFFF" font-family="'OCRA'">A2</text>
     </g>
    </g>
   </g>
   <g >
    <title >element:C1</title>
    <g >
     <title >package:_0805MP</title>
     <line  stroke-width="0.576" stroke="#FFFFFF" y2="18.72" y1="18.72" x2="5.76" fill="none" x1="2.88" stroke-linecap="round"/>
    </g>
   </g>
   <g >
    <title >element:FID1</title>
    <g >
     <title >package:FIDUCIAL_1MM</title>
    </g>
   </g>
   <g >
    <title >element:FID2</title>
    <g >
     <title >package:FIDUCIAL_1MM</title>
    </g>
   </g>
   <g >
    <title >element:IC1</title>
    <g >
     <title >package:MSOP8_0.65MM</title>
     <line  stroke-width="0.576" stroke="#FFFFFF" y2="13.748" y1="13.748" x2="24.548" fill="none" x1="33.052" stroke-linecap="round"/>
     <line  stroke-width="0.576" stroke="#FFFFFF" y2="22.252" y1="22.252" x2="33.052" fill="none" x1="24.548" stroke-linecap="round"/>
     <circle  stroke-width="1.728" stroke="#FFFFFF" r="0.425" cy="11.764" fill="none" cx="26.249"/>
    </g>
   </g>
   <g >
    <title >element:JP2</title>
    <g >
     <title >package:1X08_ROUND_70</title>
    </g>
   </g>
   <g >
    <title >element:R1</title>
    <g >
     <title >package:0805-NO</title>
     <line  stroke-width="0.864" stroke="#FFFFFF" y2="18.72" y1="18.72" x2="8.64" fill="none" x1="11.52" stroke-linecap="round"/>
    </g>
   </g>
   <g >
    <title >element:R2</title>
    <g >
     <title >package:0805-NO</title>
     <line  stroke-width="0.864" stroke="#FFFFFF" y2="18.72" y1="18.72" x2="14.4" fill="none" x1="17.28" stroke-linecap="round"/>
    </g>
   </g>
   <g >
    <title >element:R3</title>
    <g >
     <title >package:0805-NO</title>
     <line  stroke-width="0.864" stroke="#FFFFFF" y2="18.72" y1="18.72" x2="40.32" fill="none" x1="43.2" stroke-linecap="round"/>
    </g>
   </g>
   <g >
    <title >element:R4</title>
    <g >
     <title >package:0805-NO</title>
     <line  stroke-width="0.864" stroke="#FFFFFF" y2="18.72" y1="18.72" x2="46.08" fill="none" x1="48.96" stroke-linecap="round"/>
    </g>
   </g>
   <g >
    <title >element:R5</title>
    <g >
     <title >package:0805-NO</title>
     <line  stroke-width="0.864" stroke="#FFFFFF" y2="18.72" y1="18.72" x2="51.84" fill="none" x1="54.72" stroke-linecap="round"/>
    </g>
   </g>
   <g >
    <title >element:U$3</title>
    <g >
     <title >package:MOUNTINGHOLE_2.5_PLATED</title>
     <circle  stroke-width="0.576" stroke="#FFFFFF" r="5.669" cy="7.2" fill="none" cx="7.2"/>
    </g>
   </g>
   <g >
    <title >element:U$4</title>
    <g >
     <title >package:ADAFRUIT_2.5MM</title>
    </g>
   </g>
   <g >
    <title >element:U$5</title>
    <g >
     <title >package:MOUNTINGHOLE_2.5_PLATED</title>
     <circle  stroke-width="0.576" stroke="#FFFFFF" r="5.669" cy="7.2" fill="none" cx="50.4"/>
    </g>
   </g>
  </g>
  <g transform="matrix(0, -1, 1, 0, -17.28, 25.92)">
   <g >
    <g >
     <g transform="matrix(-2.53518e-06, -1, 1, -2.53518e-06, -17.2799, 25.92)">
      <g >
       <rect  height="3.402" y="19.899" x="2.477" fill="#9A916C" width="3.685" gorn="0.1.0.2.0.0.0" id="connector5pin"/>
      </g>
     </g>
    </g>
   </g>
  </g>
  <g transform="matrix(0, -1, 1, 0, -11.52, 20.16)">
   <g >
    <g >
     <g transform="matrix(-2.53518e-06, -1, 1, -2.53518e-06, -11.5199, 20.16)">
      <g >
       <rect  height="3.402" y="14.139" x="2.477" fill="#9A916C" width="3.685" gorn="0.1.0.3.0.0.0" id="connector6pin"/>
      </g>
     </g>
    </g>
   </g>
  </g>
  <path  d="M15.84,8.303L15.84,8.303c0.783,0,1.417,0.635,1.417,1.417l0,0c0,0.783,-0.635,1.417,-1.417,1.417l0,0c-0.783,0,-1.417,-0.635,-1.417,-1.417l0,0C14.423,8.937,15.057,8.303,15.84,8.303z" fill="#9A916C" gorn="0.1.0.4" id="connector7pin"/>
  <path  d="M50.4,32.423L50.4,32.423c0.783,0,1.417,0.635,1.417,1.417l0,0c0,0.783,-0.635,1.417,-1.417,1.417l0,0c-0.783,0,-1.417,-0.635,-1.417,-1.417l0,0C48.983,33.057,49.617,32.423,50.4,32.423z" fill="#9A916C" gorn="0.1.0.5" id="connector8pin"/>
  <rect  height="1.134" y="14.669" x="20.58" fill="#9A916C" width="3.969" gorn="0.1.0.6" id="connector9pin"/>
  <rect  height="1.134" y="16.512" x="20.58" fill="#9A916C" width="3.969" gorn="0.1.0.7" id="connector10pin"/>
  <rect  height="1.134" y="18.354" x="20.58" fill="#9A916C" width="3.969" gorn="0.1.0.8" id="connector11pin"/>
  <rect  height="1.134" y="20.197" x="20.58" fill="#9A916C" width="3.969" gorn="0.1.0.9" id="connector12pin"/>
  <rect  height="1.134" y="20.197" x="33.052" fill="#9A916C" width="3.968" gorn="0.1.0.10" id="connector13pin"/>
  <rect  height="1.134" y="18.354" x="33.052" fill="#9A916C" width="3.968" gorn="0.1.0.11" id="connector14pin"/>
  <rect  height="1.134" y="16.512" x="33.052" fill="#9A916C" width="3.968" gorn="0.1.0.12" id="connector15pin"/>
  <rect  height="1.134" y="14.669" x="33.052" fill="#9A916C" width="3.968" gorn="0.1.0.13" id="connector16pin"/>
  <circle  stroke-width="1.1027" stroke="#9A916C" r="1.969" cy="29.52" fill="none" gorn="0.1.0.14" cx="3.6" id="connector17pin"/>
  <circle  stroke-width="1.1027" stroke="#9A916C" r="1.969" cy="29.52" fill="none" gorn="0.1.0.15" cx="10.8" id="connector18pin"/>
  <circle  stroke-width="1.1027" stroke="#9A916C" r="1.969" cy="29.52" fill="none" gorn="0.1.0.16" cx="18" id="connector19pin"/>
  <circle  stroke-width="1.1027" stroke="#9A916C" r="1.969" cy="29.52" fill="none" gorn="0.1.0.17" cx="25.2" id="connector20pin"/>
  <circle  stroke-width="1.1027" stroke="#9A916C" r="1.969" cy="29.52" fill="none" gorn="0.1.0.18" cx="32.4" id="connector21pin"/>
  <circle  stroke-width="1.1027" stroke="#9A916C" r="1.969" cy="29.52" fill="none" gorn="0.1.0.19" cx="39.6" id="connector22pin"/>
  <circle  stroke-width="1.1027" stroke="#9A916C" r="1.969" cy="29.52" fill="none" gorn="0.1.0.20" cx="46.8" id="connector23pin"/>
  <circle  stroke-width="1.1027" stroke="#9A916C" r="1.969" cy="29.52" fill="none" gorn="0.1.0.21" cx="54" id="connector24pin"/>
  <g transform="matrix(0, 1, -1, 0, 26.1071, 5.94708)">
   <g >
    <g >
     <g transform="matrix(2.53518e-06, 1, -1, 2.53518e-06, 26.107, 5.9471)">
      <g >
       <rect  height="3.685" y="14.185" x="7.954" fill="#9A916C" width="4.252" gorn="0.1.0.22.0.0.0" id="connector25pin"/>
      </g>
     </g>
    </g>
   </g>
  </g>
  <g transform="matrix(0, 1, -1, 0, 31.4929, 11.3329)">
   <g >
    <g >
     <g transform="matrix(2.53518e-06, 1, -1, 2.53518e-06, 31.4928, 11.3329)">
      <g >
       <rect  height="3.685" y="19.57" x="7.954" fill="#9A916C" width="4.252" gorn="0.1.0.23.0.0.0" id="connector26pin"/>
      </g>
     </g>
    </g>
   </g>
  </g>
  <g transform="matrix(0, 1, -1, 0, 31.8671, 0.187087)">
   <g >
    <g >
     <g transform="matrix(2.53518e-06, 1, -1, 2.53518e-06, 31.867, 0.1871)">
      <g >
       <rect  height="3.685" y="14.185" x="13.714" fill="#9A916C" width="4.252" gorn="0.1.0.24.0.0.0" id="connector27pin"/>
      </g>
     </g>
    </g>
   </g>
  </g>
  <g transform="matrix(0, 1, -1, 0, 37.2529, 5.57292)">
   <g >
    <g >
     <g transform="matrix(2.53518e-06, 1, -1, 2.53518e-06, 37.2528, 5.5729)">
      <g >
       <rect  height="3.685" y="19.57" x="13.714" fill="#9A916C" width="4.252" gorn="0.1.0.25.0.0.0" id="connector28pin"/>
      </g>
     </g>
    </g>
   </g>
  </g>
  <g transform="matrix(0, 1, -1, 0, 57.7871, -25.7329)">
   <g >
    <g >
     <g transform="matrix(2.53518e-06, 1, -1, 2.53518e-06, 57.7869, -25.7329)">
      <g >
       <rect  height="3.685" y="14.185" x="39.634" fill="#9A916C" width="4.252" gorn="0.1.0.26.0.0.0" id="connector29pin"/>
      </g>
     </g>
    </g>
   </g>
  </g>
  <g transform="matrix(0, 1, -1, 0, 63.1729, -20.3471)">
   <g >
    <g >
     <g transform="matrix(2.53518e-06, 1, -1, 2.53518e-06, 63.1727, -20.3471)">
      <g >
       <rect  height="3.685" y="19.57" x="39.634" fill="#9A916C" width="4.252" gorn="0.1.0.27.0.0.0" id="connector30pin"/>
      </g>
     </g>
    </g>
   </g>
  </g>
  <g transform="matrix(0, 1, -1, 0, 63.5471, -31.4929)">
   <g >
    <g >
     <g transform="matrix(2.53518e-06, 1, -1, 2.53518e-06, 63.5469, -31.4929)">
      <g >
       <rect  height="3.685" y="14.185" x="45.394" fill="#9A916C" width="4.252" gorn="0.1.0.28.0.0.0" id="connector31pin"/>
      </g>
     </g>
    </g>
   </g>
  </g>
  <g transform="matrix(0, 1, -1, 0, 68.9329, -26.1071)">
   <g >
    <g >
     <g transform="matrix(2.53518e-06, 1, -1, 2.53518e-06, 68.9327, -26.1071)">
      <g >
       <rect  height="3.685" y="19.57" x="45.394" fill="#9A916C" width="4.252" gorn="0.1.0.29.0.0.0" id="connector32pin"/>
      </g>
     </g>
    </g>
   </g>
  </g>
  <g transform="matrix(0, 1, -1, 0, 69.3071, -37.2529)">
   <g >
    <g >
     <g transform="matrix(2.53518e-06, 1, -1, 2.53518e-06, 69.3069, -37.2529)">
      <g >
       <rect  height="3.685" y="14.185" x="51.154" fill="#9A916C" width="4.252" gorn="0.1.0.30.0.0.0" id="connector33pin"/>
      </g>
     </g>
    </g>
   </g>
  </g>
  <g transform="matrix(0, 1, -1, 0, 74.6928, -31.8671)">
   <g >
    <g >
     <g transform="matrix(2.53518e-06, 1, -1, 2.53518e-06, 74.6927, -31.8671)">
      <g >
       <rect  height="3.685" y="19.57" x="51.154" fill="#9A916C" width="4.252" gorn="0.1.0.31.0.0.0" id="connector34pin"/>
      </g>
     </g>
    </g>
   </g>
  </g>
  <circle  stroke-width="1.44" stroke="#9A916C" r="4.263" cy="7.2" fill="none" gorn="0.1.0.32" cx="7.2" id="connector35pin"/>
  <circle  stroke-width="1.44" stroke="#9A916C" r="4.263" cy="7.2" fill="none" gorn="0.1.0.33" cx="50.4" id="connector36pin"/>
 </g>
 <g transform="matrix(1, 0, 0, 1, 1.4855, 16.9485)">
  <g >
   <g  gorn="0.1.1.0" id="_x30_805-cap">
    <g transform="matrix(0, -1, 1, 0, 1.063, 4.606)">
     <g >
      <g >
       <path  d="M5.386,3.543L0.283,3.543C0.127,3.543,0,3.416,0,3.26L0,0.283C0,0.127,0.127,0,0.283,0l5.102,0c0.157,0,0.283,0.127,0.283,0.283L5.668,3.26C5.669,3.416,5.542,3.543,5.386,3.543z" fill="#DCDCDC"/>
       <g transform="matrix(-2.53518e-06, -1, 1, -2.53518e-06, 1.063, 4.606)">
        <g >
         <rect  height="3.543" y="0" x="1.063" fill="#6E554B" width="3.543"/>
        </g>
       </g>
      </g>
     </g>
    </g>
   </g>
  </g>
 </g>
 <g transform="matrix(1, 0, 0, 1, 24.548, 9.56225)">
  <g >
   <g  gorn="0.1.2.0" id="msop8_0.65mm">
    <g transform="matrix(0, 1, -1, 0, 11.197, 2.69302)">
     <g >
      <g >
       <g transform="matrix(2.53518e-06, 1, -1, 2.53518e-06, 9.9367, 3.9532)">
        <g >
         <rect  height="0.85" y="6.52" x="-3.953" fill="#DCDCDC" width="13.89"/>
        </g>
       </g>
       <g transform="matrix(2.53518e-06, 1, -1, 2.53518e-06, 11.7787, 2.1112)">
        <g >
         <rect  height="0.85" y="6.52" x="-2.111" fill="#DCDCDC" width="13.89"/>
        </g>
       </g>
       <g transform="matrix(2.53518e-06, 1, -1, 2.53518e-06, 13.6217, 0.2682)">
        <g >
         <rect  height="0.85" y="6.52" x="-0.268" fill="#DCDCDC" width="13.89"/>
        </g>
       </g>
       <g transform="matrix(2.53518e-06, 1, -1, 2.53518e-06, 15.4637, -1.5738)">
        <g >
         <rect  height="0.85" y="6.52" x="1.574" fill="#DCDCDC" width="13.89"/>
        </g>
       </g>
       <path  d="M9.997,3.229l0,7.37c0,0.313,-0.254,0.567,-0.567,0.567L2.06,11.166c-0.313,0,-0.567,-0.254,-0.567,-0.567l0,-7.37c0,-0.313,0.254,-0.567,0.567,-0.567l7.37,0C9.743,2.662,9.997,2.916,9.997,3.229z" fill="#333333"/>
       <circle  r="0.709" cy="9.748" cx="2.91"/>
      </g>
     </g>
    </g>
   </g>
  </g>
 </g>
 <g transform="matrix(1, 0, 0, 1, 7.2455, 16.9485)">
  <g >
   <g  gorn="0.1.3.0" id="_x30_805-res">
    <g transform="matrix(0, 1, -1, 0, 4.606, -1.063)">
     <g >
      <g >
       <path  d="M5.386,3.543L0.283,3.543C0.127,3.543,0,3.416,0,3.26L0,0.283C0,0.127,0.127,0,0.283,0l5.102,0c0.157,0,0.283,0.127,0.283,0.283L5.668,3.26C5.669,3.416,5.542,3.543,5.386,3.543z" fill="#DCDCDC"/>
       <g transform="matrix(2.53518e-06, 1, -1, 2.53518e-06, 4.606, -1.063)">
        <g >
         <rect  height="3.543" y="0" x="1.063" fill="#333333" width="3.543"/>
        </g>
       </g>
      </g>
     </g>
    </g>
   </g>
  </g>
 </g>
 <g transform="matrix(1, 0, 0, 1, 13.0055, 16.9485)">
  <g >
   <g  gorn="0.1.4.0" id="_x30_805-res_1_">
    <g transform="matrix(0, 1, -1, 0, 4.606, -1.063)">
     <g >
      <g >
       <path  d="M5.386,3.543L0.283,3.543C0.127,3.543,0,3.416,0,3.26L0,0.283C0,0.127,0.127,0,0.283,0l5.102,0c0.157,0,0.283,0.127,0.283,0.283L5.668,3.26C5.669,3.416,5.542,3.543,5.386,3.543z" fill="#DCDCDC"/>
       <g transform="matrix(2.53518e-06, 1, -1, 2.53518e-06, 4.606, -1.063)">
        <g >
         <rect  height="3.543" y="0" x="1.063" fill="#333333" width="3.543"/>
        </g>
       </g>
      </g>
     </g>
    </g>
   </g>
  </g>
 </g>
 <g transform="matrix(1, 0, 0, 1, 38.9255, 16.9485)">
  <g >
   <g  gorn="0.1.5.0" id="_x30_805-res_2_">
    <g transform="matrix(0, 1, -1, 0, 4.606, -1.063)">
     <g >
      <g >
       <path  d="M5.386,3.543L0.283,3.543C0.127,3.543,0,3.416,0,3.26L0,0.283C0,0.127,0.127,0,0.283,0l5.102,0c0.157,0,0.283,0.127,0.283,0.283L5.668,3.26C5.669,3.416,5.542,3.543,5.386,3.543z" fill="#DCDCDC"/>
       <g transform="matrix(2.53518e-06, 1, -1, 2.53518e-06, 4.606, -1.063)">
        <g >
         <rect  height="3.543" y="0" x="1.063" fill="#333333" width="3.543"/>
        </g>
       </g>
      </g>
     </g>
    </g>
   </g>
  </g>
 </g>
 <g transform="matrix(1, 0, 0, 1, 44.6855, 16.9485)">
  <g >
   <g  gorn="0.1.6.0" id="_x30_805-res_3_">
    <g transform="matrix(0, 1, -1, 0, 4.606, -1.063)">
     <g >
      <g >
       <path  d="M5.386,3.543L0.283,3.543C0.127,3.543,0,3.416,0,3.26L0,0.283C0,0.127,0.127,0,0.283,0l5.102,0c0.157,0,0.283,0.127,0.283,0.283L5.668,3.26C5.669,3.416,5.542,3.543,5.386,3.543z" fill="#DCDCDC"/>
       <g transform="matrix(2.53518e-06, 1, -1, 2.53518e-06, 4.606, -1.063)">
        <g >
         <rect  height="3.543" y="0" x="1.063" fill="#333333" width="3.543"/>
        </g>
       </g>
      </g>
     </g>
    </g>
   </g>
  </g>
 </g>
 <g transform="matrix(1, 0, 0, 1, 50.4455, 16.9485)">
  <g >
   <g  gorn="0.1.7.0" id="_x30_805-res_4_">
    <g transform="matrix(0, 1, -1, 0, 4.606, -1.063)">
     <g >
      <g >
       <path  d="M5.386,3.543L0.283,3.543C0.127,3.543,0,3.416,0,3.26L0,0.283C0,0.127,0.127,0,0.283,0l5.102,0c0.157,0,0.283,0.127,0.283,0.283L5.668,3.26C5.669,3.416,5.542,3.543,5.386,3.543z" fill="#DCDCDC"/>
       <g transform="matrix(2.53518e-06, 1, -1, 2.53518e-06, 4.606, -1.063)">
        <g >
         <rect  height="3.543" y="0" x="1.063" fill="#333333" width="3.543"/>
        </g>
       </g>
      </g>
     </g>
    </g>
   </g>
  </g>
 </g>
 <g transform="matrix(1, 0, 0, 1, 10.8048, 0.663566)">
  <g >
   <g  gorn="0.1.8.0" id="adafruit_2.5mm">
    <path  d="M9.747,3.082c-0.023,-0.142,-0.1,-0.183,-0.286,-0.243C9.319,2.794,8.372,2.492,8.372,2.492s-0.66,-0.249,-1.15,0.103c-0.066,0.048,-0.134,0.102,-0.203,0.16c0.058,-0.069,0.112,-0.137,0.159,-0.203c0.352,-0.49,0.101,-1.15,0.101,-1.15S6.976,0.455,6.93,0.313C6.87,0.127,6.83,0.05,6.687,0.028C6.545,0.005,6.483,0.066,6.369,0.225c-0.087,0.12,-0.667,0.928,-0.667,0.928S5.261,1.704,5.445,2.279C5.47,2.356,5.5,2.438,5.534,2.521C5.486,2.445,5.438,2.372,5.39,2.307C5.032,1.821,4.328,1.855,4.328,1.855S3.333,1.851,3.185,1.851c-0.195,0,-0.281,0.014,-0.347,0.143C2.773,2.122,2.811,2.2,2.927,2.358c0.088,0.12,0.677,0.921,0.677,0.921s0.388,0.59,0.991,0.592c0.081,0,0.168,-0.003,0.257,-0.01C4.765,3.883,4.681,3.907,4.604,3.932c-0.573,0.19,-0.758,0.871,-0.758,0.871s-0.31,0.944,-0.357,1.085C3.428,6.074,3.416,6.16,3.518,6.262C3.62,6.364,3.706,6.352,3.892,6.29c0.141,-0.046,1.085,-0.359,1.085,-0.359s0.681,-0.187,0.869,-0.76c0.025,-0.077,0.049,-0.16,0.07,-0.247C5.91,5.014,5.907,5.1,5.907,5.181c0.004,0.603,0.594,0.99,0.594,0.99s0.802,0.588,0.922,0.675C7.581,6.962,7.659,7,7.788,6.935C7.916,6.869,7.931,6.783,7.93,6.588C7.929,6.439,7.924,5.445,7.924,5.445S7.957,4.74,7.47,4.383C7.405,4.335,7.332,4.287,7.256,4.24c0.083,0.034,0.165,0.064,0.242,0.088c0.575,0.183,1.125,-0.259,1.125,-0.259S9.43,3.488,9.55,3.401C9.709,3.286,9.769,3.224,9.747,3.082zM6.322,2.35c0.108,0.017,0.162,0.248,0.12,0.515C6.4,3.132,6.278,3.335,6.169,3.318C6.061,3.301,6.007,3.07,6.049,2.803C6.091,2.535,6.213,2.332,6.322,2.35zM4.933,3.059c0.05,-0.098,0.286,-0.078,0.527,0.045s0.397,0.302,0.347,0.399C5.757,3.601,5.521,3.581,5.28,3.458C5.038,3.335,4.883,3.157,4.933,3.059zM5.665,4.393C5.474,4.584,5.256,4.677,5.178,4.599C5.101,4.521,5.193,4.303,5.384,4.112C5.575,3.92,5.793,3.827,5.871,3.905C5.949,3.983,5.857,4.201,5.665,4.393zM6.719,4.842c-0.098,0.05,-0.277,-0.105,-0.4,-0.346C6.196,4.254,6.175,4.018,6.273,3.968c0.098,-0.05,0.277,0.105,0.4,0.346C6.796,4.556,6.817,4.792,6.719,4.842zM6.973,3.725C6.706,3.767,6.475,3.714,6.457,3.606C6.44,3.497,6.643,3.375,6.91,3.332c0.267,-0.043,0.498,0.011,0.515,0.119C7.443,3.56,7.24,3.682,6.973,3.725z" fill="#DCDCDC"/>
   </g>
  </g>
 </g>
</g>
</g></svg>