<?xml version='1.0' encoding='UTF-8' standalone='no'?>
<!-- Created with Fritzing (http://www.fritzing.org/) -->
<svg xmlns:svg='http://www.w3.org/2000/svg' xmlns='http://www.w3.org/2000/svg' version='1.2' baseProfile='tiny' x='0in' y='0in' width='0.8in' height='1.1in' viewBox='0 0 57.6 79.2' >
<g partID='19890'><g gorn="0.4" id="breadboard">
<g gorn="0.4.0" id="icon">
<path fill="#014cb1" gorn="0.4.0.0" stroke="none" id="path4314" stroke-width="0" d="M7.2,79.2A7.2,7.2,0,0,1,0,72L0,7.2A7.2,7.2,0,0,1,7.2,0L50.4,0A7.2,7.2,0,0,1,57.6,7.2L57.6,72A7.2,7.2,0,0,1,50.4,79.2L7.2,79.2M25.0582,6.18803a3.54331,3.54331,0,1,0,7.08661,0,3.54331,3.54331,0,1,0,-7.08661,0zM37.9842,73.8a1.41732,1.41732,0,1,0,2.83465,0,1.41732,1.41732,0,1,0,-2.83465,0zM30.7842,73.8a1.41732,1.41732,0,1,0,2.83465,0,1.41732,1.41732,0,1,0,-2.83465,0zM23.5842,73.8a1.41732,1.41732,0,1,0,2.83465,0,1.41732,1.41732,0,1,0,-2.83465,0zM16.3842,73.8a1.41732,1.41732,0,1,0,2.83465,0,1.41732,1.41732,0,1,0,-2.83465,0zM3.65669,72a3.54331,3.54331,0,1,0,7.08661,0,3.54331,3.54331,0,1,0,-7.08661,0zM46.8567,72a3.54331,3.54331,0,1,0,7.08661,0,3.54331,3.54331,0,1,0,-7.08661,0zM3.65669,7.2a3.54331,3.54331,0,1,0,7.08661,0,3.54331,3.54331,0,1,0,-7.08661,0zM46.8567,7.2a3.54331,3.54331,0,1,0,7.08661,0,3.54331,3.54331,0,1,0,-7.08661,0zM25.251,52.7754a1.27559,1.27559,0,1,0,2.55118,0,1.27559,1.27559,0,1,0,-2.55118,0z"/>
<g gorn="0.4.0.1" id="g4316">
<title id="title4318">layer 21</title>
<g gorn="0.4.0.1.1" id="g4320">
<title id="title4322">text:VDD</title>
<g transform="matrix(1, 0, 0, 1, 34.0497, 69.789)">
<g>
<g gorn="0.4.0.1.1.1.0" id="g4324">
<g transform="rotate(270)">
<g>
<g gorn="0.4.0.1.1.1.0.0.0" id="g4326">
<text x="0" y="0" font-family="OCRA" fill="#ffffff" gorn="0.4.0.1.1.1.0.0.0.0" text-anchor="start" stroke="none" id="text4328" stroke-width="0" font-size="3.3408">VDD</text>
</g>
</g>
</g>
</g>
</g>
</g>
</g>
<g gorn="0.4.0.1.2" id="g4330">
<title id="title4332">text:GND</title>
<g transform="matrix(1, 0, 0, 1, 18.8731, 69.9024)">
<g>
<g gorn="0.4.0.1.2.1.0" id="g4334">
<g transform="rotate(270)">
<g>
<g gorn="0.4.0.1.2.1.0.0.0" id="g4336">
<text x="0" y="0" font-family="OCRA" fill="#ffffff" gorn="0.4.0.1.2.1.0.0.0.0" text-anchor="start" stroke="none" id="text4338" stroke-width="0" font-size="3.3408">GND</text>
</g>
</g>
</g>
</g>
</g>
</g>
</g>
<g gorn="0.4.0.1.3" id="g4340">
<title id="title4342">text:OUT</title>
<g transform="matrix(1, 0, 0, 1, 25.6478, 70.0158)">
<g>
<g gorn="0.4.0.1.3.1.0" id="g4344">
<g transform="rotate(270)">
<g>
<g gorn="0.4.0.1.3.1.0.0.0" id="g4346">
<text x="0" y="0" font-family="OCRA" fill="#ffffff" gorn="0.4.0.1.3.1.0.0.0.0" text-anchor="start" stroke="none" id="text4348" stroke-width="0" font-size="3.3408">OUT</text>
</g>
</g>
</g>
</g>
</g>
</g>
</g>
<g gorn="0.4.0.1.4" id="g4350">
<title id="title4352">text:AT42QT1010</title>
<text x="12.4016" y="58.8274" font-family="OCRA" fill="#ffffff" gorn="0.4.0.1.4.1" text-anchor="start" stroke="none" id="text4354" stroke-width="0" font-size="4.176">AT42QT1010</text>
</g>
<g gorn="0.4.0.1.5" id="g4356">
<title id="title4358">text:LEDA</title>
<g transform="matrix(1, 0, 0, 1, 40.5297, 69.789)">
<g>
<g gorn="0.4.0.1.5.1.0" id="g4360">
<g transform="rotate(270)">
<g>
<g gorn="0.4.0.1.5.1.0.0.0" id="g4362">
<text x="0" y="0" font-family="OCRA" fill="#ffffff" gorn="0.4.0.1.5.1.0.0.0.0" text-anchor="start" stroke="none" id="text4364" stroke-width="0" font-size="3.3408">LEDA</text>
</g>
</g>
</g>
</g>
</g>
</g>
</g>
<g gorn="0.4.0.1.6" id="g4366">
<title id="title4368">element:C1</title>
<g gorn="0.4.0.1.6.1" id="g4370">
<title id="title4372">package:_0805</title>
</g>
</g>
<g gorn="0.4.0.1.7" id="g4374">
<title id="title4376">element:C3</title>
<g gorn="0.4.0.1.7.1" id="g4378">
<title id="title4380">package:_0805</title>
</g>
</g>
<g gorn="0.4.0.1.8" id="g4382">
<title id="title4384">element:FID1</title>
<g gorn="0.4.0.1.8.1" id="g4386">
<title id="title4388">package:FIDUCIAL_1MM</title>
</g>
</g>
<g gorn="0.4.0.1.9" id="g4390">
<title id="title4392">element:FID2</title>
<g gorn="0.4.0.1.9.1" id="g4394">
<title id="title4396">package:FIDUCIAL_1MM</title>
</g>
</g>
<g gorn="0.4.0.1.10" id="g4398">
<title id="title4400">element:JP1</title>
<g gorn="0.4.0.1.10.1" id="g4402">
<title id="title4404">package:1X04_ROUND_76</title>
</g>
</g>
<g gorn="0.4.0.1.11" id="g4406">
<title id="title4408">element:LED1</title>
<g gorn="0.4.0.1.11.1" id="g4410">
<title id="title4412">package:PLCC2_REVMOUNT</title>
</g>
</g>
<g gorn="0.4.0.1.12" id="g4414">
<title id="title4416">element:R1</title>
<g gorn="0.4.0.1.12.1" id="g4418">
<title id="title4420">package:_0805</title>
</g>
</g>
<g gorn="0.4.0.1.13" id="g4422">
<title id="title4424">element:R2</title>
<g gorn="0.4.0.1.13.1" id="g4426">
<title id="title4428">package:_0805</title>
</g>
</g>
<g gorn="0.4.0.1.14" id="g4430">
<title id="title4432">element:SJ1</title>
<g gorn="0.4.0.1.14.1" id="g4434">
<title id="title4436">package:SOLDERJUMPER_CLOSEDWIRE</title>
</g>
</g>
<g gorn="0.4.0.1.15" id="g4438">
<title id="title4440">element:SJ2</title>
<g gorn="0.4.0.1.15.1" id="g4442">
<title id="title4444">package:SOLDERJUMPER_2WAY_OPEN_NOPASTE</title>
</g>
</g>
<g gorn="0.4.0.1.16" id="g4446">
<title id="title4448">element:SW1</title>
<g gorn="0.4.0.1.16.1" id="g4450">
<title id="title4452">package:CAPTOUCH_SIMPLE_12.5MM</title>
<path fill="none" gorn="0.4.0.1.16.1.1" stroke="white" id="path4454" stroke-width="0.36" d="M19.389,11.9055A9.21262,9.21262,0,0,0,10.1764,21.1181"/>
<line gorn="0.4.0.1.16.1.2" stroke="white" id="line4456" stroke-linecap="round" y1="11.9055" stroke-width="0.36" y2="11.9055" x1="19.389" x2="37.8142"/>
<path fill="none" gorn="0.4.0.1.16.1.3" stroke="white" id="path4458" stroke-width="0.36" d="M47.0268,21.1181A9.21262,9.21262,0,0,0,37.8142,11.9055"/>
<line gorn="0.4.0.1.16.1.4" stroke="white" id="line4460" stroke-linecap="round" y1="21.1181" stroke-width="0.36" y2="39.5433" x1="47.0268" x2="47.0268"/>
<path fill="none" gorn="0.4.0.1.16.1.5" stroke="white" id="path4462" stroke-width="0.36" d="M37.8142,48.7559A9.21262,9.21262,0,0,0,47.0268,39.5433"/>
<line gorn="0.4.0.1.16.1.6" stroke="white" id="line4464" stroke-linecap="round" y1="48.7559" stroke-width="0.36" y2="48.7559" x1="37.8142" x2="19.389"/>
<path fill="none" gorn="0.4.0.1.16.1.7" stroke="white" id="path4466" stroke-width="0.36" d="M10.1764,39.5433A9.21262,9.21262,0,0,0,19.389,48.7559"/>
<line gorn="0.4.0.1.16.1.8" stroke="white" id="line4468" stroke-linecap="round" y1="39.5433" stroke-width="0.36" y2="21.1181" x1="10.1764" x2="10.1764"/>
</g>
</g>
<g gorn="0.4.0.1.17" id="g4470">
<title id="title4472">element:U$6</title>
<g gorn="0.4.0.1.17.1" id="g4474">
<title id="title4476">package:MOUNTINGHOLE_2.5_PLATED</title>
</g>
</g>
<g gorn="0.4.0.1.18" id="g4478">
<title id="title4480">element:U$9</title>
<g gorn="0.4.0.1.18.1" id="g4482">
<title id="title4484">package:MOUNTINGHOLE_2.5_PLATED</title>
</g>
</g>
<g gorn="0.4.0.1.19" id="g4486">
<title id="title4488">element:U$10</title>
<g gorn="0.4.0.1.19.1" id="g4490">
<title id="title4492">package:MOUNTINGHOLE_2.5_PLATED</title>
</g>
</g>
<g gorn="0.4.0.1.20" id="g4494">
<title id="title4496">element:U$11</title>
<g gorn="0.4.0.1.20.1" id="g4498">
<title id="title4500">package:MOUNTINGHOLE_2.5_PLATED</title>
</g>
</g>
<g gorn="0.4.0.1.21" id="g4502">
<title id="title4504">element:U$12</title>
<g gorn="0.4.0.1.21.1" id="g4506">
<title id="title4508">package:ADAFRUIT_5MM</title>
</g>
</g>
<g gorn="0.4.0.1.22" id="g4510">
<title id="title4512">element:U1</title>
<g gorn="0.4.0.1.22.1" id="g4514">
<title id="title4516">package:SOT23-6</title>
</g>
</g>
</g>
<circle fill="none" gorn="0.4.0.2" cx="39.4016" cy="73.8" connectorname="LEDA" stroke="#9A916C" r="2.07666" id="connector0pin" stroke-width="1.31868"/>
<circle fill="none" gorn="0.4.0.3" cx="32.2016" cy="73.8" connectorname="VDD" stroke="#9A916C" r="2.07666" id="connector1pin" stroke-width="1.31868"/>
<circle fill="none" gorn="0.4.0.4" cx="25.0016" cy="73.8" connectorname="OUT" stroke="#9A916C" r="2.07666" id="connector2pin" stroke-width="1.31868"/>
<g width="0.010944" x="25.1774" y="73.7945" fill="none" height="0.010944" stroke="none" id="connector2terminal" stroke-width="0"/>
<circle fill="none" gorn="0.4.0.5" cx="17.8016" cy="73.8" connectorname="GND" stroke="#9A916C" r="2.07666" id="connector3pin" stroke-width="1.31868"/>
<rect width="3.6" x="26.8016" y="46.2969" fill="#9A916C" gorn="0.4.0.6" height="1.8" stroke="none" id="connector4pin" stroke-width="0"/>
<circle fill="none" gorn="0.4.0.7" cx="7.2" cy="72" connectorname="P$1" stroke="#9A916C" r="4.26331" id="connector5pin" stroke-width="1.44"/>
<circle fill="none" gorn="0.4.0.8" cx="50.4" cy="72" connectorname="P$1" stroke="#9A916C" r="4.26331" id="connector6pin" stroke-width="1.44"/>
<circle fill="none" gorn="0.4.0.9" cx="7.2" cy="7.2" connectorname="P$1" stroke="#9A916C" r="4.26331" id="connector7pin" stroke-width="1.44"/>
<circle fill="none" gorn="0.4.0.10" cx="50.4" cy="7.2" connectorname="P$1" stroke="#9A916C" r="4.26331" id="connector8pin" stroke-width="1.44"/>
<circle fill="none" gorn="0.4.0.11" cx="26.5266" cy="52.7754" connectorname="CAPPAD" stroke="#9A916C" r="1.8258" id="connector9pin" stroke-width="1.10041"/>
</g>
</g>
</g></svg>