<?xml version='1.0' encoding='UTF-8' standalone='no'?>
<!-- Created with Fritzing (http://www.fritzing.org/) -->
<svg xmlns:svg='http://www.w3.org/2000/svg' xmlns='http://www.w3.org/2000/svg' version='1.2' baseProfile='tiny' x='0in' y='0in' width='0.795833in' height='0.8in' viewBox='0 0 57.3 57.6' >
<g partID='19900'><g  gorn="0.2" id="breadboard">
 <g  gorn="0.2.0" id="icon">
  <path  fill="#E72D2F" d="M0,0l0,26.6c0.4,0,0.8,1,0.8,2.2C0.8,30,0.4,31,0,31l0,26.6l57.3,0L57.3,0L0,0zM8.7,10.8c0,0.8,-0.7,1.5,-1.5,1.5s-1.5,-0.7,-1.5,-1.5s0.7,-1.5,1.5,-1.5S8.7,10,8.7,10.8zM8.7,18c0,0.8,-0.7,1.5,-1.5,1.5S5.7,18.8,5.7,18c0,-0.8,0.7,-1.5,1.5,-1.5S8.7,17.2,8.7,18zM8.7,25.2c0,0.8,-0.7,1.5,-1.5,1.5S5.7,26,5.7,25.2c0,-0.8,0.7,-1.5,1.5,-1.5S8.7,24.4,8.7,25.2zM8.7,32.4c0,0.8,-0.7,1.5,-1.5,1.5s-1.5,-0.7,-1.5,-1.5c0,-0.8,0.7,-1.5,1.5,-1.5S8.7,31.6,8.7,32.4zM8.7,39.6c0,0.8,-0.7,1.5,-1.5,1.5s-1.5,-0.7,-1.5,-1.5s0.7,-1.5,1.5,-1.5S8.7,38.8,8.7,39.6zM8.7,46.8c0,0.8,-0.7,1.5,-1.5,1.5s-1.5,-0.7,-1.5,-1.5s0.7,-1.5,1.5,-1.5S8.7,46,8.7,46.8zM8.7,54c0,0.8,-0.7,1.5,-1.5,1.5S5.7,54.8,5.7,54s0.7,-1.5,1.5,-1.5S8.7,53.2,8.7,54zM51.9,3.6c0,0.8,-0.7,1.5,-1.5,1.5c-0.8,0,-1.5,-0.7,-1.5,-1.5s0.7,-1.5,1.5,-1.5C51.2,2.1,51.9,2.8,51.9,3.6zM51.9,10.8c0,0.8,-0.7,1.5,-1.5,1.5c-0.8,0,-1.5,-0.7,-1.5,-1.5s0.7,-1.5,1.5,-1.5C51.2,9.3,51.9,10,51.9,10.8zM51.9,18c0,0.8,-0.7,1.5,-1.5,1.5c-0.8,0,-1.5,-0.7,-1.5,-1.5c0,-0.8,0.7,-1.5,1.5,-1.5C51.2,16.5,51.9,17.2,51.9,18zM51.9,25.2c0,0.8,-0.7,1.5,-1.5,1.5c-0.8,0,-1.5,-0.7,-1.5,-1.5c0,-0.8,0.7,-1.5,1.5,-1.5C51.2,23.7,51.9,24.4,51.9,25.2zM51.9,32.4c0,0.8,-0.7,1.5,-1.5,1.5c-0.8,0,-1.5,-0.7,-1.5,-1.5c0,-0.8,0.7,-1.5,1.5,-1.5C51.2,30.9,51.9,31.6,51.9,32.4zM51.9,39.6c0,0.8,-0.7,1.5,-1.5,1.5c-0.8,0,-1.5,-0.7,-1.5,-1.5s0.7,-1.5,1.5,-1.5C51.2,38.1,51.9,38.8,51.9,39.6zM51.9,46.8c0,0.8,-0.7,1.5,-1.5,1.5c-0.8,0,-1.5,-0.7,-1.5,-1.5s0.7,-1.5,1.5,-1.5C51.2,45.3,51.9,46,51.9,46.8zM51.9,54c0,0.8,-0.7,1.5,-1.5,1.5c-0.8,0,-1.5,-0.7,-1.5,-1.5s0.7,-1.5,1.5,-1.5C51.2,52.5,51.9,53.2,51.9,54zM8.7,3.6c0,0.8,-0.7,1.5,-1.5,1.5S5.7,4.4,5.7,3.6s0.7,-1.5,1.5,-1.5S8.7,2.8,8.7,3.6z"/>
  <g  gorn="0.2.0.1" id="silkscreen">
   <path  fill="none" stroke="#FFFFFF" stroke-width="0.576" d="M0.3,57.3l57,0l0,-57l-57,0L0.3,57.3"/>
   <g >
    <title >element:C3</title>
    <g >
     <title >package:EIA3528</title>
     <line  fill="none" stroke="#FFFFFF" stroke-linecap="round" y1="6.3" stroke-width="0.576" y2="6.3" x1="31.4" x2="36.2"/>
     <line  fill="none" stroke="#FFFFFF" stroke-linecap="round" y1="6.3" stroke-width="0.576" y2="15.2" x1="36.2" x2="36.2"/>
     <line  fill="none" stroke="#FFFFFF" stroke-linecap="round" y1="15.2" stroke-width="0.576" y2="15.2" x1="36.2" x2="31.4"/>
     <line  fill="none" stroke="#FFFFFF" stroke-linecap="round" y1="6.4" stroke-width="0.576" y2="6.4" x1="26" x2="22.6"/>
     <line  fill="none" stroke="#FFFFFF" stroke-linecap="round" y1="6.4" stroke-width="0.576" y2="7.4" x1="22.6" x2="21.4"/>
     <line  fill="none" stroke="#FFFFFF" stroke-linecap="round" y1="7.4" stroke-width="0.576" y2="14.3" x1="21.4" x2="21.4"/>
     <line  fill="none" stroke="#FFFFFF" stroke-linecap="round" y1="14.3" stroke-width="0.576" y2="15.2" x1="21.4" x2="22.6"/>
     <line  fill="none" stroke="#FFFFFF" stroke-linecap="round" y1="15.2" stroke-width="0.576" y2="15.2" x1="22.6" x2="26"/>
     <line  fill="none" stroke="#FFFFFF" stroke-linecap="round" y1="15.2" stroke-width="0.576" y2="15.2" x1="22.6" x2="26"/>
     <line  fill="none" stroke="#FFFFFF" stroke-linecap="round" y1="14.5" stroke-width="0.576" y2="7.2" x1="27.1" x2="27.1"/>
    </g>
   </g>
   <g >
    <title >element:U1</title>
    <g >
     <title >package:SSOP24</title>
     <line  fill="none" stroke="#FFFFFF" stroke-linecap="round" y1="20.4" stroke-width="0.576" y2="44.4" x1="35.9" x2="35.9"/>
     <line  fill="none" stroke="#FFFFFF" stroke-linecap="round" y1="44.4" stroke-width="0.576" y2="44.4" x1="35.9" x2="21.7"/>
     <line  fill="none" stroke="#FFFFFF" stroke-linecap="round" y1="44.4" stroke-width="0.576" y2="20.4" x1="21.7" x2="21.7"/>
     <line  fill="none" stroke="#FFFFFF" stroke-linecap="round" y1="20.4" stroke-width="0.576" y2="20.4" x1="21.7" x2="35.9"/>
     <circle  fill="none" cx="23.8" cy="22.3" stroke="#FFFFFF" r="0.6" stroke-width="0.576"/>
    </g>
   </g>
   <g >
    <path  fill="#FFFFFF" d="M17.7,48.1c0,0,0.1,0.5,-0.2,0.5c-0.3,0,-0.7,-0.2,-0.9,-0.5c-0.3,-0.3,-0.2,-0.5,0,-0.8c0.3,-0.3,0.8,-0.2,0.8,-0.2s-0.9,-0.8,-1.9,-0.1c-0.9,0.6,-0.6,1.4,0.2,2.1c0.7,0.6,0.1,1.3,-0.6,1.2c-0.5,-0.1,-0.7,-0.4,-0.6,-0.7c0.1,-0.2,0.4,-0.3,0.4,-0.3s-0.4,-0.2,-0.9,0c-0.4,0.2,-0.8,0.5,-0.7,1.4l0,4c0,0,0.4,-0.5,0.9,-1.1c0.6,-0.6,0.8,-1,1.4,-1c1.1,0.1,1.9,-0.4,2.4,-1.2C19.2,50,18.4,48.3,17.7,48.1z"/>
   </g>
   <g transform="matrix(1, 0, 0, 1, 19.1518, 50.1547)">
    <g >
     <g >
      <g >
       <g >
        <g  enable-background="new    ">
         <text  x="0" y="0" fill="#FFFFFF" font-family="OCRA" font-size="4">TB6612FNG</text>
         <text  x="0" y="4.8" fill="#FFFFFF" font-family="OCRA" font-size="4">Breakout</text>
        </g>
       </g>
      </g>
     </g>
    </g>
   </g>
  </g>
  <g >
   <g >
    <g transform="matrix(0, -1, 1, 0, -9.35719, 46.2303)">
     <g >
      <g >
       <g >
        <g >
         <g >
          <g transform="matrix(-2.54711e-06, -1, 1, -2.54711e-06, -9.2874, 46.1733)">
           <g >
            <g >
             <g >
              <g >
               <rect  width="4" x="16.4" y="27.2" fill="#888E8A" gorn="0.2.0.2.0.0.0.0.0.0.0.0.0.0.0" height="1" id="connector25pad"/>
              </g>
             </g>
            </g>
           </g>
          </g>
         </g>
        </g>
       </g>
      </g>
     </g>
    </g>
    <g transform="matrix(0, -1, 1, 0, -24.0973, 60.9704)">
     <g >
      <g >
       <g >
        <g >
         <g >
          <g transform="matrix(-2.54711e-06, -1, 1, -2.54711e-06, -24.0677, 60.8733)">
           <g >
            <g >
             <g >
              <g >
               <rect  width="4" x="16.4" y="42" fill="#888E8A" gorn="0.2.0.2.0.1.0.0.0.0.0.0.0.0.0" height="1" id="connector33pad"/>
              </g>
             </g>
            </g>
           </g>
          </g>
         </g>
        </g>
       </g>
      </g>
     </g>
    </g>
    <g transform="matrix(0, -1, 1, 0, 9.52726, 68.7997)">
     <g >
      <g >
       <g >
        <g >
         <g >
          <g transform="matrix(-2.54711e-06, -1, 1, -2.54711e-06, 9.5277, 68.7273)">
           <g >
            <g >
             <g >
              <g >
               <rect  width="4" x="37.1" y="29.1" fill="#888E8A" gorn="0.2.0.2.0.2.0.0.0.0.0.0.0.0.0" height="1" id="connector41pad"/>
              </g>
             </g>
            </g>
           </g>
          </g>
         </g>
        </g>
       </g>
      </g>
     </g>
    </g>
    <g transform="matrix(0, -1, 1, 0, -16.7273, 53.6003)">
     <g >
      <g >
       <g >
        <g >
         <g >
          <g transform="matrix(-2.54711e-06, -1, 1, -2.54711e-06, -16.6275, 53.5733)">
           <g >
            <g >
             <g >
              <g >
               <rect  width="4" x="16.5" y="34.6" fill="#888E8A" gorn="0.2.0.2.0.3.0.0.0.0.0.0.0.0.0" height="1" id="connector29pad"/>
              </g>
             </g>
            </g>
           </g>
          </g>
         </g>
        </g>
       </g>
      </g>
     </g>
    </g>
    <g transform="matrix(0, -1, 1, 0, 2.15716, 76.1695)">
     <g >
      <g >
       <g >
        <g >
         <g >
          <g transform="matrix(-2.54711e-06, -1, 1, -2.54711e-06, 2.1875, 76.1273)">
           <g >
            <g >
             <g >
              <g >
               <rect  width="4" x="37.2" y="36.5" fill="#888E8A" gorn="0.2.0.2.0.4.0.0.0.0.0.0.0.0.0" height="1" id="connector37pad"/>
              </g>
             </g>
            </g>
           </g>
          </g>
         </g>
        </g>
       </g>
      </g>
     </g>
    </g>
    <g transform="matrix(0, -1, 1, 0, 16.8973, 61.4296)">
     <g >
      <g >
       <g >
        <g >
         <g >
          <g transform="matrix(-2.54711e-06, -1, 1, -2.54711e-06, 16.9679, 61.4273)">
           <g >
            <g >
             <g >
              <g >
               <rect  width="4" x="37.2" y="21.7" fill="#888E8A" gorn="0.2.0.2.0.5.0.0.0.0.0.0.0.0.0" height="1" id="connector45pad"/>
              </g>
             </g>
            </g>
           </g>
          </g>
         </g>
        </g>
       </g>
      </g>
     </g>
    </g>
    <g transform="matrix(0, -1, 1, 0, -13.0422, 49.9153)">
     <g >
      <g >
       <g >
        <g >
         <g >
          <g transform="matrix(-2.54711e-06, -1, 1, -2.54711e-06, -12.9575, 49.8733)">
           <g >
            <g >
             <g >
              <g >
               <rect  width="4" x="16.5" y="30.9" fill="#888E8A" gorn="0.2.0.2.0.6.0.0.0.0.0.0.0.0.0" height="1" id="connector27pad"/>
              </g>
             </g>
            </g>
           </g>
          </g>
         </g>
        </g>
       </g>
      </g>
     </g>
    </g>
    <g transform="matrix(0, -1, 1, 0, -20.4123, 57.2854)">
     <g >
      <g >
       <g >
        <g >
         <g >
          <g transform="matrix(-2.54711e-06, -1, 1, -2.54711e-06, -20.2976, 57.2733)">
           <g >
            <g >
             <g >
              <g >
               <rect  width="4" x="16.5" y="38.3" fill="#888E8A" gorn="0.2.0.2.0.7.0.0.0.0.0.0.0.0.0" height="1" id="connector31pad"/>
              </g>
             </g>
            </g>
           </g>
          </g>
         </g>
        </g>
       </g>
      </g>
     </g>
    </g>
    <g transform="matrix(0, 1, -1, 0, 79.8545, 1.52788)">
     <g >
      <g >
       <g >
        <g >
         <g >
          <g transform="matrix(2.57889e-06, 1, -1, 2.57889e-06, 79.8823, 1.5729)">
           <g >
            <g >
             <g >
              <g >
               <rect  width="4" x="37.2" y="40.2" fill="#888E8A" gorn="0.2.0.2.0.8.0.0.0.0.0.0.0.0.0" height="1" id="connector35pad"/>
              </g>
             </g>
            </g>
           </g>
          </g>
         </g>
        </g>
       </g>
      </g>
     </g>
    </g>
    <g transform="matrix(0, -1, 1, 0, 5.8422, 72.4846)">
     <g >
      <g >
       <g >
        <g >
         <g >
          <g transform="matrix(-2.54711e-06, -1, 1, -2.54711e-06, 5.8577, 72.4273)">
           <g >
            <g >
             <g >
              <g >
               <rect  width="4" x="37.1" y="32.8" fill="#888E8A" gorn="0.2.0.2.0.9.0.0.0.0.0.0.0.0.0" height="1" id="connector39pad"/>
              </g>
             </g>
            </g>
           </g>
          </g>
         </g>
        </g>
       </g>
      </g>
     </g>
    </g>
    <g transform="matrix(0, -1, 1, 0, 13.2123, 65.1146)">
     <g >
      <g >
       <g >
        <g >
         <g >
          <g transform="matrix(-2.54711e-06, -1, 1, -2.54711e-06, 13.2977, 65.1273)">
           <g >
            <g >
             <g >
              <g >
               <rect  width="4" x="37.2" y="25.4" fill="#888E8A" gorn="0.2.0.2.0.10.0.0.0.0.0.0.0.0.0" height="1" id="connector43pad"/>
              </g>
             </g>
            </g>
           </g>
          </g>
         </g>
        </g>
       </g>
      </g>
     </g>
    </g>
    <g transform="matrix(0, -1, 1, 0, -7.51464, 44.3877)">
     <g >
      <g >
       <g >
        <g >
         <g >
          <g transform="matrix(-2.54711e-06, -1, 1, -2.54711e-06, -7.4024, 44.3732)">
           <g >
            <g >
             <g >
              <g >
               <rect  width="4" x="16.5" y="25.4" fill="#888E8A" gorn="0.2.0.2.0.11.0.0.0.0.0.0.0.0.0" height="1" id="connector24pad"/>
              </g>
             </g>
            </g>
           </g>
          </g>
         </g>
        </g>
       </g>
      </g>
     </g>
    </g>
    <g transform="matrix(0, -1, 1, 0, -11.1997, 48.0727)">
     <g >
      <g >
       <g >
        <g >
         <g >
          <g transform="matrix(-2.54711e-06, -1, 1, -2.54711e-06, -11.1723, 47.9733)">
           <g >
            <g >
             <g >
              <g >
               <rect  width="4" x="16.4" y="29.1" fill="#888E8A" gorn="0.2.0.2.0.12.0.0.0.0.0.0.0.0.0" height="1" id="connector26pad"/>
              </g>
             </g>
            </g>
           </g>
          </g>
         </g>
        </g>
       </g>
      </g>
     </g>
    </g>
    <g transform="matrix(0, -1, 1, 0, -14.8847, 51.7578)">
     <g >
      <g >
       <g >
        <g >
         <g >
          <g transform="matrix(-2.54711e-06, -1, 1, -2.54711e-06, -14.8424, 51.6733)">
           <g >
            <g >
             <g >
              <g >
               <rect  width="4" x="16.4" y="32.8" fill="#888E8A" gorn="0.2.0.2.0.13.0.0.0.0.0.0.0.0.0" height="1" id="connector28pad"/>
              </g>
             </g>
            </g>
           </g>
          </g>
         </g>
        </g>
       </g>
      </g>
     </g>
    </g>
    <g transform="matrix(0, -1, 1, 0, -18.5697, 55.4428)">
     <g >
      <g >
       <g >
        <g >
         <g >
          <g transform="matrix(-2.54711e-06, -1, 1, -2.54711e-06, -18.5126, 55.3733)">
           <g >
            <g >
             <g >
              <g >
               <rect  width="4" x="16.4" y="36.4" fill="#888E8A" gorn="0.2.0.2.0.14.0.0.0.0.0.0.0.0.0" height="1" id="connector30pad"/>
              </g>
             </g>
            </g>
           </g>
          </g>
         </g>
        </g>
       </g>
      </g>
     </g>
    </g>
    <g transform="matrix(0, -1, 1, 0, -22.2548, 59.1278)">
     <g >
      <g >
       <g >
        <g >
         <g >
          <g transform="matrix(-2.54711e-06, -1, 1, -2.54711e-06, -22.1825, 59.0733)">
           <g >
            <g >
             <g >
              <g >
               <rect  width="4" x="16.4" y="40.1" fill="#888E8A" gorn="0.2.0.2.0.15.0.0.0.0.0.0.0.0.0" height="1" id="connector32pad"/>
              </g>
             </g>
            </g>
           </g>
          </g>
         </g>
        </g>
       </g>
      </g>
     </g>
    </g>
    <g transform="matrix(0, 1, -1, 0, 81.6977, 3.37039)">
     <g >
      <g >
       <g >
        <g >
         <g >
          <g transform="matrix(2.57889e-06, 1, -1, 2.57889e-06, 81.7675, 3.3729)">
           <g >
            <g >
             <g >
              <g >
               <rect  width="4" x="37.2" y="42.1" fill="#888E8A" gorn="0.2.0.2.0.16.0.0.0.0.0.0.0.0.0" height="1" id="connector34pad"/>
              </g>
             </g>
            </g>
           </g>
          </g>
         </g>
        </g>
       </g>
      </g>
     </g>
    </g>
    <g transform="matrix(0, -1, 1, 0, 0.314646, 78.012)">
     <g >
      <g >
       <g >
        <g >
         <g >
          <g transform="matrix(-2.54711e-06, -1, 1, -2.54711e-06, 0.4025, 78.0273)">
           <g >
            <g >
             <g >
              <g >
               <rect  width="4" x="37.2" y="38.3" fill="#888E8A" gorn="0.2.0.2.0.17.0.0.0.0.0.0.0.0.0" height="1" id="connector36pad"/>
              </g>
             </g>
            </g>
           </g>
          </g>
         </g>
        </g>
       </g>
      </g>
     </g>
    </g>
    <g transform="matrix(0, -1, 1, 0, 3.99969, 74.327)">
     <g >
      <g >
       <g >
        <g >
         <g >
          <g transform="matrix(-2.54711e-06, -1, 1, -2.54711e-06, 4.0725, 74.3273)">
           <g >
            <g >
             <g >
              <g >
               <rect  width="4" x="37.2" y="34.6" fill="#888E8A" gorn="0.2.0.2.0.18.0.0.0.0.0.0.0.0.0" height="1" id="connector38pad"/>
              </g>
             </g>
            </g>
           </g>
          </g>
         </g>
        </g>
       </g>
      </g>
     </g>
    </g>
    <g transform="matrix(0, -1, 1, 0, 7.6847, 70.6422)">
     <g >
      <g >
       <g >
        <g >
         <g >
          <g transform="matrix(-2.54711e-06, -1, 1, -2.54711e-06, 7.7425, 70.6273)">
           <g >
            <g >
             <g >
              <g >
               <rect  width="4" x="37.2" y="30.9" fill="#888E8A" gorn="0.2.0.2.0.19.0.0.0.0.0.0.0.0.0" height="1" id="connector40pad"/>
              </g>
             </g>
            </g>
           </g>
          </g>
         </g>
        </g>
       </g>
      </g>
     </g>
    </g>
    <g transform="matrix(0, -1, 1, 0, 11.3697, 66.9572)">
     <g >
      <g >
       <g >
        <g >
         <g >
          <g transform="matrix(-2.54711e-06, -1, 1, -2.54711e-06, 11.4127, 66.9273)">
           <g >
            <g >
             <g >
              <g >
               <rect  width="4" x="37.2" y="27.3" fill="#888E8A" gorn="0.2.0.2.0.20.0.0.0.0.0.0.0.0.0" height="1" id="connector42pad"/>
              </g>
             </g>
            </g>
           </g>
          </g>
         </g>
        </g>
       </g>
      </g>
     </g>
    </g>
    <g transform="matrix(0, -1, 1, 0, 15.0548, 63.2722)">
     <g >
      <g >
       <g >
        <g >
         <g >
          <g transform="matrix(-2.54711e-06, -1, 1, -2.54711e-06, 15.0827, 63.2273)">
           <g >
            <g >
             <g >
              <g >
               <rect  width="4" x="37.2" y="23.6" fill="#888E8A" gorn="0.2.0.2.0.21.0.0.0.0.0.0.0.0.0" height="1" id="connector44pad"/>
              </g>
             </g>
            </g>
           </g>
          </g>
         </g>
        </g>
       </g>
      </g>
     </g>
    </g>
    <g transform="matrix(0, -1, 1, 0, -3.82961, 40.7027)">
     <g >
      <g >
       <g >
        <g >
         <g >
          <g transform="matrix(-2.54711e-06, -1, 1, -2.54711e-06, -3.7322, 40.6733)">
           <g >
            <g >
             <g >
              <g >
               <rect  width="4" x="16.5" y="21.7" fill="#888E8A" gorn="0.2.0.2.0.22.0.0.0.0.0.0.0.0.0" height="1" id="connector22pad"/>
              </g>
             </g>
            </g>
           </g>
          </g>
         </g>
        </g>
       </g>
      </g>
     </g>
    </g>
    <g transform="matrix(0, -1, 1, 0, -5.67212, 42.5452)">
     <g >
      <g >
       <g >
        <g >
         <g >
          <g transform="matrix(-2.54711e-06, -1, 1, -2.54711e-06, -5.6174, 42.4733)">
           <g >
            <g >
             <g >
              <g >
               <rect  width="4" x="16.4" y="23.5" fill="#888E8A" gorn="0.2.0.2.0.23.0.0.0.0.0.0.0.0.0" height="1" id="connector23pad"/>
              </g>
             </g>
            </g>
           </g>
          </g>
         </g>
        </g>
       </g>
      </g>
     </g>
    </g>
   </g>
   <g >
    <rect  width="5.7" x="22.3" y="16.7" fill="#EF4130" height="2.6"/>
    <rect  width="5.7" x="29.6" y="16.7" fill="#EF4130" height="2.6"/>
   </g>
   <g >
    <rect  width="12.7" x="22.4" y="7.2" fill="#303030" height="7.1"/>
    <rect  width="1.4" x="22.4" y="7.2" fill="#E5E3E3" height="7.1"/>
   </g>
   <g transform="matrix(2.57889e-06, 1, -1, 2.57889e-06, 35.224, -13.1073)">
    <g >
     <g >
      <g >
       <g >
        <g >
         <g >
          <g >
           <g >
            <g  gorn="0.2.0.2.3.0.0.0.0.0.0.0.0" id="_x30_.1.12.0.0.0.0.8_1_">
             <g transform="matrix(-5.20549e-07, 1, -1, -5.20549e-07, 51.3475, -38.8063)">
              <g >
               <g >
                <g >
                 <g >
                  <rect  width="18.1" x="36" y="-5.3" fill="#303030" gorn="0.2.0.2.3.0.0.0.0.0.0.0.0.0.0.0.0.0" height="23.2" id="_x30_.1.12.0.0.0.0.8.0_1_"/>
                 </g>
                </g>
               </g>
              </g>
             </g>
            </g>
           </g>
          </g>
         </g>
        </g>
       </g>
      </g>
     </g>
    </g>
   </g>
   <polygon  fill="#1F1F1F" points="19.9,43.6,19.9,20.4,20.9,21.1,20.9,42.8" gorn="0.2.0.2.4" id="_x30_.1.12.0.0.0.0.9_1_"/>
   <polygon  fill="#1F1F1F" points="38,43.6,38,20.4,36.9,21.1,36.9,42.8" gorn="0.2.0.2.5" id="_x30_.1.12.0.0.0.0.10_1_"/>
   <polygon  points="19.9,43.6,38,43.6,36.9,42.8,20.9,42.8" gorn="0.2.0.2.6" id="_x30_.1.12.0.0.0.0.11_1_"/>
   <polygon  fill="#3D3D3D" points="19.9,20.4,38,20.4,36.9,21.1,20.9,21.1" gorn="0.2.0.2.7" id="_x30_.1.12.0.0.0.0.12_1_"/>
  </g>
  <g  gorn="0.2.0.3" id="copper1">
   <g  gorn="0.2.0.3.0" id="copper0">
    <path  fill="#9A916C" d="M8.2,6.3L5.5,6.3L5.2,6.3c-1.5,0,-2.7,-1.2,-2.7,-2.7s1.2,-2.7,2.7,-2.7l0.2,0l2.8,0l1,0c1.5,0,2.7,1.2,2.7,2.7s-1.2,2.7,-2.7,2.7L8.2,6.3zM7.2,1.5c-1.1,0,-2.1,1,-2.1,2.1c0,1.1,0.9,2.1,2.1,2.1c1.1,0,2.1,-0.9,2.1,-2.1C9.3,2.5,8.4,1.5,7.2,1.5z"/>
    <path  fill="#9A916C" d="M8.2,13.5L5.5,13.5L5.2,13.5c-1.5,0,-2.7,-1.2,-2.7,-2.7s1.2,-2.7,2.7,-2.7l0.2,0l2.8,0l1,0c1.5,0,2.7,1.2,2.7,2.7s-1.2,2.7,-2.7,2.7L8.2,13.5zM7.2,8.7c-1.1,0,-2.1,1,-2.1,2.1c0,1.1,0.9,2.1,2.1,2.1c1.1,0,2.1,-0.9,2.1,-2.1C9.3,9.7,8.4,8.7,7.2,8.7z"/>
    <path  fill="#9A916C" d="M8.2,20.7L5.5,20.7L5.2,20.7c-1.5,0,-2.7,-1.2,-2.7,-2.7c0,-1.5,1.2,-2.7,2.7,-2.7l0.2,0l2.8,0l1,0c1.5,0,2.7,1.2,2.7,2.7c0,1.5,-1.2,2.7,-2.7,2.7L8.2,20.7zM7.2,15.9c-1.1,0,-2.1,1,-2.1,2.1c0,1.1,0.9,2.1,2.1,2.1c1.1,0,2.1,-0.9,2.1,-2.1C9.3,16.9,8.4,15.9,7.2,15.9z"/>
    <path  fill="#9A916C" d="M8.2,27.9L5.5,27.9L5.2,27.9c-1.5,0,-2.7,-1.2,-2.7,-2.7s1.2,-2.7,2.7,-2.7l0.2,0l2.8,0l1,0c1.5,0,2.7,1.2,2.7,2.7s-1.2,2.7,-2.7,2.7L8.2,27.9zM7.2,23.1c-1.1,0,-2.1,1,-2.1,2.1c0,1.1,0.9,2.1,2.1,2.1c1.1,0,2.1,-0.9,2.1,-2.1C9.3,24.1,8.4,23.1,7.2,23.1z"/>
    <path  fill="#9A916C" d="M8.2,35.1L5.5,35.1L5.2,35.1c-1.5,0,-2.7,-1.2,-2.7,-2.7c0,-1.5,1.2,-2.7,2.7,-2.7l0.2,0l2.8,0l1,0c1.5,0,2.7,1.2,2.7,2.7c0,1.5,-1.2,2.7,-2.7,2.7L8.2,35.1zM7.2,30.3c-1.1,0,-2.1,1,-2.1,2.1c0,1.1,0.9,2.1,2.1,2.1c1.1,0,2.1,-0.9,2.1,-2.1C9.3,31.3,8.4,30.3,7.2,30.3z"/>
    <path  fill="#9A916C" d="M8.2,42.3L5.5,42.3L5.2,42.3c-1.5,0,-2.7,-1.2,-2.7,-2.7s1.2,-2.7,2.7,-2.7l0.2,0l2.8,0l1,0c1.5,0,2.7,1.2,2.7,2.7s-1.2,2.7,-2.7,2.7L8.2,42.3zM7.2,37.5c-1.1,0,-2.1,1,-2.1,2.1c0,1.1,0.9,2.1,2.1,2.1c1.1,0,2.1,-0.9,2.1,-2.1C9.3,38.5,8.4,37.5,7.2,37.5z"/>
    <path  fill="#9A916C" d="M8.2,49.5L5.5,49.5L5.2,49.5c-1.5,0,-2.7,-1.2,-2.7,-2.7s1.2,-2.7,2.7,-2.7l0.2,0l2.8,0l1,0c1.5,0,2.7,1.2,2.7,2.7s-1.2,2.7,-2.7,2.7L8.2,49.5zM7.2,44.7c-1.1,0,-2.1,1,-2.1,2.1c0,1.1,0.9,2.1,2.1,2.1c1.1,0,2.1,-0.9,2.1,-2.1C9.3,45.7,8.4,44.7,7.2,44.7z"/>
    <path  fill="#9A916C" d="M8.2,56.7L5.5,56.7L5.2,56.7c-1.5,0,-2.7,-1.2,-2.7,-2.7s1.2,-2.7,2.7,-2.7l0.2,0l2.8,0l1,0c1.5,0,2.7,1.2,2.7,2.7s-1.2,2.7,-2.7,2.7L8.2,56.7zM7.2,51.9c-1.1,0,-2.1,1,-2.1,2.1c0,1.1,0.9,2.1,2.1,2.1c1.1,0,2.1,-0.9,2.1,-2.1C9.3,52.9,8.4,51.9,7.2,51.9z"/>
    <path  fill="#9A916C" d="M51.4,6.3l-2.7,0l-0.3,0c-1.5,0,-2.7,-1.2,-2.7,-2.7s1.2,-2.7,2.7,-2.7l0.2,0l2.8,0l1,0c1.5,0,2.7,1.2,2.7,2.7s-1.2,2.7,-2.7,2.7L51.4,6.3zM50.4,1.5c-1.1,0,-2.1,1,-2.1,2.1c0,1.1,0.9,2.1,2.1,2.1c1.1,0,2.1,-0.9,2.1,-2.1C52.5,2.5,51.6,1.5,50.4,1.5z"/>
    <path  fill="#9A916C" d="M51.4,13.5l-2.7,0l-0.3,0c-1.5,0,-2.7,-1.2,-2.7,-2.7s1.2,-2.7,2.7,-2.7l0.2,0l2.8,0l1,0c1.5,0,2.7,1.2,2.7,2.7s-1.2,2.7,-2.7,2.7L51.4,13.5zM50.4,8.7c-1.1,0,-2.1,1,-2.1,2.1c0,1.1,0.9,2.1,2.1,2.1c1.1,0,2.1,-0.9,2.1,-2.1C52.5,9.7,51.6,8.7,50.4,8.7z"/>
    <path  fill="#9A916C" d="M51.4,20.7l-2.7,0l-0.3,0c-1.5,0,-2.7,-1.2,-2.7,-2.7c0,-1.5,1.2,-2.7,2.7,-2.7l0.2,0l2.8,0l1,0c1.5,0,2.7,1.2,2.7,2.7c0,1.5,-1.2,2.7,-2.7,2.7L51.4,20.7zM50.4,15.9c-1.1,0,-2.1,1,-2.1,2.1c0,1.1,0.9,2.1,2.1,2.1c1.1,0,2.1,-0.9,2.1,-2.1C52.5,16.9,51.6,15.9,50.4,15.9z"/>
    <path  fill="#9A916C" d="M51.4,27.9l-2.7,0l-0.3,0c-1.5,0,-2.7,-1.2,-2.7,-2.7s1.2,-2.7,2.7,-2.7l0.2,0l2.8,0l1,0c1.5,0,2.7,1.2,2.7,2.7s-1.2,2.7,-2.7,2.7L51.4,27.9zM50.4,23.1c-1.1,0,-2.1,1,-2.1,2.1c0,1.1,0.9,2.1,2.1,2.1c1.1,0,2.1,-0.9,2.1,-2.1C52.5,24.1,51.6,23.1,50.4,23.1z"/>
    <path  fill="#9A916C" d="M51.4,35.1l-2.7,0l-0.3,0c-1.5,0,-2.7,-1.2,-2.7,-2.7c0,-1.5,1.2,-2.7,2.7,-2.7l0.2,0l2.8,0l1,0c1.5,0,2.7,1.2,2.7,2.7c0,1.5,-1.2,2.7,-2.7,2.7L51.4,35.1zM50.4,30.3c-1.1,0,-2.1,1,-2.1,2.1c0,1.1,0.9,2.1,2.1,2.1c1.1,0,2.1,-0.9,2.1,-2.1C52.5,31.3,51.6,30.3,50.4,30.3z"/>
    <path  fill="#9A916C" d="M51.4,42.3l-2.7,0l-0.3,0c-1.5,0,-2.7,-1.2,-2.7,-2.7s1.2,-2.7,2.7,-2.7l0.2,0l2.8,0l1,0c1.5,0,2.7,1.2,2.7,2.7s-1.2,2.7,-2.7,2.7L51.4,42.3zM50.4,37.5c-1.1,0,-2.1,1,-2.1,2.1c0,1.1,0.9,2.1,2.1,2.1c1.1,0,2.1,-0.9,2.1,-2.1C52.5,38.5,51.6,37.5,50.4,37.5z"/>
    <path  fill="#9A916C" d="M51.4,49.5l-2.7,0l-0.3,0c-1.5,0,-2.7,-1.2,-2.7,-2.7s1.2,-2.7,2.7,-2.7l0.2,0l2.8,0l1,0c1.5,0,2.7,1.2,2.7,2.7s-1.2,2.7,-2.7,2.7L51.4,49.5zM50.4,44.7c-1.1,0,-2.1,1,-2.1,2.1c0,1.1,0.9,2.1,2.1,2.1c1.1,0,2.1,-0.9,2.1,-2.1C52.5,45.7,51.6,44.7,50.4,44.7z"/>
    <path  fill="#9A916C" d="M51.4,56.7l-2.7,0l-0.3,0c-1.5,0,-2.7,-1.2,-2.7,-2.7s1.2,-2.7,2.7,-2.7l0.2,0l2.8,0l1,0c1.5,0,2.7,1.2,2.7,2.7s-1.2,2.7,-2.7,2.7L51.4,56.7zM50.4,51.9c-1.1,0,-2.1,1,-2.1,2.1c0,1.1,0.9,2.1,2.1,2.1c1.1,0,2.1,-0.9,2.1,-2.1C52.5,52.9,51.6,51.9,50.4,51.9z"/>
    <circle  fill="none" cx="50.4" gorn="0.2.0.3.0.16" cy="54" stroke="#9A916C" id="connector7pin" r="2.1" stroke-width="1.224"/>
    <circle  fill="none" cx="7.2" gorn="0.2.0.3.0.17" cy="54" stroke="#9A916C" r="2.1" id="connector15pin" stroke-width="1.224"/>
    <circle  fill="none" cx="7.2" gorn="0.2.0.3.0.18" cy="46.8" stroke="#9A916C" r="2.1" id="connector14pin" stroke-width="1.224"/>
    <circle  fill="none" cx="7.2" gorn="0.2.0.3.0.19" cy="39.6" stroke="#9A916C" r="2.1" id="connector13pin" stroke-width="1.224"/>
    <circle  fill="none" cx="7.2" gorn="0.2.0.3.0.20" cy="32.4" stroke="#9A916C" r="2.1" id="connector12pin" stroke-width="1.224"/>
    <circle  fill="none" cx="7.2" gorn="0.2.0.3.0.21" cy="25.2" stroke="#9A916C" r="2.1" id="connector11pin" stroke-width="1.224"/>
    <circle  fill="none" cx="7.2" gorn="0.2.0.3.0.22" cy="18" stroke="#9A916C" r="2.1" id="connector10pin" stroke-width="1.224"/>
    <circle  fill="none" cx="7.2" gorn="0.2.0.3.0.23" cy="10.8" stroke="#9A916C" r="2.1" id="connector9pin" stroke-width="1.224"/>
    <circle  fill="none" cx="7.2" gorn="0.2.0.3.0.24" cy="3.6" stroke="#9A916C" r="2.1" id="connector8pin" stroke-width="1.224"/>
    <circle  fill="none" cx="50.4" gorn="0.2.0.3.0.25" cy="3.6" stroke="#9A916C" id="connector0pin" r="2.1" stroke-width="1.224"/>
    <circle  fill="none" cx="50.4" gorn="0.2.0.3.0.26" cy="10.8" stroke="#9A916C" id="connector1pin" r="2.1" stroke-width="1.224"/>
    <circle  fill="none" cx="50.4" gorn="0.2.0.3.0.27" cy="18" stroke="#9A916C" id="connector2pin" r="2.1" stroke-width="1.224"/>
    <circle  fill="none" cx="50.4" gorn="0.2.0.3.0.28" cy="25.2" stroke="#9A916C" id="connector3pin" r="2.1" stroke-width="1.224"/>
    <circle  fill="none" cx="50.4" gorn="0.2.0.3.0.29" cy="32.4" stroke="#9A916C" id="connector4pin" r="2.1" stroke-width="1.224"/>
    <circle  fill="none" cx="50.4" gorn="0.2.0.3.0.30" cy="39.6" stroke="#9A916C" id="connector5pin" r="2.1" stroke-width="1.224"/>
    <circle  fill="none" cx="50.4" gorn="0.2.0.3.0.31" cy="46.8" stroke="#9A916C" id="connector6pin" r="2.1" stroke-width="1.224"/>
   </g>
  </g>
 </g>
</g>
</g></svg>