<?xml version="1.0" encoding="utf-8"?>
<!-- Generator: Adobe Illustrator 16.0.3, SVG Export Plug-In . SVG Version: 6.00 Build 0)  -->
<!DOCTYPE svg PUBLIC "-//W3C//DTD SVG 1.1//EN" "http://www.w3.org/Graphics/SVG/1.1/DTD/svg11.dtd">
<svg version="1.1" id="Layer_1" xmlns="http://www.w3.org/2000/svg" xmlns:xlink="http://www.w3.org/1999/xlink" x="0px" y="0px"
	 width="63px" height="48px" viewBox="0 0 63 48" enable-background="new 0 0 63 48" xml:space="preserve">
<rect x="13" y="5.5" fill="#0E1619" width="26.75" height="34.875"/>
<path fill="#81CDED" d="M41.806,0H2.275C1.018,0,0,1.018,0,2.275v43.224c0,1.256,1.018,2.272,2.275,2.272h39.53l20.472-23.884
	L41.806,0z M25.568,37.569c-9.665,0-12.913-0.438-12.913-0.438s0.505-7.709,4.031-9.094c3.525-1.386,4.391-1.192,5.613-1.929
	c0.031-0.017,0.061-0.035,0.091-0.052v-2.073c-1.174-1.031-2.109-2.583-2.656-4.355c-0.637-0.683-1.005-1.488-1.005-2.349
	c0-0.59,0.176-1.153,0.491-1.669c0.207-4.348,2.972-7.222,6.355-7.222s6.148,2.875,6.355,7.222c0.314,0.517,0.49,1.08,0.49,1.669
	c0,0.862-0.368,1.667-1.006,2.349c-0.546,1.773-1.482,3.324-2.655,4.354v2.075c0.028,0.017,0.062,0.035,0.09,0.052
	c1.224,0.736,2.088,0.543,5.616,1.929c3.525,1.385,4.028,9.094,4.028,9.094S35.231,37.569,25.568,37.569z"/>
</svg>
