M48
;GenerationSoftware,Autodesk,EAGLE,9.0.0*%
;CreationDate,2019-03-06T05:58:57Z*%
FMAT,2
ICI,OFF
METRIC,TZ,000.000
T9C0.254
T8C0.300
T7C0.400
T6C1.000
T5C1.016
T4C1.330
T3C1.500
T2C1.600
T1C2.380
%
G90
M71
T1
X89860Y56574
X89860Y69714
T2
X38810Y60850
X43510Y60850
X48210Y60850
T3
X50115Y70380
X36905Y70380
T4
X91338Y53757
X96288Y54357
X96288Y38657
X91338Y39257
T5
X15319Y17045
X21300Y17031
X21300Y19571
X23840Y17031
X26380Y17031
X26380Y19571
X28920Y17031
X28920Y19571
X31460Y17031
X23840Y19571
X34000Y17031
X34000Y19571
X36540Y17031
X36540Y19571
X31460Y19571
X39080Y17031
X39080Y19571
X41620Y17031
X41620Y19571
X44160Y17031
X44160Y19571
X46700Y17031
X46700Y19571
X49240Y17031
X49240Y19571
X51780Y17031
X51780Y19571
X54320Y17031
X54320Y19571
X56860Y19571
X59400Y17031
X59400Y19571
X61940Y17031
X61940Y19571
X64480Y17031
X64480Y19571
X67020Y17031
X67020Y19571
X69560Y17031
X72100Y17031
X72100Y19571
X74640Y17031
X74640Y19571
X15319Y27205
X56860Y17031
X15319Y29745
X69560Y19571
X15319Y24665
X15319Y22125
X15319Y19585
T6
X87150Y59644
X18820Y67430
X21820Y62630
X24920Y67430
X87150Y66644
X87150Y64144
X87150Y62144
T7
X93281Y16337
X33400Y30300
X50900Y55900
X53300Y55900
X25171Y37592
X29051Y58100
X83007Y58979
X87700Y53300
X93700Y35282
X84300Y43195
X77140Y59538
X13900Y48087
X44800Y51000
X52900Y69300
X52900Y70300
X52900Y68200
X69925Y62500
X45700Y51000
X93103Y21700
X93103Y20200
X86967Y46152
X83007Y56794
X91783Y21700
X79400Y37300
X79400Y30200
X47400Y55900
X39000Y47500
T8
X67900Y54400
X49027Y34800
X78200Y46200
X49800Y34800
X51900Y38200
X43655Y34648
X44532Y34622
X50600Y34800
X34631Y28781
X47500Y34800
X52600Y44200
X50800Y43500
X51800Y54400
X44051Y35918
X48300Y34800
X53311Y37543
X51900Y34800
X50400Y36800
X52680Y30912
X39929Y34392
T9
X64364Y56236
X80645Y16205
X55300Y41400
X55300Y46360
X88500Y34000
X88900Y32000
X63400Y39600
X74400Y48700
X50800Y47036
X83900Y53000
X51600Y47100
X83300Y51500
X87452Y23546
X83200Y49400
X52700Y47000
X74574Y22225
X89967Y25679
X83700Y48200
X54432Y46660
X62865Y48565
X64846Y55651
X60858Y42342
X61874Y42342
X55651Y44653
X64059Y49174
X67234Y56058
X70485Y59309
X45406Y34648
X47092Y36728
X47819Y36919
X48590Y36830
X49708Y27991
X50825Y26848
X51816Y25781
X53035Y24587
X54356Y24054
X54788Y26162
X51200Y38800
X64400Y48400
X40100Y33300
X51500Y36800
X51600Y31194
X56261Y24079
X53197Y34978
X56185Y26746
X59334Y24130
X53900Y36800
X57125Y29007
X71806Y32842
X83922Y16180
X81153Y23520
X69875Y33553
X81737Y16180
X78435Y16205
X76937Y23470
X45900Y40300
X41025Y40308
X55905Y37313
X57658Y25451
X67000Y39600
X74900Y46200
X47765Y28765
X48514Y28118
X65200Y47700
X68504Y35204
X53200Y30200
X73939Y28600
X84988Y16180
X83287Y23546
X75387Y29108
X86131Y16180
X85319Y23546
X69748Y30480
X79553Y16205
X79070Y23520
X62611Y31090
X75667Y30785
X52100Y47800
X50800Y47763
X83900Y52273
X82786Y50986
X51947Y50953
X53103Y50409
X82403Y49503
X54100Y49800
X83700Y47473
X53500Y47600
X53953Y43553
X54458Y47600
X62343Y49086
M30