G04 EAGLE Gerber X2 export*
%TF.Part,Single*%
%TF.FileFunction,Other,Solder stop mask Bottom*%
%TF.FilePolarity,Positive*%
%TF.GenerationSoftware,Autodesk,EAGLE,9.0.0*%
%TF.CreationDate,2019-03-06T05:58:58Z*%
G75*
%MOMM*%
%FSLAX34Y34*%
%LPD*%
%AMOC8*
5,1,8,0,0,1.08239X$1,22.5*%
G01*
%ADD10C,0.000000*%
%ADD11C,2.127000*%
%ADD12C,2.527000*%
%ADD13C,2.377000*%
%ADD14C,2.006600*%
%ADD15P,1.787026X8X22.500000*%
%ADD16C,2.157000*%
%ADD17C,1.627000*%
%ADD18C,3.707000*%


D10*
X110000Y140000D02*
X1000000Y140000D01*
X1000000Y720000D01*
X110000Y720000D01*
X110000Y140000D01*
D11*
X249200Y664300D02*
X249200Y684300D01*
X188200Y684300D02*
X188200Y664300D01*
X208200Y626300D02*
X228200Y626300D01*
D12*
X388100Y608500D03*
X435100Y608500D03*
X482100Y608500D03*
D13*
X369050Y703800D03*
X501150Y703800D03*
D14*
X153194Y297446D03*
X153194Y272046D03*
X153194Y246646D03*
X153194Y221246D03*
X153194Y195846D03*
X153194Y170446D03*
D15*
X213000Y170308D03*
X213000Y195708D03*
X238400Y170308D03*
X238400Y195708D03*
X263800Y170308D03*
X263800Y195708D03*
X289200Y170308D03*
X289200Y195708D03*
X314600Y170308D03*
X314600Y195708D03*
X340000Y170308D03*
X340000Y195708D03*
X365400Y170308D03*
X365400Y195708D03*
X390800Y170308D03*
X390800Y195708D03*
X416200Y170308D03*
X416200Y195708D03*
X441600Y170308D03*
X441600Y195708D03*
X467000Y170308D03*
X467000Y195708D03*
X492400Y170308D03*
X492400Y195708D03*
X517800Y170308D03*
X517800Y195708D03*
X543200Y170308D03*
X543200Y195708D03*
X568600Y170308D03*
X568600Y195708D03*
X594000Y170308D03*
X594000Y195708D03*
X619400Y170308D03*
X619400Y195708D03*
X644800Y170308D03*
X644800Y195708D03*
X670200Y170308D03*
X670200Y195708D03*
X695600Y170308D03*
X695600Y195708D03*
X721000Y170308D03*
X721000Y195708D03*
X746400Y170308D03*
X746400Y195708D03*
D16*
X913384Y392574D03*
X962884Y386574D03*
X962884Y543574D03*
X913384Y537574D03*
D17*
X871500Y596444D03*
X871500Y621444D03*
X871500Y641444D03*
X871500Y666444D03*
D18*
X898600Y565744D03*
X898600Y697144D03*
M02*
