<!--?xml version="1.0"?-->
<!-- Created with Inkscape (http://www.inkscape.org/) --><svg xmlns:dc="http://purl.org/dc/elements/1.1/" xmlns:cc="http://creativecommons.org/ns#" xmlns:rdf="http://www.w3.org/1999/02/22-rdf-syntax-ns#" xmlns:svg="http://www.w3.org/2000/svg" xmlns="http://www.w3.org/2000/svg" xmlns:xlink="http://www.w3.org/1999/xlink" xmlns:sodipodi="http://sodipodi.sourceforge.net/DTD/sodipodi-0.dtd" xmlns:inkscape="http://www.inkscape.org/namespaces/inkscape" width="14.798532485961914mm" version="1.1" height="15.911334991455078mm" id="svg13574" inkscape:version="0.48.5 r10040" sodipodi:docname="base-round-button.pre2D.svg" viewBox="-7.395038604736328 -7.389636516571045 14.798532485961914 15.911334991455078">
  <g class="gtron-package-silkscreen">
    <g></g>
    <g></g>
    <g>
      <path style="stroke:white; stroke-width:0.05mm;stroke-linecap:round;fill:none" d="M-5.715 3.09325611883L-5.73248821826 3.06407878937 L-6.00521696132 2.48744231037 L-6.22011218226 1.88685040215 L-6.37510432262 1.2680870931 L-6.46870072337 0.637111412142 L-6.5 6.5691801475e-15 L-6.46870072337 -0.637111412142 L-6.37510432262 -1.2680870931 L-6.22011218226 -1.88685040215 L-6.00521696132 -2.48744231037 L-5.73248821826 -3.06407878937 L-5.715 -3.09325611883"></path>
      <path style="stroke:white; stroke-width:0.05mm;stroke-linecap:round;fill:none" d="M-5.715 -3.09325611883L-5.40455247997 -3.61120651463 L-5.02456794686 -4.12355634706 L-4.59619407771 -4.59619407771 L-4.12355634706 -5.02456794686 L-3.61120651463 -5.40455247997 L-3.09325611883 -5.715"></path>
      <path style="stroke:white; stroke-width:0.05mm;stroke-linecap:round;fill:none" d="M-3.09325611883 -5.715L-3.06407878937 -5.73248821826 L-2.48744231037 -6.00521696132 L-1.88685040215 -6.22011218226 L-1.2680870931 -6.37510432262 L-0.637111412142 -6.46870072337 L-1.85135098133e-14 -6.5 L0.637111412142 -6.46870072337 L1.2680870931 -6.37510432262 L1.88685040215 -6.22011218226 L2.48744231037 -6.00521696132 L3.06407878937 -5.73248821826 L3.09325611883 -5.715"></path>
      <path style="stroke:white; stroke-width:0.05mm;stroke-linecap:round;fill:none" d="M3.09325611883 -5.715L3.61120651463 -5.40455247997 L4.12355634706 -5.02456794686 L4.59619407771 -4.59619407771 L5.02456794686 -4.12355634706 L5.40455247997 -3.61120651463 L5.715 -3.09325611883"></path>
      <path style="stroke:white; stroke-width:0.05mm;stroke-linecap:round;fill:none" d="M5.715 -3.09325611883L5.73248821826 -3.06407878937 L6.00521696132 -2.48744231037 L6.22011218226 -1.88685040215 L6.37510432262 -1.2680870931 L6.46870072337 -0.637111412142 L6.5 -5.35504783913e-14 L6.5 0.0"></path>
      <path style="stroke:white; stroke-width:0.05mm;stroke-linecap:round;fill:none" d="M-5.715 3.09325611883L-5.715 -3.09325611883"></path>
      <path style="stroke:white; stroke-width:0.05mm;stroke-linecap:round;fill:none" d="M-5.715 -3.09325611883L-5.715 -5.715"></path>
      <path style="stroke:white; stroke-width:0.05mm;stroke-linecap:round;fill:none" d="M5.715 5.715L3.09325611883 5.715"></path>
      <path style="stroke:white; stroke-width:0.05mm;stroke-linecap:round;fill:none" d="M3.09325611883 5.715L-3.09325611883 5.715"></path>
      <path style="stroke:white; stroke-width:0.05mm;stroke-linecap:round;fill:none" d="M-3.09325611883 5.715L-5.715 5.715"></path>
      <path style="stroke:white; stroke-width:0.05mm;stroke-linecap:round;fill:none" d="M6.5 0.0L6.46870072337 0.637111412142 L6.37510432262 1.2680870931 L6.22011218226 1.88685040215 L6.00521696132 2.48744231037 L5.73248821826 3.06407878937 L5.715 3.09325611883"></path>
      <path style="stroke:white; stroke-width:0.05mm;stroke-linecap:round;fill:none" d="M5.715 3.09325611883L5.40455247997 3.61120651463 L5.02456794686 4.12355634706 L4.59619407771 4.59619407771 L4.12355634706 5.02456794686 L3.61120651463 5.40455247997 L3.09325611883 5.715"></path>
      <path style="stroke:white; stroke-width:0.05mm;stroke-linecap:round;fill:none" d="M3.09325611883 5.715L3.06407878937 5.73248821826 L2.48744231037 6.00521696132 L1.88685040215 6.22011218226 L1.2680870931 6.37510432262 L0.637111412142 6.46870072337 L1.05010397338e-14 6.5 L-0.637111412142 6.46870072337 L-1.2680870931 6.37510432262 L-1.88685040215 6.22011218226 L-2.48744231037 6.00521696132 L-3.06407878937 5.73248821826 L-3.09325611883 5.715"></path>
      <path style="stroke:white; stroke-width:0.05mm;stroke-linecap:round;fill:none" d="M-3.09325611883 5.715L-3.61120651463 5.40455247997 L-4.12355634706 5.02456794686 L-4.59619407771 4.59619407771 L-5.02456794686 4.12355634706 L-5.40455247997 3.61120651463 L-5.715 3.09325611883"></path>
      <path style="stroke:white; stroke-width:0.05mm;stroke-linecap:round;fill:none" d="M-5.715 5.715L-5.715 3.09325611883"></path>
      <path style="stroke:white; stroke-width:0.05mm;stroke-linecap:round;fill:none" d="M5.715 -5.715L5.715 -3.09325611883"></path>
      <path style="stroke:white; stroke-width:0.05mm;stroke-linecap:round;fill:none" d="M5.715 -3.09325611883L5.715 3.09325611883"></path>
      <path style="stroke:white; stroke-width:0.05mm;stroke-linecap:round;fill:none" d="M5.715 3.09325611883L5.715 5.715"></path>
      <path style="stroke:white; stroke-width:0.05mm;stroke-linecap:round;fill:none" d="M-5.715 -5.715L-3.09325611883 -5.715"></path>
      <path style="stroke:white; stroke-width:0.05mm;stroke-linecap:round;fill:none" d="M-3.09325611883 -5.715L3.09325611883 -5.715"></path>
      <path style="stroke:white; stroke-width:0.05mm;stroke-linecap:round;fill:none" d="M3.09325611883 -5.715L5.715 -5.715"></path>
      <path style="stroke:white; stroke-width:0.05mm;stroke-linecap:round;fill:none" d="M-1.91640365337 7.9370536712L-2.25679 7.9370536712"></path>
      <path style="stroke:white; stroke-width:0.05mm;stroke-linecap:round;fill:none" d="M-6.9342 7.3524096792L-6.25316806351 7.9370536712 L-6.9342 8.5216976632"></path>
      <path style="stroke:white; stroke-width:0.05mm;stroke-linecap:round;fill:none" d="M-5.7648475 8.5216976632L-5.7648475 7.3524096792 L-5.08381556351 8.5216976632 L-5.08381556351 7.3524096792"></path>
      <path style="stroke:white; stroke-width:0.05mm;stroke-linecap:round;fill:none" d="M-3.91446306351 7.9370536712L-4.595495 7.9370536712"></path>
      <path style="stroke:white; stroke-width:0.05mm;stroke-linecap:round;fill:none" d="M-4.595495 8.5216976632L-4.595495 7.9370536712"></path>
      <path style="stroke:white; stroke-width:0.05mm;stroke-linecap:round;fill:none" d="M-4.595495 7.9370536712L-4.595495 7.742073416 L-4.25510865337 7.3524096792 L-3.91446306351 7.742073416 L-3.91446306351 7.9370536712"></path>
      <path style="stroke:white; stroke-width:0.05mm;stroke-linecap:round;fill:none" d="M-3.91446306351 7.9370536712L-3.91446306351 8.5216976632"></path>
      <path style="stroke:white; stroke-width:0.05mm;stroke-linecap:round;fill:none" d="M-3.4261425 8.5216976632L-3.4261425 7.3524096792 L-3.08575615337 7.742073416 L-2.74511056351 7.3524096792 L-2.74511056351 8.5216976632"></path>
      <path style="stroke:white; stroke-width:0.05mm;stroke-linecap:round;fill:none" d="M-1.57575806351 7.3524096792L-2.25679 7.3524096792 L-2.25679 7.9370536712"></path>
      <path style="stroke:white; stroke-width:0.05mm;stroke-linecap:round;fill:none" d="M-2.25679 7.9370536712L-2.25679 8.5216976632 L-1.57575806351 8.5216976632"></path>
    </g>
    <g>
      <path style="fill:#ffb600" d="M-5.0 2.5 L-5.00481527333 2.59801714033 L-5.0192147196 2.69509032202 L-5.04305966427 2.79028467725 L-5.07612046749 2.88268343237 L-5.11807873565 2.97139673683 L-5.1685303877 3.05557023302 L-5.22698954664 3.13439328416 L-5.29289321881 3.20710678119 L-5.36560671584 3.27301045336 L-5.44442976698 3.3314696123 L-5.52860326317 3.38192126435 L-5.61731656763 3.42387953251 L-5.70971532275 3.45694033573 L-5.80490967798 3.4807852804 L-5.90198285967 3.49518472667 L-6.0 3.5 L-6.09801714033 3.49518472667 L-6.19509032202 3.4807852804 L-6.29028467725 3.45694033573 L-6.38268343237 3.42387953251 L-6.47139673683 3.38192126435 L-6.55557023302 3.3314696123 L-6.63439328416 3.27301045336 L-6.70710678119 3.20710678119 L-6.77301045336 3.13439328416 L-6.8314696123 3.05557023302 L-6.88192126435 2.97139673683 L-6.92387953251 2.88268343237 L-6.95694033573 2.79028467725 L-6.9807852804 2.69509032202 L-6.99518472667 2.59801714033 L-7.0 2.5 L-6.99518472667 2.40198285967 L-6.9807852804 2.30490967798 L-6.95694033573 2.20971532275 L-6.92387953251 2.11731656763 L-6.88192126435 2.02860326317 L-6.8314696123 1.94442976698 L-6.77301045336 1.86560671584 L-6.70710678119 1.79289321881 L-6.63439328416 1.72698954664 L-6.55557023302 1.6685303877 L-6.47139673683 1.61807873565 L-6.38268343237 1.57612046749 L-6.29028467725 1.54305966427 L-6.19509032202 1.5192147196 L-6.09801714033 1.50481527333 L-6.0 1.5 L-5.90198285967 1.50481527333 L-5.80490967798 1.5192147196 L-5.70971532275 1.54305966427 L-5.61731656763 1.57612046749 L-5.52860326317 1.61807873565 L-5.44442976698 1.6685303877 L-5.36560671584 1.72698954664 L-5.29289321881 1.79289321881 L-5.22698954664 1.86560671584 L-5.1685303877 1.94442976698 L-5.11807873565 2.02860326317 L-5.07612046749 2.11731656763 L-5.04305966427 2.20971532275 L-5.0192147196 2.30490967798 L-5.00481527333 2.40198285967 L-5.0 2.5 L-5.0 2.5 ZM-5.25 2.5 L-5.25 2.5 L-5.253611455 2.42648714475 L-5.2644110397 2.35368225849 L-5.2822947482 2.28228649206 L-5.30709035062 2.21298742573 L-5.33855905174 2.14645244738 L-5.37639779077 2.08332232524 L-5.42024215998 2.02420503688 L-5.46966991411 1.96966991411 L-5.52420503688 1.92024215998 L-5.58332232524 1.87639779077 L-5.64645244738 1.83855905174 L-5.71298742573 1.80709035062 L-5.78228649206 1.7822947482 L-5.85368225849 1.7644110397 L-5.92648714475 1.753611455 L-6.0 1.75 L-6.07351285525 1.753611455 L-6.14631774151 1.7644110397 L-6.21771350794 1.7822947482 L-6.28701257427 1.80709035062 L-6.35354755262 1.83855905174 L-6.41667767476 1.87639779077 L-6.47579496312 1.92024215998 L-6.53033008589 1.96966991411 L-6.57975784002 2.02420503688 L-6.62360220923 2.08332232524 L-6.66144094826 2.14645244738 L-6.69290964938 2.21298742573 L-6.7177052518 2.28228649206 L-6.7355889603 2.35368225849 L-6.746388545 2.42648714475 L-6.75 2.5 L-6.746388545 2.57351285525 L-6.7355889603 2.64631774151 L-6.7177052518 2.71771350794 L-6.69290964938 2.78701257427 L-6.66144094826 2.85354755262 L-6.62360220923 2.91667767476 L-6.57975784002 2.97579496312 L-6.53033008589 3.03033008589 L-6.47579496312 3.07975784002 L-6.41667767476 3.12360220923 L-6.35354755262 3.16144094826 L-6.28701257427 3.19290964938 L-6.21771350794 3.2177052518 L-6.14631774151 3.2355889603 L-6.07351285525 3.246388545 L-6.0 3.25 L-5.92648714475 3.246388545 L-5.85368225849 3.2355889603 L-5.78228649206 3.2177052518 L-5.71298742573 3.19290964938 L-5.64645244738 3.16144094826 L-5.58332232524 3.12360220923 L-5.52420503688 3.07975784002 L-5.46966991411 3.03033008589 L-5.42024215998 2.97579496312 L-5.37639779077 2.91667767476 L-5.33855905174 2.85354755262 L-5.30709035062 2.78701257427 L-5.2822947482 2.71771350794 L-5.2644110397 2.64631774151 L-5.253611455 2.57351285525 L-5.25 2.5 Z"></path>
      <path style="fill:#ffb600" d="M7.0 2.5 L6.99518472667 2.59801714033 L6.9807852804 2.69509032202 L6.95694033573 2.79028467725 L6.92387953251 2.88268343237 L6.88192126435 2.97139673683 L6.8314696123 3.05557023302 L6.77301045336 3.13439328416 L6.70710678119 3.20710678119 L6.63439328416 3.27301045336 L6.55557023302 3.3314696123 L6.47139673683 3.38192126435 L6.38268343237 3.42387953251 L6.29028467725 3.45694033573 L6.19509032202 3.4807852804 L6.09801714033 3.49518472667 L6.0 3.5 L5.90198285967 3.49518472667 L5.80490967798 3.4807852804 L5.70971532275 3.45694033573 L5.61731656763 3.42387953251 L5.52860326317 3.38192126435 L5.44442976698 3.3314696123 L5.36560671584 3.27301045336 L5.29289321881 3.20710678119 L5.22698954664 3.13439328416 L5.1685303877 3.05557023302 L5.11807873565 2.97139673683 L5.07612046749 2.88268343237 L5.04305966427 2.79028467725 L5.0192147196 2.69509032202 L5.00481527333 2.59801714033 L5.0 2.5 L5.00481527333 2.40198285967 L5.0192147196 2.30490967798 L5.04305966427 2.20971532275 L5.07612046749 2.11731656763 L5.11807873565 2.02860326317 L5.1685303877 1.94442976698 L5.22698954664 1.86560671584 L5.29289321881 1.79289321881 L5.36560671584 1.72698954664 L5.44442976698 1.6685303877 L5.52860326317 1.61807873565 L5.61731656763 1.57612046749 L5.70971532275 1.54305966427 L5.80490967798 1.5192147196 L5.90198285967 1.50481527333 L6.0 1.5 L6.09801714033 1.50481527333 L6.19509032202 1.5192147196 L6.29028467725 1.54305966427 L6.38268343237 1.57612046749 L6.47139673683 1.61807873565 L6.55557023302 1.6685303877 L6.63439328416 1.72698954664 L6.70710678119 1.79289321881 L6.77301045336 1.86560671584 L6.8314696123 1.94442976698 L6.88192126435 2.02860326317 L6.92387953251 2.11731656763 L6.95694033573 2.20971532275 L6.9807852804 2.30490967798 L6.99518472667 2.40198285967 L7.0 2.5 L7.0 2.5 ZM6.75 2.5 L6.75 2.5 L6.746388545 2.42648714475 L6.7355889603 2.35368225849 L6.7177052518 2.28228649206 L6.69290964938 2.21298742573 L6.66144094826 2.14645244738 L6.62360220923 2.08332232524 L6.57975784002 2.02420503688 L6.53033008589 1.96966991411 L6.47579496312 1.92024215998 L6.41667767476 1.87639779077 L6.35354755262 1.83855905174 L6.28701257427 1.80709035062 L6.21771350794 1.7822947482 L6.14631774151 1.7644110397 L6.07351285525 1.753611455 L6.0 1.75 L5.92648714475 1.753611455 L5.85368225849 1.7644110397 L5.78228649206 1.7822947482 L5.71298742573 1.80709035062 L5.64645244738 1.83855905174 L5.58332232524 1.87639779077 L5.52420503688 1.92024215998 L5.46966991411 1.96966991411 L5.42024215998 2.02420503688 L5.37639779077 2.08332232524 L5.33855905174 2.14645244738 L5.30709035062 2.21298742573 L5.2822947482 2.28228649206 L5.2644110397 2.35368225849 L5.253611455 2.42648714475 L5.25 2.5 L5.253611455 2.57351285525 L5.2644110397 2.64631774151 L5.2822947482 2.71771350794 L5.30709035062 2.78701257427 L5.33855905174 2.85354755262 L5.37639779077 2.91667767476 L5.42024215998 2.97579496312 L5.46966991411 3.03033008589 L5.52420503688 3.07975784002 L5.58332232524 3.12360220923 L5.64645244738 3.16144094826 L5.71298742573 3.19290964938 L5.78228649206 3.2177052518 L5.85368225849 3.2355889603 L5.92648714475 3.246388545 L6.0 3.25 L6.07351285525 3.246388545 L6.14631774151 3.2355889603 L6.21771350794 3.2177052518 L6.28701257427 3.19290964938 L6.35354755262 3.16144094826 L6.41667767476 3.12360220923 L6.47579496312 3.07975784002 L6.53033008589 3.03033008589 L6.57975784002 2.97579496312 L6.62360220923 2.91667767476 L6.66144094826 2.85354755262 L6.69290964938 2.78701257427 L6.7177052518 2.71771350794 L6.7355889603 2.64631774151 L6.746388545 2.57351285525 L6.75 2.5 Z"></path>
      <path style="fill:#ffb600" d="M7.0 -2.5 L6.99518472667 -2.40198285967 L6.9807852804 -2.30490967798 L6.95694033573 -2.20971532275 L6.92387953251 -2.11731656763 L6.88192126435 -2.02860326317 L6.8314696123 -1.94442976698 L6.77301045336 -1.86560671584 L6.70710678119 -1.79289321881 L6.63439328416 -1.72698954664 L6.55557023302 -1.6685303877 L6.47139673683 -1.61807873565 L6.38268343237 -1.57612046749 L6.29028467725 -1.54305966427 L6.19509032202 -1.5192147196 L6.09801714033 -1.50481527333 L6.0 -1.5 L5.90198285967 -1.50481527333 L5.80490967798 -1.5192147196 L5.70971532275 -1.54305966427 L5.61731656763 -1.57612046749 L5.52860326317 -1.61807873565 L5.44442976698 -1.6685303877 L5.36560671584 -1.72698954664 L5.29289321881 -1.79289321881 L5.22698954664 -1.86560671584 L5.1685303877 -1.94442976698 L5.11807873565 -2.02860326317 L5.07612046749 -2.11731656763 L5.04305966427 -2.20971532275 L5.0192147196 -2.30490967798 L5.00481527333 -2.40198285967 L5.0 -2.5 L5.00481527333 -2.59801714033 L5.0192147196 -2.69509032202 L5.04305966427 -2.79028467725 L5.07612046749 -2.88268343237 L5.11807873565 -2.97139673683 L5.1685303877 -3.05557023302 L5.22698954664 -3.13439328416 L5.29289321881 -3.20710678119 L5.36560671584 -3.27301045336 L5.44442976698 -3.3314696123 L5.52860326317 -3.38192126435 L5.61731656763 -3.42387953251 L5.70971532275 -3.45694033573 L5.80490967798 -3.4807852804 L5.90198285967 -3.49518472667 L6.0 -3.5 L6.09801714033 -3.49518472667 L6.19509032202 -3.4807852804 L6.29028467725 -3.45694033573 L6.38268343237 -3.42387953251 L6.47139673683 -3.38192126435 L6.55557023302 -3.3314696123 L6.63439328416 -3.27301045336 L6.70710678119 -3.20710678119 L6.77301045336 -3.13439328416 L6.8314696123 -3.05557023302 L6.88192126435 -2.97139673683 L6.92387953251 -2.88268343237 L6.95694033573 -2.79028467725 L6.9807852804 -2.69509032202 L6.99518472667 -2.59801714033 L7.0 -2.5 L7.0 -2.5 ZM6.75 -2.5 L6.75 -2.5 L6.746388545 -2.57351285525 L6.7355889603 -2.64631774151 L6.7177052518 -2.71771350794 L6.69290964938 -2.78701257427 L6.66144094826 -2.85354755262 L6.62360220923 -2.91667767476 L6.57975784002 -2.97579496312 L6.53033008589 -3.03033008589 L6.47579496312 -3.07975784002 L6.41667767476 -3.12360220923 L6.35354755262 -3.16144094826 L6.28701257427 -3.19290964938 L6.21771350794 -3.2177052518 L6.14631774151 -3.2355889603 L6.07351285525 -3.246388545 L6.0 -3.25 L5.92648714475 -3.246388545 L5.85368225849 -3.2355889603 L5.78228649206 -3.2177052518 L5.71298742573 -3.19290964938 L5.64645244738 -3.16144094826 L5.58332232524 -3.12360220923 L5.52420503688 -3.07975784002 L5.46966991411 -3.03033008589 L5.42024215998 -2.97579496312 L5.37639779077 -2.91667767476 L5.33855905174 -2.85354755262 L5.30709035062 -2.78701257427 L5.2822947482 -2.71771350794 L5.2644110397 -2.64631774151 L5.253611455 -2.57351285525 L5.25 -2.5 L5.253611455 -2.42648714475 L5.2644110397 -2.35368225849 L5.2822947482 -2.28228649206 L5.30709035062 -2.21298742573 L5.33855905174 -2.14645244738 L5.37639779077 -2.08332232524 L5.42024215998 -2.02420503688 L5.46966991411 -1.96966991411 L5.52420503688 -1.92024215998 L5.58332232524 -1.87639779077 L5.64645244738 -1.83855905174 L5.71298742573 -1.80709035062 L5.78228649206 -1.7822947482 L5.85368225849 -1.7644110397 L5.92648714475 -1.753611455 L6.0 -1.75 L6.07351285525 -1.753611455 L6.14631774151 -1.7644110397 L6.21771350794 -1.7822947482 L6.28701257427 -1.80709035062 L6.35354755262 -1.83855905174 L6.41667767476 -1.87639779077 L6.47579496312 -1.92024215998 L6.53033008589 -1.96966991411 L6.57975784002 -2.02420503688 L6.62360220923 -2.08332232524 L6.66144094826 -2.14645244738 L6.69290964938 -2.21298742573 L6.7177052518 -2.28228649206 L6.7355889603 -2.35368225849 L6.746388545 -2.42648714475 L6.75 -2.5 Z"></path>
      <path style="fill:#ffb600" d="M-5.0 -1.5 L-7.0 -1.5 L-7.0 -3.5 L-5.0 -3.5 L-5.0 -1.5 ZM-5.25 -2.5 L-5.25 -2.5 L-5.253611455 -2.57351285525 L-5.2644110397 -2.64631774151 L-5.2822947482 -2.71771350794 L-5.30709035062 -2.78701257427 L-5.33855905174 -2.85354755262 L-5.37639779077 -2.91667767476 L-5.42024215998 -2.97579496312 L-5.46966991411 -3.03033008589 L-5.52420503688 -3.07975784002 L-5.58332232524 -3.12360220923 L-5.64645244738 -3.16144094826 L-5.71298742573 -3.19290964938 L-5.78228649206 -3.2177052518 L-5.85368225849 -3.2355889603 L-5.92648714475 -3.246388545 L-6.0 -3.25 L-6.07351285525 -3.246388545 L-6.14631774151 -3.2355889603 L-6.21771350794 -3.2177052518 L-6.28701257427 -3.19290964938 L-6.35354755262 -3.16144094826 L-6.41667767476 -3.12360220923 L-6.47579496312 -3.07975784002 L-6.53033008589 -3.03033008589 L-6.57975784002 -2.97579496312 L-6.62360220923 -2.91667767476 L-6.66144094826 -2.85354755262 L-6.69290964938 -2.78701257427 L-6.7177052518 -2.71771350794 L-6.7355889603 -2.64631774151 L-6.746388545 -2.57351285525 L-6.75 -2.5 L-6.746388545 -2.42648714475 L-6.7355889603 -2.35368225849 L-6.7177052518 -2.28228649206 L-6.69290964938 -2.21298742573 L-6.66144094826 -2.14645244738 L-6.62360220923 -2.08332232524 L-6.57975784002 -2.02420503688 L-6.53033008589 -1.96966991411 L-6.47579496312 -1.92024215998 L-6.41667767476 -1.87639779077 L-6.35354755262 -1.83855905174 L-6.28701257427 -1.80709035062 L-6.21771350794 -1.7822947482 L-6.14631774151 -1.7644110397 L-6.07351285525 -1.753611455 L-6.0 -1.75 L-5.92648714475 -1.753611455 L-5.85368225849 -1.7644110397 L-5.78228649206 -1.7822947482 L-5.71298742573 -1.80709035062 L-5.64645244738 -1.83855905174 L-5.58332232524 -1.87639779077 L-5.52420503688 -1.92024215998 L-5.46966991411 -1.96966991411 L-5.42024215998 -2.02420503688 L-5.37639779077 -2.08332232524 L-5.33855905174 -2.14645244738 L-5.30709035062 -2.21298742573 L-5.2822947482 -2.28228649206 L-5.2644110397 -2.35368225849 L-5.253611455 -2.42648714475 L-5.25 -2.5 Z"></path>
    </g>
  </g>
  <sodipodi:namedview pagecolor="#ffffff" bordercolor="#666666" borderopacity="1" objecttolerance="10" gridtolerance="10" guidetolerance="10" inkscape:pageopacity="0" inkscape:pageshadow="2" inkscape:window-width="1440" inkscape:window-height="856" id="namedview11980" showgrid="false" inkscape:zoom="64.098765" inkscape:cx="0.02921506" inkscape:cy="94.471943" inkscape:window-x="10" inkscape:window-y="0" inkscape:window-maximized="0" inkscape:current-layer="gtron-above-faceplate" class=" gtron-2d-model"></sodipodi:namedview>
  <defs id="defs13576" class=" gtron-2d-model">
    <filter id="filter14111" inkscape:collect="always">
      <feGaussianBlur id="feGaussianBlur14113" stdDeviation="1.4403846" inkscape:collect="always"></feGaussianBlur>
    </filter>
    <filter id="filter9029" inkscape:collect="always">
      <feGaussianBlur id="feGaussianBlur9031" stdDeviation="1.9357752" inkscape:collect="always"></feGaussianBlur>
    </filter>
    <filter id="filter8923" inkscape:collect="always">
      <feGaussianBlur id="feGaussianBlur8925" stdDeviation="0.46448162" inkscape:collect="always"></feGaussianBlur>
    </filter>
    <linearGradient id="linearGradient2225" inkscape:collect="always">
      <stop id="stop2227" offset="0" style="stop-color:#ffffff;stop-opacity:1"></stop>
      <stop id="stop2229" offset="1" style="stop-color:#ffffff;stop-opacity:0"></stop>
    </linearGradient>
    <linearGradient id="linearGradient9049" inkscape:collect="always">
      <stop id="stop9051" offset="0" style="stop-color:#ffffff;stop-opacity:1;"></stop>
      <stop id="stop9053" offset="1" style="stop-color:#ffffff;stop-opacity:0;"></stop>
    </linearGradient>
    <radialGradient inkscape:collect="always" xlink:href="#linearGradient2225" id="radialGradient20493" gradientUnits="userSpaceOnUse" gradientTransform="matrix(1.5336684,0.01530889,-0.0053419,1.3002216,-135.79393,-151.0145)" cx="226.09216" cy="490.79398" fx="226.09216" fy="490.79398" r="84.958359"></radialGradient>
    <linearGradient inkscape:collect="always" xlink:href="#linearGradient9049" id="linearGradient20495" gradientUnits="userSpaceOnUse" x1="146.94048" y1="333.59811" x2="146.94048" y2="413.81613"></linearGradient>
    <radialGradient inkscape:collect="always" xlink:href="#linearGradient2225" id="radialGradient20497" gradientUnits="userSpaceOnUse" gradientTransform="matrix(1.5336684,0.01530889,-0.0053419,1.3002216,-135.79393,-151.0145)" cx="226.09216" cy="490.79398" fx="226.09216" fy="490.79398" r="84.958359"></radialGradient>
    <linearGradient inkscape:collect="always" xlink:href="#linearGradient9049" id="linearGradient20499" gradientUnits="userSpaceOnUse" x1="146.94048" y1="333.59811" x2="146.94048" y2="413.81613"></linearGradient>
  </defs>
  <metadata id="metadata13579" class=" gtron-2d-model">
    <rdf:rdf>
      <cc:work rdf:about="">
        <dc:format>image/svg xml</dc:format>
        <dc:type rdf:resource="http://purl.org/dc/dcmitype/StillImage"></dc:type>
        <dc:title></dc:title>
      </cc:work>
    </rdf:rdf>
  </metadata>
  <g class="gtron-component gtron-2d-model tactile-button-round-yellow" gtron-component-type="tactile-button-round-yellow" inkscape:label="gtron-component" inkscape:groupmode="layer" id="gtron-component-container">
    <style class="gtron-gadget-style" id="style378">
.tactile-button-round-yellow .button-color {fill: yellow}</style>
    <g style="display:inline" id="gtron-above-board" class="gtron-above-board">
      <g style="display:inline" id="g20505" transform="matrix(1.086518,0,0,1.086518,-55.430191,-24.369122)">
        <g id="g20515" transform="translate(-21.177897,-1.7787393)">
          <rect style="fill:#000000;fill-opacity:1;stroke:none" id="rect20501" width="10.952418" height="10.952418" x="66.730576" y="18.756994" rx="0.40000001" ry="0.40000001"></rect>
          <rect y="19.669697" x="67.64328" height="9.1270151" width="9.1270151" id="rect20503" style="fill:#d7d7d7;fill-opacity:1;stroke:none" rx="0.89999998" ry="0.89999998"></rect>
        </g>
      </g>
      <g style="display:inline" inkscape:label="Calque 1" id="g20475" transform="matrix(0.07324053,0,0,0.07324053,-22.322454,-30.803373)">
        <g id="g20477" transform="translate(-86.576192,-289.86584)">
          <path sodipodi:type="arc" style="fill-opacity:1;fill-rule:evenodd;stroke:#000000;stroke-width:1.3224839;stroke-linecap:butt;stroke-linejoin:miter;stroke-miterlimit:4;stroke-opacity:1;stroke-dasharray:none" id="path20479" sodipodi:cx="208.33769" sodipodi:cy="425.23758" sodipodi:rx="84.461227" sodipodi:ry="106.28037" d="m 291.7407,408.46642 a 84.461227,106.28037 0 1 1 -0.0961,-0.74001" sodipodi:start="6.1247219" sodipodi:end="12.400852" sodipodi:open="true" transform="matrix(1.0433265,0,0,0.8291044,174.18064,358.26068)" class="button-color"></path>
          <path sodipodi:type="arc" style="opacity:0.53658537;fill:url(#radialGradient20497);fill-opacity:1;fill-rule:evenodd;stroke:none;filter:url(#filter9029)" id="path20481" sodipodi:cx="208.33769" sodipodi:cy="425.23758" sodipodi:rx="84.461227" sodipodi:ry="106.28037" d="m 292.79306,426.48911 a 84.461227,106.28037 0 1 1 -1.14847,-18.76272" sodipodi:start="0.011775981" sodipodi:end="6.1176665" sodipodi:open="true" transform="matrix(0.8727091,0,0,0.5412015,209.72928,505.45949)"></path>
          <path inkscape:connector-curvature="0" style="fill:#ffffff;fill-opacity:1;fill-rule:evenodd;stroke:none;filter:url(#filter14111)" d="m 741.16579,273.3307 c -4.4056,0.0332 -8.8609,0.40864 -13.3438,1.125 -48.0331,7.67558 -80.8009,52.8748 -73.125,100.90625 0.3412,2.13474 0.7949,4.24033 1.2813,6.3125 -2.8739,-13.55395 -2.4532,-27.75521 1.7812,-41.15625 9.6504,-34.87985 43.9764,-61.01938 80.875,-61.90625 1.6479,-0.057 3.2889,-0.0226 4.9375,-0.0312 39.214,0.20485 75.48743,29.48814 83.46883,66.84375 2.9379,11.92602 2.9676,24.23829 0.5,36.03125 2.5241,-10.80528 3.077,-22.27777 1.2187,-33.90625 l -0.125,-0.59375 c -7.2306,-43.28306 -44.88143,-73.94627 -87.46873,-73.625 z m 86.37503,108.125 c -0.174,0.83131 -0.3952,1.64295 -0.5938,2.46875 0.2172,-0.82108 0.4001,-1.6397 0.5938,-2.46875 z" id="path20483" transform="matrix(0.95604,0,0,0.9229259,-317.6222,374.69987)"></path>
          <path inkscape:connector-curvature="0" style="opacity:0.6300813;fill:url(#linearGradient20499);fill-opacity:1;fill-rule:evenodd;stroke:none;filter:url(#filter8923)" d="m 146.0186,333.60451 c -40.18205,0.54576 -73.231908,31.49106 -76.843748,71.0625 22.70147,-8.5982 50.119818,-13.53827 79.562498,-13.34375 28.11633,0.18576 54.20754,4.89473 75.96875,13 l -0.40625,-5.34375 c -6.31488,-37.80165 -37.95711,-64.92369 -76.28125,-65.375 -0.675,-0.008 -1.32887,-0.009 -2,0 z" id="path20485" transform="matrix(1.0769765,0,0,1.0396147,232.19753,284.4781)"></path>
        </g>
      </g>
    </g>
    <g style="display:inline" id="gtron-above-faceplate" class="gtron-above-faceplate">
      <g transform="matrix(0.07324053,0,0,0.07324053,-22.322454,-30.803373)" id="layer1-5" inkscape:label="Calque 1">
        <g transform="translate(-86.576192,-289.86584)" id="g14155">
          <path transform="matrix(1.0433265,0,0,0.8291044,174.18064,358.26068)" sodipodi:open="true" sodipodi:end="12.400852" sodipodi:start="6.1247219" d="m 291.7407,408.46642 a 84.461227,106.28037 0 1 1 -0.0961,-0.74001" sodipodi:ry="106.28037" sodipodi:rx="84.461227" sodipodi:cy="425.23758" sodipodi:cx="208.33769" id="path14157" style="fill-opacity:1;fill-rule:evenodd;stroke:#000000;stroke-width:1.3224839;stroke-linecap:butt;stroke-linejoin:miter;stroke-miterlimit:4;stroke-opacity:1;stroke-dasharray:none" sodipodi:type="arc" class="button-color"></path>
          <path transform="matrix(0.8727091,0,0,0.5412015,209.72928,505.45949)" sodipodi:open="true" sodipodi:end="6.1176665" sodipodi:start="0.011775981" d="m 292.79306,426.48911 a 84.461227,106.28037 0 1 1 -1.14847,-18.76272" sodipodi:ry="106.28037" sodipodi:rx="84.461227" sodipodi:cy="425.23758" sodipodi:cx="208.33769" id="path14159" style="opacity:0.53658537;fill:url(#radialGradient20493);fill-opacity:1;fill-rule:evenodd;stroke:none;filter:url(#filter9029)" sodipodi:type="arc"></path>
          <path transform="matrix(0.95604,0,0,0.9229259,-317.6222,374.69987)" id="path14161" d="m 741.16579,273.3307 c -4.4056,0.0332 -8.8609,0.40864 -13.3438,1.125 -48.0331,7.67558 -80.8009,52.8748 -73.125,100.90625 0.3412,2.13474 0.7949,4.24033 1.2813,6.3125 -2.8739,-13.55395 -2.4532,-27.75521 1.7812,-41.15625 9.6504,-34.87985 43.9764,-61.01938 80.875,-61.90625 1.6479,-0.057 3.2889,-0.0226 4.9375,-0.0312 39.214,0.20485 75.48743,29.48814 83.46883,66.84375 2.9379,11.92602 2.9676,24.23829 0.5,36.03125 2.5241,-10.80528 3.077,-22.27777 1.2187,-33.90625 l -0.125,-0.59375 c -7.2306,-43.28306 -44.88143,-73.94627 -87.46873,-73.625 z m 86.37503,108.125 c -0.174,0.83131 -0.3952,1.64295 -0.5938,2.46875 0.2172,-0.82108 0.4001,-1.6397 0.5938,-2.46875 z" style="fill:#ffffff;fill-opacity:1;fill-rule:evenodd;stroke:none;filter:url(#filter14111)" inkscape:connector-curvature="0"></path>
          <path transform="matrix(1.0769765,0,0,1.0396147,232.19753,284.4781)" id="path14163" d="m 146.0186,333.60451 c -40.18205,0.54576 -73.231908,31.49106 -76.843748,71.0625 22.70147,-8.5982 50.119818,-13.53827 79.562498,-13.34375 28.11633,0.18576 54.20754,4.89473 75.96875,13 l -0.40625,-5.34375 c -6.31488,-37.80165 -37.95711,-64.92369 -76.28125,-65.375 -0.675,-0.008 -1.32887,-0.009 -2,0 z" style="opacity:0.6300813;fill:url(#linearGradient20495);fill-opacity:1;fill-rule:evenodd;stroke:none;filter:url(#filter8923)" inkscape:connector-curvature="0"></path>
        </g>
      </g>
    </g>
  </g>
<desc>Created with Snap</desc></svg>
