G04 EAGLE Gerber X2 export*
%TF.Part,Single*%
%TF.FileFunction,Other,Mechanical*%
%TF.FilePolarity,Positive*%
%TF.GenerationSoftware,Autodesk,EAGLE,9.0.0*%
%TF.CreationDate,2019-03-06T05:58:58Z*%
G75*
%MOMM*%
%FSLAX34Y34*%
%LPD*%
%AMOC8*
5,1,8,0,0,1.08239X$1,22.5*%
G01*
%ADD10C,0.000000*%
%ADD11C,0.254000*%


D10*
X110000Y140000D02*
X1000000Y140000D01*
X1000000Y720000D01*
X110000Y720000D01*
X110000Y140000D01*
X244200Y657800D02*
X244200Y690800D01*
X254200Y690800D01*
X254200Y657800D01*
X244200Y657800D01*
X232200Y631300D02*
X232200Y621300D01*
X232200Y631300D02*
X204200Y631300D01*
X204200Y621300D01*
X232200Y621300D01*
X183200Y660300D02*
X183200Y688300D01*
X193200Y688300D01*
X193200Y660300D01*
X183200Y660300D01*
X977000Y274000D02*
X976991Y274093D01*
X976987Y274187D01*
X976986Y274280D01*
X976989Y274374D01*
X976996Y274467D01*
X977007Y274560D01*
X977022Y274652D01*
X977041Y274744D01*
X977063Y274835D01*
X977089Y274925D01*
X977119Y275014D01*
X977152Y275101D01*
X977189Y275187D01*
X977230Y275271D01*
X977273Y275354D01*
X977321Y275435D01*
X977371Y275513D01*
X977425Y275590D01*
X977482Y275664D01*
X977542Y275736D01*
X977605Y275805D01*
X977671Y275872D01*
X977739Y275936D01*
X977810Y275997D01*
X977883Y276055D01*
X977959Y276110D01*
X978037Y276162D01*
X978117Y276210D01*
X978199Y276255D01*
X978283Y276297D01*
X978368Y276335D01*
X978455Y276370D01*
X978544Y276401D01*
X978633Y276428D01*
X978724Y276452D01*
X978815Y276472D01*
X978907Y276488D01*
X979000Y276500D01*
X987000Y276500D01*
X987093Y276488D01*
X987185Y276472D01*
X987276Y276452D01*
X987367Y276428D01*
X987456Y276401D01*
X987545Y276370D01*
X987632Y276335D01*
X987717Y276297D01*
X987801Y276255D01*
X987883Y276210D01*
X987963Y276162D01*
X988041Y276110D01*
X988117Y276055D01*
X988190Y275997D01*
X988261Y275936D01*
X988329Y275872D01*
X988395Y275805D01*
X988458Y275736D01*
X988518Y275664D01*
X988575Y275590D01*
X988629Y275513D01*
X988679Y275435D01*
X988727Y275354D01*
X988770Y275271D01*
X988811Y275187D01*
X988848Y275101D01*
X988881Y275014D01*
X988911Y274925D01*
X988937Y274835D01*
X988959Y274744D01*
X988978Y274652D01*
X988993Y274560D01*
X989004Y274467D01*
X989011Y274374D01*
X989014Y274280D01*
X989013Y274187D01*
X989009Y274093D01*
X989000Y274000D01*
X989009Y273907D01*
X989013Y273813D01*
X989014Y273720D01*
X989011Y273626D01*
X989004Y273533D01*
X988993Y273440D01*
X988978Y273348D01*
X988959Y273256D01*
X988937Y273165D01*
X988911Y273075D01*
X988881Y272986D01*
X988848Y272899D01*
X988811Y272813D01*
X988770Y272729D01*
X988727Y272646D01*
X988679Y272565D01*
X988629Y272487D01*
X988575Y272410D01*
X988518Y272336D01*
X988458Y272264D01*
X988395Y272195D01*
X988329Y272128D01*
X988261Y272064D01*
X988190Y272003D01*
X988117Y271945D01*
X988041Y271890D01*
X987963Y271838D01*
X987883Y271790D01*
X987801Y271745D01*
X987717Y271703D01*
X987632Y271665D01*
X987545Y271630D01*
X987456Y271599D01*
X987367Y271572D01*
X987276Y271548D01*
X987185Y271528D01*
X987093Y271512D01*
X987000Y271500D01*
X979000Y271500D01*
X978907Y271512D01*
X978815Y271528D01*
X978724Y271548D01*
X978633Y271572D01*
X978544Y271599D01*
X978455Y271630D01*
X978368Y271665D01*
X978283Y271703D01*
X978199Y271745D01*
X978117Y271790D01*
X978037Y271838D01*
X977959Y271890D01*
X977883Y271945D01*
X977810Y272003D01*
X977739Y272064D01*
X977671Y272128D01*
X977605Y272195D01*
X977542Y272264D01*
X977482Y272336D01*
X977425Y272410D01*
X977371Y272487D01*
X977321Y272565D01*
X977273Y272646D01*
X977230Y272729D01*
X977189Y272813D01*
X977152Y272899D01*
X977119Y272986D01*
X977089Y273075D01*
X977063Y273165D01*
X977041Y273256D01*
X977022Y273348D01*
X977007Y273440D01*
X976996Y273533D01*
X976989Y273626D01*
X976986Y273720D01*
X976987Y273813D01*
X976991Y273907D01*
X977000Y274000D01*
X977000Y340000D02*
X976991Y340093D01*
X976987Y340187D01*
X976986Y340280D01*
X976989Y340374D01*
X976996Y340467D01*
X977007Y340560D01*
X977022Y340652D01*
X977041Y340744D01*
X977063Y340835D01*
X977089Y340925D01*
X977119Y341014D01*
X977152Y341101D01*
X977189Y341187D01*
X977230Y341271D01*
X977273Y341354D01*
X977321Y341435D01*
X977371Y341513D01*
X977425Y341590D01*
X977482Y341664D01*
X977542Y341736D01*
X977605Y341805D01*
X977671Y341872D01*
X977739Y341936D01*
X977810Y341997D01*
X977883Y342055D01*
X977959Y342110D01*
X978037Y342162D01*
X978117Y342210D01*
X978199Y342255D01*
X978283Y342297D01*
X978368Y342335D01*
X978455Y342370D01*
X978544Y342401D01*
X978633Y342428D01*
X978724Y342452D01*
X978815Y342472D01*
X978907Y342488D01*
X979000Y342500D01*
X987000Y342500D01*
X987093Y342488D01*
X987185Y342472D01*
X987276Y342452D01*
X987367Y342428D01*
X987456Y342401D01*
X987545Y342370D01*
X987632Y342335D01*
X987717Y342297D01*
X987801Y342255D01*
X987883Y342210D01*
X987963Y342162D01*
X988041Y342110D01*
X988117Y342055D01*
X988190Y341997D01*
X988261Y341936D01*
X988329Y341872D01*
X988395Y341805D01*
X988458Y341736D01*
X988518Y341664D01*
X988575Y341590D01*
X988629Y341513D01*
X988679Y341435D01*
X988727Y341354D01*
X988770Y341271D01*
X988811Y341187D01*
X988848Y341101D01*
X988881Y341014D01*
X988911Y340925D01*
X988937Y340835D01*
X988959Y340744D01*
X988978Y340652D01*
X988993Y340560D01*
X989004Y340467D01*
X989011Y340374D01*
X989014Y340280D01*
X989013Y340187D01*
X989009Y340093D01*
X989000Y340000D01*
X989009Y339907D01*
X989013Y339813D01*
X989014Y339720D01*
X989011Y339626D01*
X989004Y339533D01*
X988993Y339440D01*
X988978Y339348D01*
X988959Y339256D01*
X988937Y339165D01*
X988911Y339075D01*
X988881Y338986D01*
X988848Y338899D01*
X988811Y338813D01*
X988770Y338729D01*
X988727Y338646D01*
X988679Y338565D01*
X988629Y338487D01*
X988575Y338410D01*
X988518Y338336D01*
X988458Y338264D01*
X988395Y338195D01*
X988329Y338128D01*
X988261Y338064D01*
X988190Y338003D01*
X988117Y337945D01*
X988041Y337890D01*
X987963Y337838D01*
X987883Y337790D01*
X987801Y337745D01*
X987717Y337703D01*
X987632Y337665D01*
X987545Y337630D01*
X987456Y337599D01*
X987367Y337572D01*
X987276Y337548D01*
X987185Y337528D01*
X987093Y337512D01*
X987000Y337500D01*
X979000Y337500D01*
X978907Y337512D01*
X978815Y337528D01*
X978724Y337548D01*
X978633Y337572D01*
X978544Y337599D01*
X978455Y337630D01*
X978368Y337665D01*
X978283Y337703D01*
X978199Y337745D01*
X978117Y337790D01*
X978037Y337838D01*
X977959Y337890D01*
X977883Y337945D01*
X977810Y338003D01*
X977739Y338064D01*
X977671Y338128D01*
X977605Y338195D01*
X977542Y338264D01*
X977482Y338336D01*
X977425Y338410D01*
X977371Y338487D01*
X977321Y338565D01*
X977273Y338646D01*
X977230Y338729D01*
X977189Y338813D01*
X977152Y338899D01*
X977119Y338986D01*
X977089Y339075D01*
X977063Y339165D01*
X977041Y339256D01*
X977022Y339348D01*
X977007Y339440D01*
X976996Y339533D01*
X976989Y339626D01*
X976986Y339720D01*
X976987Y339813D01*
X976991Y339907D01*
X977000Y340000D01*
D11*
X110000Y140000D02*
X1000000Y140000D01*
X1000000Y720000D01*
X110000Y720000D01*
X110000Y140000D01*
X977000Y340000D02*
X976987Y339803D01*
X976991Y339606D01*
X977012Y339409D01*
X977050Y339215D01*
X977105Y339026D01*
X977176Y338842D01*
X977264Y338664D01*
X977366Y338495D01*
X977482Y338336D01*
X977612Y338187D01*
X977755Y338050D01*
X977909Y337926D01*
X978073Y337816D01*
X978246Y337721D01*
X978426Y337641D01*
X978613Y337578D01*
X978805Y337530D01*
X979000Y337500D01*
X987000Y337500D01*
X987195Y337530D01*
X987387Y337578D01*
X987574Y337641D01*
X987754Y337721D01*
X987927Y337816D01*
X988092Y337926D01*
X988245Y338050D01*
X988388Y338187D01*
X988518Y338336D01*
X988634Y338495D01*
X988737Y338664D01*
X988824Y338842D01*
X988895Y339026D01*
X988950Y339215D01*
X988988Y339409D01*
X989009Y339606D01*
X989013Y339803D01*
X989000Y340000D01*
X989013Y340197D01*
X989009Y340395D01*
X988988Y340591D01*
X988950Y340785D01*
X988895Y340974D01*
X988824Y341159D01*
X988737Y341336D01*
X988634Y341505D01*
X988518Y341664D01*
X988388Y341813D01*
X988245Y341950D01*
X988092Y342074D01*
X987927Y342184D01*
X987754Y342279D01*
X987574Y342359D01*
X987387Y342422D01*
X987195Y342470D01*
X987000Y342500D01*
X979000Y342500D01*
X978805Y342470D01*
X978613Y342422D01*
X978426Y342359D01*
X978246Y342279D01*
X978073Y342184D01*
X977909Y342074D01*
X977755Y341950D01*
X977612Y341813D01*
X977482Y341664D01*
X977366Y341505D01*
X977264Y341336D01*
X977176Y341159D01*
X977105Y340974D01*
X977050Y340785D01*
X977012Y340591D01*
X976991Y340395D01*
X976987Y340197D01*
X977000Y340000D01*
X977000Y274000D02*
X976987Y273803D01*
X976991Y273606D01*
X977012Y273409D01*
X977050Y273215D01*
X977105Y273026D01*
X977176Y272842D01*
X977264Y272664D01*
X977366Y272495D01*
X977482Y272336D01*
X977612Y272187D01*
X977755Y272050D01*
X977909Y271926D01*
X978073Y271816D01*
X978246Y271721D01*
X978426Y271641D01*
X978613Y271578D01*
X978805Y271530D01*
X979000Y271500D01*
X987000Y271500D01*
X987195Y271530D01*
X987387Y271578D01*
X987574Y271641D01*
X987754Y271721D01*
X987927Y271816D01*
X988092Y271926D01*
X988245Y272050D01*
X988388Y272187D01*
X988518Y272336D01*
X988634Y272495D01*
X988737Y272664D01*
X988824Y272842D01*
X988895Y273026D01*
X988950Y273215D01*
X988988Y273409D01*
X989009Y273606D01*
X989013Y273803D01*
X989000Y274000D01*
X989013Y274197D01*
X989009Y274395D01*
X988988Y274591D01*
X988950Y274785D01*
X988895Y274974D01*
X988824Y275159D01*
X988737Y275336D01*
X988634Y275505D01*
X988518Y275664D01*
X988388Y275813D01*
X988245Y275950D01*
X988092Y276074D01*
X987927Y276184D01*
X987754Y276279D01*
X987574Y276359D01*
X987387Y276422D01*
X987195Y276470D01*
X987000Y276500D01*
X979000Y276500D01*
X978805Y276470D01*
X978613Y276422D01*
X978426Y276359D01*
X978246Y276279D01*
X978073Y276184D01*
X977909Y276074D01*
X977755Y275950D01*
X977612Y275813D01*
X977482Y275664D01*
X977366Y275505D01*
X977264Y275336D01*
X977176Y275159D01*
X977105Y274974D01*
X977050Y274785D01*
X977012Y274591D01*
X976991Y274395D01*
X976987Y274197D01*
X977000Y274000D01*
X183200Y660300D02*
X193200Y660300D01*
X193200Y688300D01*
X183200Y688300D01*
X183200Y660300D01*
X244200Y657800D02*
X254200Y657800D01*
X254200Y690800D01*
X244200Y690800D01*
X244200Y657800D01*
X204200Y621300D02*
X232200Y621300D01*
X232200Y631300D01*
X204200Y631300D01*
X204200Y621300D01*
M02*
