G04 EAGLE Gerber X2 export*
%TF.Part,Single*%
%TF.FileFunction,Other,Solder stop mask TOP*%
%TF.FilePolarity,Positive*%
%TF.GenerationSoftware,Autodesk,EAGLE,9.0.0*%
%TF.CreationDate,2019-03-06T05:58:58Z*%
G75*
%MOMM*%
%FSLAX34Y34*%
%LPD*%
%AMOC8*
5,1,8,0,0,1.08239X$1,22.5*%
G01*
%ADD10C,0.000000*%
%ADD11C,0.076200*%
%ADD12R,0.327000X0.827000*%
%ADD13C,2.127000*%
%ADD14C,2.527000*%
%ADD15C,2.377000*%
%ADD16R,2.827000X2.677000*%
%ADD17R,1.127000X1.227000*%
%ADD18C,0.338100*%
%ADD19R,1.227000X1.127000*%
%ADD20R,1.277000X0.727000*%
%ADD21R,1.027000X0.927000*%
%ADD22R,1.527000X1.727000*%
%ADD23R,1.477000X0.527000*%
%ADD24R,2.027000X2.027000*%
%ADD25R,1.327000X0.727000*%
%ADD26R,1.397000X1.597000*%
%ADD27C,2.006600*%
%ADD28R,1.602000X0.577000*%
%ADD29P,1.787026X8X22.500000*%
%ADD30R,1.577000X0.877000*%
%ADD31R,1.677000X1.427000*%
%ADD32R,2.327000X1.177000*%
%ADD33R,1.177000X1.127000*%
%ADD34R,3.327000X1.627000*%
%ADD35R,2.127000X0.827000*%
%ADD36R,2.027000X0.427000*%
%ADD37C,2.157000*%
%ADD38R,1.667000X1.667000*%
%ADD39C,1.627000*%
%ADD40C,3.707000*%
%ADD41R,0.627000X1.127000*%
%ADD42R,0.847000X0.907000*%
%ADD43R,1.177000X1.207000*%
%ADD44R,1.177000X1.327000*%
%ADD45R,1.177000X2.517000*%
%ADD46R,3.037000X0.677000*%

G36*
X987665Y335024D02*
X987665Y335024D01*
X987751Y335033D01*
X988517Y335232D01*
X988640Y335283D01*
X988726Y335312D01*
X989429Y335677D01*
X989537Y335754D01*
X989615Y335801D01*
X990219Y336313D01*
X990307Y336412D01*
X990373Y336476D01*
X990848Y337109D01*
X990911Y337225D01*
X990961Y337302D01*
X991283Y338025D01*
X991319Y338153D01*
X991351Y338239D01*
X991504Y339015D01*
X991511Y339148D01*
X991522Y339238D01*
X991499Y340030D01*
X991497Y340038D01*
X991498Y340046D01*
X991460Y340886D01*
X991435Y341017D01*
X991425Y341107D01*
X991200Y341918D01*
X991147Y342040D01*
X991117Y342126D01*
X990717Y342867D01*
X990639Y342973D01*
X990590Y343051D01*
X990036Y343684D01*
X989935Y343770D01*
X989870Y343835D01*
X989189Y344329D01*
X989072Y344391D01*
X988994Y344439D01*
X988220Y344769D01*
X988092Y344804D01*
X988006Y344834D01*
X987178Y344983D01*
X987078Y344987D01*
X987000Y344999D01*
X978500Y344999D01*
X978335Y344976D01*
X978249Y344967D01*
X977483Y344768D01*
X977360Y344717D01*
X977274Y344688D01*
X976571Y344323D01*
X976463Y344246D01*
X976385Y344199D01*
X975781Y343687D01*
X975693Y343588D01*
X975628Y343524D01*
X975152Y342891D01*
X975089Y342775D01*
X975039Y342698D01*
X974717Y341975D01*
X974681Y341847D01*
X974649Y341761D01*
X974496Y340985D01*
X974489Y340852D01*
X974478Y340762D01*
X974501Y339970D01*
X974503Y339962D01*
X974502Y339954D01*
X974540Y339114D01*
X974565Y338983D01*
X974575Y338893D01*
X974800Y338082D01*
X974853Y337960D01*
X974883Y337874D01*
X975283Y337133D01*
X975361Y337027D01*
X975410Y336949D01*
X975964Y336316D01*
X976065Y336230D01*
X976130Y336165D01*
X976811Y335671D01*
X976928Y335609D01*
X977006Y335561D01*
X977780Y335231D01*
X977908Y335196D01*
X977994Y335166D01*
X978822Y335017D01*
X978922Y335013D01*
X979000Y335001D01*
X987500Y335001D01*
X987665Y335024D01*
G37*
G36*
X987098Y269015D02*
X987098Y269015D01*
X987178Y269017D01*
X988006Y269166D01*
X988132Y269208D01*
X988220Y269231D01*
X988994Y269561D01*
X989108Y269629D01*
X989189Y269671D01*
X989870Y270165D01*
X989965Y270257D01*
X990036Y270316D01*
X990590Y270949D01*
X990662Y271060D01*
X990717Y271133D01*
X991117Y271874D01*
X991162Y271998D01*
X991200Y272082D01*
X991425Y272893D01*
X991442Y273024D01*
X991460Y273114D01*
X991498Y273954D01*
X991497Y273963D01*
X991499Y273970D01*
X991522Y274762D01*
X991508Y274893D01*
X991504Y274985D01*
X991351Y275761D01*
X991307Y275886D01*
X991283Y275975D01*
X990961Y276698D01*
X990890Y276810D01*
X990848Y276891D01*
X990373Y277524D01*
X990279Y277618D01*
X990219Y277687D01*
X989615Y278199D01*
X989503Y278270D01*
X989429Y278323D01*
X988726Y278688D01*
X988601Y278732D01*
X988517Y278768D01*
X987751Y278967D01*
X987586Y278986D01*
X987500Y278999D01*
X979000Y278999D01*
X978902Y278985D01*
X978822Y278983D01*
X977994Y278834D01*
X977868Y278792D01*
X977780Y278769D01*
X977006Y278439D01*
X976892Y278371D01*
X976811Y278329D01*
X976130Y277835D01*
X976035Y277743D01*
X975964Y277684D01*
X975410Y277051D01*
X975338Y276940D01*
X975283Y276867D01*
X974883Y276126D01*
X974838Y276002D01*
X974800Y275918D01*
X974575Y275107D01*
X974558Y274976D01*
X974540Y274886D01*
X974502Y274046D01*
X974503Y274037D01*
X974501Y274030D01*
X974478Y273238D01*
X974492Y273107D01*
X974496Y273015D01*
X974649Y272239D01*
X974693Y272114D01*
X974717Y272025D01*
X975039Y271302D01*
X975110Y271190D01*
X975152Y271109D01*
X975628Y270476D01*
X975721Y270382D01*
X975781Y270313D01*
X976385Y269801D01*
X976497Y269731D01*
X976571Y269677D01*
X977274Y269312D01*
X977399Y269268D01*
X977483Y269232D01*
X978249Y269033D01*
X978414Y269014D01*
X978500Y269001D01*
X987000Y269001D01*
X987098Y269015D01*
G37*
D10*
X110000Y140000D02*
X1000000Y140000D01*
X1000000Y720000D01*
X110000Y720000D01*
X110000Y140000D01*
D11*
X813301Y386102D02*
X813301Y391831D01*
X813301Y386102D02*
X813299Y386024D01*
X813294Y385946D01*
X813284Y385869D01*
X813271Y385792D01*
X813255Y385716D01*
X813235Y385641D01*
X813211Y385567D01*
X813184Y385494D01*
X813153Y385422D01*
X813119Y385352D01*
X813082Y385284D01*
X813041Y385217D01*
X812997Y385152D01*
X812951Y385090D01*
X812901Y385030D01*
X812849Y384972D01*
X812794Y384917D01*
X812736Y384865D01*
X812676Y384815D01*
X812614Y384769D01*
X812549Y384725D01*
X812483Y384684D01*
X812414Y384647D01*
X812344Y384613D01*
X812272Y384582D01*
X812199Y384555D01*
X812125Y384531D01*
X812050Y384511D01*
X811974Y384495D01*
X811897Y384482D01*
X811820Y384472D01*
X811742Y384467D01*
X811664Y384465D01*
X810845Y384465D01*
X816735Y386511D02*
X816735Y389785D01*
X816737Y389874D01*
X816743Y389963D01*
X816753Y390052D01*
X816766Y390140D01*
X816783Y390228D01*
X816805Y390315D01*
X816830Y390400D01*
X816858Y390485D01*
X816891Y390568D01*
X816927Y390650D01*
X816966Y390730D01*
X817009Y390808D01*
X817055Y390884D01*
X817105Y390959D01*
X817158Y391031D01*
X817214Y391100D01*
X817273Y391167D01*
X817334Y391232D01*
X817399Y391293D01*
X817466Y391352D01*
X817535Y391408D01*
X817607Y391461D01*
X817682Y391511D01*
X817758Y391557D01*
X817836Y391600D01*
X817916Y391639D01*
X817998Y391675D01*
X818081Y391708D01*
X818166Y391736D01*
X818251Y391761D01*
X818338Y391783D01*
X818426Y391800D01*
X818514Y391813D01*
X818603Y391823D01*
X818692Y391829D01*
X818781Y391831D01*
X818870Y391829D01*
X818959Y391823D01*
X819048Y391813D01*
X819136Y391800D01*
X819224Y391783D01*
X819311Y391761D01*
X819396Y391736D01*
X819481Y391708D01*
X819564Y391675D01*
X819646Y391639D01*
X819726Y391600D01*
X819804Y391557D01*
X819880Y391511D01*
X819955Y391461D01*
X820027Y391408D01*
X820096Y391352D01*
X820163Y391293D01*
X820228Y391232D01*
X820289Y391167D01*
X820348Y391100D01*
X820404Y391031D01*
X820457Y390959D01*
X820507Y390884D01*
X820553Y390808D01*
X820596Y390730D01*
X820635Y390650D01*
X820671Y390568D01*
X820704Y390485D01*
X820732Y390400D01*
X820757Y390315D01*
X820779Y390228D01*
X820796Y390140D01*
X820809Y390052D01*
X820819Y389963D01*
X820825Y389874D01*
X820827Y389785D01*
X820827Y386511D01*
X820825Y386422D01*
X820819Y386333D01*
X820809Y386244D01*
X820796Y386156D01*
X820779Y386068D01*
X820757Y385981D01*
X820732Y385896D01*
X820704Y385811D01*
X820671Y385728D01*
X820635Y385646D01*
X820596Y385566D01*
X820553Y385488D01*
X820507Y385412D01*
X820457Y385337D01*
X820404Y385265D01*
X820348Y385196D01*
X820289Y385129D01*
X820228Y385064D01*
X820163Y385003D01*
X820096Y384944D01*
X820027Y384888D01*
X819955Y384835D01*
X819880Y384785D01*
X819804Y384739D01*
X819726Y384696D01*
X819646Y384657D01*
X819564Y384621D01*
X819481Y384588D01*
X819396Y384560D01*
X819311Y384535D01*
X819224Y384513D01*
X819136Y384496D01*
X819048Y384483D01*
X818959Y384473D01*
X818870Y384467D01*
X818781Y384465D01*
X818692Y384467D01*
X818603Y384473D01*
X818514Y384483D01*
X818426Y384496D01*
X818338Y384513D01*
X818251Y384535D01*
X818166Y384560D01*
X818081Y384588D01*
X817998Y384621D01*
X817916Y384657D01*
X817836Y384696D01*
X817758Y384739D01*
X817682Y384785D01*
X817607Y384835D01*
X817535Y384888D01*
X817466Y384944D01*
X817399Y385003D01*
X817334Y385064D01*
X817273Y385129D01*
X817214Y385196D01*
X817158Y385265D01*
X817105Y385337D01*
X817055Y385412D01*
X817009Y385488D01*
X816966Y385566D01*
X816927Y385646D01*
X816891Y385728D01*
X816858Y385811D01*
X816830Y385896D01*
X816805Y385981D01*
X816783Y386068D01*
X816766Y386156D01*
X816753Y386244D01*
X816743Y386333D01*
X816737Y386422D01*
X816735Y386511D01*
X824345Y384465D02*
X824345Y391831D01*
X826391Y391831D01*
X826480Y391829D01*
X826569Y391823D01*
X826658Y391813D01*
X826746Y391800D01*
X826834Y391783D01*
X826921Y391761D01*
X827006Y391736D01*
X827091Y391708D01*
X827174Y391675D01*
X827256Y391639D01*
X827336Y391600D01*
X827414Y391557D01*
X827490Y391511D01*
X827565Y391461D01*
X827637Y391408D01*
X827706Y391352D01*
X827773Y391293D01*
X827838Y391232D01*
X827899Y391167D01*
X827958Y391100D01*
X828014Y391031D01*
X828067Y390959D01*
X828117Y390884D01*
X828163Y390808D01*
X828206Y390730D01*
X828245Y390650D01*
X828281Y390568D01*
X828314Y390485D01*
X828342Y390400D01*
X828367Y390315D01*
X828389Y390228D01*
X828406Y390140D01*
X828419Y390052D01*
X828429Y389963D01*
X828435Y389874D01*
X828437Y389785D01*
X828435Y389696D01*
X828429Y389607D01*
X828419Y389518D01*
X828406Y389430D01*
X828389Y389342D01*
X828367Y389255D01*
X828342Y389170D01*
X828314Y389085D01*
X828281Y389002D01*
X828245Y388920D01*
X828206Y388840D01*
X828163Y388762D01*
X828117Y388686D01*
X828067Y388611D01*
X828014Y388539D01*
X827958Y388470D01*
X827899Y388403D01*
X827838Y388338D01*
X827773Y388277D01*
X827706Y388218D01*
X827637Y388162D01*
X827565Y388109D01*
X827490Y388059D01*
X827414Y388013D01*
X827336Y387970D01*
X827256Y387931D01*
X827174Y387895D01*
X827091Y387862D01*
X827006Y387834D01*
X826921Y387809D01*
X826834Y387787D01*
X826746Y387770D01*
X826658Y387757D01*
X826569Y387747D01*
X826480Y387741D01*
X826391Y387739D01*
X824345Y387739D01*
X826801Y387739D02*
X828437Y384465D01*
X834718Y388557D02*
X835945Y388557D01*
X835945Y384465D01*
X833490Y384465D01*
X833412Y384467D01*
X833334Y384472D01*
X833257Y384482D01*
X833180Y384495D01*
X833104Y384511D01*
X833029Y384531D01*
X832955Y384555D01*
X832882Y384582D01*
X832810Y384613D01*
X832740Y384647D01*
X832672Y384684D01*
X832605Y384725D01*
X832540Y384769D01*
X832478Y384815D01*
X832418Y384865D01*
X832360Y384917D01*
X832305Y384972D01*
X832253Y385030D01*
X832203Y385090D01*
X832157Y385152D01*
X832113Y385217D01*
X832072Y385284D01*
X832035Y385352D01*
X832001Y385422D01*
X831970Y385494D01*
X831943Y385567D01*
X831919Y385641D01*
X831899Y385716D01*
X831883Y385792D01*
X831870Y385869D01*
X831860Y385946D01*
X831855Y386024D01*
X831853Y386102D01*
X831853Y390194D01*
X831855Y390274D01*
X831861Y390354D01*
X831871Y390434D01*
X831884Y390513D01*
X831902Y390592D01*
X831923Y390669D01*
X831949Y390745D01*
X831978Y390820D01*
X832010Y390894D01*
X832046Y390966D01*
X832086Y391036D01*
X832129Y391103D01*
X832175Y391169D01*
X832225Y391232D01*
X832277Y391293D01*
X832332Y391352D01*
X832391Y391407D01*
X832451Y391459D01*
X832515Y391509D01*
X832581Y391555D01*
X832648Y391598D01*
X832718Y391638D01*
X832790Y391674D01*
X832864Y391706D01*
X832938Y391735D01*
X833015Y391761D01*
X833092Y391782D01*
X833171Y391800D01*
X833250Y391813D01*
X833330Y391823D01*
X833410Y391829D01*
X833490Y391831D01*
X835945Y391831D01*
X839672Y384465D02*
X842945Y384465D01*
X839672Y384465D02*
X839672Y391831D01*
X842945Y391831D01*
X842127Y388557D02*
X839672Y388557D01*
X852762Y388557D02*
X853989Y388557D01*
X853989Y384465D01*
X851534Y384465D01*
X851456Y384467D01*
X851378Y384472D01*
X851301Y384482D01*
X851224Y384495D01*
X851148Y384511D01*
X851073Y384531D01*
X850999Y384555D01*
X850926Y384582D01*
X850854Y384613D01*
X850784Y384647D01*
X850716Y384684D01*
X850649Y384725D01*
X850584Y384769D01*
X850522Y384815D01*
X850462Y384865D01*
X850404Y384917D01*
X850349Y384972D01*
X850297Y385030D01*
X850247Y385090D01*
X850201Y385152D01*
X850157Y385217D01*
X850116Y385284D01*
X850079Y385352D01*
X850045Y385422D01*
X850014Y385494D01*
X849987Y385567D01*
X849963Y385641D01*
X849943Y385716D01*
X849927Y385792D01*
X849914Y385869D01*
X849904Y385946D01*
X849899Y386024D01*
X849897Y386102D01*
X849897Y390194D01*
X849899Y390274D01*
X849905Y390354D01*
X849915Y390434D01*
X849928Y390513D01*
X849946Y390592D01*
X849967Y390669D01*
X849993Y390745D01*
X850022Y390820D01*
X850054Y390894D01*
X850090Y390966D01*
X850130Y391036D01*
X850173Y391103D01*
X850219Y391169D01*
X850269Y391232D01*
X850321Y391293D01*
X850376Y391352D01*
X850435Y391407D01*
X850495Y391459D01*
X850559Y391509D01*
X850625Y391555D01*
X850692Y391598D01*
X850762Y391638D01*
X850834Y391674D01*
X850908Y391706D01*
X850982Y391735D01*
X851059Y391761D01*
X851136Y391782D01*
X851215Y391800D01*
X851294Y391813D01*
X851374Y391823D01*
X851454Y391829D01*
X851534Y391831D01*
X853989Y391831D01*
X859502Y391831D02*
X857047Y384465D01*
X861958Y384465D02*
X859502Y391831D01*
X857661Y386307D02*
X861344Y386307D01*
X865066Y384465D02*
X865066Y391831D01*
X867112Y391831D01*
X867201Y391829D01*
X867290Y391823D01*
X867379Y391813D01*
X867467Y391800D01*
X867555Y391783D01*
X867642Y391761D01*
X867727Y391736D01*
X867812Y391708D01*
X867895Y391675D01*
X867977Y391639D01*
X868057Y391600D01*
X868135Y391557D01*
X868211Y391511D01*
X868286Y391461D01*
X868358Y391408D01*
X868427Y391352D01*
X868494Y391293D01*
X868559Y391232D01*
X868620Y391167D01*
X868679Y391100D01*
X868735Y391031D01*
X868788Y390959D01*
X868838Y390884D01*
X868884Y390808D01*
X868927Y390730D01*
X868966Y390650D01*
X869002Y390568D01*
X869035Y390485D01*
X869063Y390400D01*
X869088Y390315D01*
X869110Y390228D01*
X869127Y390140D01*
X869140Y390052D01*
X869150Y389963D01*
X869156Y389874D01*
X869158Y389785D01*
X869156Y389696D01*
X869150Y389607D01*
X869140Y389518D01*
X869127Y389430D01*
X869110Y389342D01*
X869088Y389255D01*
X869063Y389170D01*
X869035Y389085D01*
X869002Y389002D01*
X868966Y388920D01*
X868927Y388840D01*
X868884Y388762D01*
X868838Y388686D01*
X868788Y388611D01*
X868735Y388539D01*
X868679Y388470D01*
X868620Y388403D01*
X868559Y388338D01*
X868494Y388277D01*
X868427Y388218D01*
X868358Y388162D01*
X868286Y388109D01*
X868211Y388059D01*
X868135Y388013D01*
X868057Y387970D01*
X867977Y387931D01*
X867895Y387895D01*
X867812Y387862D01*
X867727Y387834D01*
X867642Y387809D01*
X867555Y387787D01*
X867467Y387770D01*
X867379Y387757D01*
X867290Y387747D01*
X867201Y387741D01*
X867112Y387739D01*
X865066Y387739D01*
X867522Y387739D02*
X869159Y384465D01*
X872087Y391831D02*
X876179Y391831D01*
X872087Y384465D01*
X876179Y384465D01*
X878749Y384465D02*
X881204Y391831D01*
X883659Y384465D01*
X883046Y386307D02*
X879363Y386307D01*
X813301Y379639D02*
X810845Y372273D01*
X815756Y372273D02*
X813301Y379639D01*
X815142Y374115D02*
X811459Y374115D01*
X818865Y372273D02*
X818865Y379639D01*
X820911Y379639D01*
X821000Y379637D01*
X821089Y379631D01*
X821178Y379621D01*
X821266Y379608D01*
X821354Y379591D01*
X821441Y379569D01*
X821526Y379544D01*
X821611Y379516D01*
X821694Y379483D01*
X821776Y379447D01*
X821856Y379408D01*
X821934Y379365D01*
X822010Y379319D01*
X822085Y379269D01*
X822157Y379216D01*
X822226Y379160D01*
X822293Y379101D01*
X822358Y379040D01*
X822419Y378975D01*
X822478Y378908D01*
X822534Y378839D01*
X822587Y378767D01*
X822637Y378692D01*
X822683Y378616D01*
X822726Y378538D01*
X822765Y378458D01*
X822801Y378376D01*
X822834Y378293D01*
X822862Y378208D01*
X822887Y378123D01*
X822909Y378036D01*
X822926Y377948D01*
X822939Y377860D01*
X822949Y377771D01*
X822955Y377682D01*
X822957Y377593D01*
X822955Y377504D01*
X822949Y377415D01*
X822939Y377326D01*
X822926Y377238D01*
X822909Y377150D01*
X822887Y377063D01*
X822862Y376978D01*
X822834Y376893D01*
X822801Y376810D01*
X822765Y376728D01*
X822726Y376648D01*
X822683Y376570D01*
X822637Y376494D01*
X822587Y376419D01*
X822534Y376347D01*
X822478Y376278D01*
X822419Y376211D01*
X822358Y376146D01*
X822293Y376085D01*
X822226Y376026D01*
X822157Y375970D01*
X822085Y375917D01*
X822010Y375867D01*
X821934Y375821D01*
X821856Y375778D01*
X821776Y375739D01*
X821694Y375703D01*
X821611Y375670D01*
X821526Y375642D01*
X821441Y375617D01*
X821354Y375595D01*
X821266Y375578D01*
X821178Y375565D01*
X821089Y375555D01*
X821000Y375549D01*
X820911Y375547D01*
X818865Y375547D01*
X821320Y375547D02*
X822957Y372273D01*
X827687Y372273D02*
X827687Y379639D01*
X825641Y379639D02*
X829733Y379639D01*
X833052Y379639D02*
X833052Y372273D01*
X833870Y372273D02*
X832233Y372273D01*
X832233Y379639D02*
X833870Y379639D01*
X837219Y379639D02*
X837219Y372273D01*
X837219Y375138D02*
X841311Y379639D01*
X838856Y376774D02*
X841311Y372273D01*
X844173Y372273D02*
X846628Y372273D01*
X846706Y372275D01*
X846784Y372280D01*
X846861Y372290D01*
X846938Y372303D01*
X847014Y372319D01*
X847089Y372339D01*
X847163Y372363D01*
X847236Y372390D01*
X847308Y372421D01*
X847378Y372455D01*
X847447Y372492D01*
X847513Y372533D01*
X847578Y372577D01*
X847640Y372623D01*
X847700Y372673D01*
X847758Y372725D01*
X847813Y372780D01*
X847865Y372838D01*
X847915Y372898D01*
X847961Y372960D01*
X848005Y373025D01*
X848046Y373092D01*
X848083Y373160D01*
X848117Y373230D01*
X848148Y373302D01*
X848175Y373375D01*
X848199Y373449D01*
X848219Y373524D01*
X848235Y373600D01*
X848248Y373677D01*
X848258Y373754D01*
X848263Y373832D01*
X848265Y373910D01*
X848265Y374728D01*
X848263Y374806D01*
X848258Y374884D01*
X848248Y374961D01*
X848235Y375038D01*
X848219Y375114D01*
X848199Y375189D01*
X848175Y375263D01*
X848148Y375336D01*
X848117Y375408D01*
X848083Y375478D01*
X848046Y375547D01*
X848005Y375613D01*
X847961Y375678D01*
X847915Y375740D01*
X847865Y375800D01*
X847813Y375858D01*
X847758Y375913D01*
X847700Y375965D01*
X847640Y376015D01*
X847578Y376061D01*
X847513Y376105D01*
X847447Y376146D01*
X847378Y376183D01*
X847308Y376217D01*
X847236Y376248D01*
X847163Y376275D01*
X847089Y376299D01*
X847014Y376319D01*
X846938Y376335D01*
X846861Y376348D01*
X846784Y376358D01*
X846706Y376363D01*
X846628Y376365D01*
X844173Y376365D01*
X844173Y379639D01*
X848265Y379639D01*
X851488Y372273D02*
X853534Y372273D01*
X853623Y372275D01*
X853712Y372281D01*
X853801Y372291D01*
X853889Y372304D01*
X853977Y372321D01*
X854064Y372343D01*
X854149Y372368D01*
X854234Y372396D01*
X854317Y372429D01*
X854399Y372465D01*
X854479Y372504D01*
X854557Y372547D01*
X854633Y372593D01*
X854708Y372643D01*
X854780Y372696D01*
X854849Y372752D01*
X854916Y372811D01*
X854981Y372872D01*
X855042Y372937D01*
X855101Y373004D01*
X855157Y373073D01*
X855210Y373145D01*
X855260Y373220D01*
X855306Y373296D01*
X855349Y373374D01*
X855388Y373454D01*
X855424Y373536D01*
X855457Y373619D01*
X855485Y373704D01*
X855510Y373789D01*
X855532Y373876D01*
X855549Y373964D01*
X855562Y374052D01*
X855572Y374141D01*
X855578Y374230D01*
X855580Y374319D01*
X855578Y374408D01*
X855572Y374497D01*
X855562Y374586D01*
X855549Y374674D01*
X855532Y374762D01*
X855510Y374849D01*
X855485Y374934D01*
X855457Y375019D01*
X855424Y375102D01*
X855388Y375184D01*
X855349Y375264D01*
X855306Y375342D01*
X855260Y375418D01*
X855210Y375493D01*
X855157Y375565D01*
X855101Y375634D01*
X855042Y375701D01*
X854981Y375766D01*
X854916Y375827D01*
X854849Y375886D01*
X854780Y375942D01*
X854708Y375995D01*
X854633Y376045D01*
X854557Y376091D01*
X854479Y376134D01*
X854399Y376173D01*
X854317Y376209D01*
X854234Y376242D01*
X854149Y376270D01*
X854064Y376295D01*
X853977Y376317D01*
X853889Y376334D01*
X853801Y376347D01*
X853712Y376357D01*
X853623Y376363D01*
X853534Y376365D01*
X853943Y379639D02*
X851488Y379639D01*
X853943Y379639D02*
X854022Y379637D01*
X854101Y379631D01*
X854180Y379622D01*
X854258Y379609D01*
X854335Y379591D01*
X854411Y379571D01*
X854486Y379546D01*
X854560Y379518D01*
X854633Y379487D01*
X854704Y379451D01*
X854773Y379413D01*
X854840Y379371D01*
X854905Y379326D01*
X854968Y379278D01*
X855029Y379227D01*
X855086Y379173D01*
X855142Y379117D01*
X855194Y379058D01*
X855244Y378996D01*
X855290Y378932D01*
X855334Y378866D01*
X855374Y378798D01*
X855410Y378728D01*
X855444Y378656D01*
X855474Y378582D01*
X855500Y378508D01*
X855523Y378432D01*
X855541Y378355D01*
X855557Y378278D01*
X855568Y378199D01*
X855576Y378121D01*
X855580Y378042D01*
X855580Y377962D01*
X855576Y377883D01*
X855568Y377805D01*
X855557Y377726D01*
X855541Y377649D01*
X855523Y377572D01*
X855500Y377496D01*
X855474Y377422D01*
X855444Y377348D01*
X855410Y377276D01*
X855374Y377206D01*
X855334Y377138D01*
X855290Y377072D01*
X855244Y377008D01*
X855194Y376946D01*
X855142Y376887D01*
X855086Y376831D01*
X855029Y376777D01*
X854968Y376726D01*
X854905Y376678D01*
X854840Y376633D01*
X854773Y376591D01*
X854704Y376553D01*
X854633Y376517D01*
X854560Y376486D01*
X854486Y376458D01*
X854411Y376433D01*
X854335Y376413D01*
X854258Y376395D01*
X854180Y376382D01*
X854101Y376373D01*
X854022Y376367D01*
X853943Y376365D01*
X852306Y376365D01*
X858804Y375956D02*
X858806Y376109D01*
X858812Y376262D01*
X858821Y376414D01*
X858835Y376567D01*
X858852Y376719D01*
X858873Y376870D01*
X858898Y377021D01*
X858927Y377171D01*
X858959Y377321D01*
X858996Y377469D01*
X859036Y377617D01*
X859079Y377764D01*
X859127Y377909D01*
X859178Y378053D01*
X859232Y378196D01*
X859291Y378338D01*
X859352Y378477D01*
X859418Y378616D01*
X859417Y378616D02*
X859443Y378686D01*
X859473Y378756D01*
X859506Y378823D01*
X859542Y378889D01*
X859581Y378953D01*
X859624Y379015D01*
X859670Y379074D01*
X859718Y379132D01*
X859769Y379186D01*
X859823Y379239D01*
X859880Y379288D01*
X859939Y379335D01*
X860000Y379378D01*
X860063Y379419D01*
X860128Y379456D01*
X860195Y379491D01*
X860264Y379521D01*
X860334Y379549D01*
X860405Y379572D01*
X860477Y379593D01*
X860550Y379609D01*
X860624Y379622D01*
X860699Y379632D01*
X860774Y379637D01*
X860849Y379639D01*
X860924Y379637D01*
X860999Y379632D01*
X861074Y379622D01*
X861148Y379609D01*
X861221Y379593D01*
X861293Y379572D01*
X861364Y379549D01*
X861434Y379521D01*
X861503Y379491D01*
X861570Y379456D01*
X861635Y379419D01*
X861698Y379378D01*
X861759Y379335D01*
X861818Y379288D01*
X861875Y379239D01*
X861929Y379186D01*
X861980Y379132D01*
X862029Y379074D01*
X862074Y379015D01*
X862117Y378953D01*
X862156Y378889D01*
X862193Y378823D01*
X862225Y378755D01*
X862255Y378686D01*
X862281Y378616D01*
X862346Y378478D01*
X862408Y378338D01*
X862466Y378196D01*
X862521Y378053D01*
X862572Y377909D01*
X862620Y377764D01*
X862663Y377617D01*
X862703Y377470D01*
X862740Y377321D01*
X862772Y377171D01*
X862801Y377021D01*
X862826Y376870D01*
X862847Y376719D01*
X862864Y376567D01*
X862878Y376414D01*
X862887Y376262D01*
X862893Y376109D01*
X862895Y375956D01*
X858803Y375956D02*
X858805Y375803D01*
X858811Y375650D01*
X858820Y375497D01*
X858834Y375345D01*
X858851Y375193D01*
X858872Y375042D01*
X858897Y374891D01*
X858926Y374740D01*
X858958Y374591D01*
X858995Y374442D01*
X859035Y374295D01*
X859078Y374148D01*
X859126Y374003D01*
X859177Y373858D01*
X859232Y373716D01*
X859290Y373574D01*
X859352Y373434D01*
X859417Y373296D01*
X859443Y373225D01*
X859473Y373156D01*
X859506Y373089D01*
X859542Y373023D01*
X859581Y372959D01*
X859624Y372897D01*
X859670Y372838D01*
X859718Y372780D01*
X859769Y372726D01*
X859823Y372673D01*
X859880Y372624D01*
X859939Y372577D01*
X860000Y372534D01*
X860063Y372493D01*
X860128Y372456D01*
X860195Y372421D01*
X860264Y372391D01*
X860334Y372363D01*
X860405Y372340D01*
X860477Y372319D01*
X860550Y372303D01*
X860624Y372290D01*
X860699Y372280D01*
X860774Y372275D01*
X860849Y372273D01*
X862281Y373296D02*
X862346Y373434D01*
X862408Y373574D01*
X862466Y373716D01*
X862521Y373859D01*
X862572Y374003D01*
X862620Y374148D01*
X862663Y374295D01*
X862703Y374443D01*
X862740Y374591D01*
X862772Y374741D01*
X862801Y374891D01*
X862826Y375042D01*
X862847Y375193D01*
X862864Y375345D01*
X862878Y375498D01*
X862887Y375650D01*
X862893Y375803D01*
X862895Y375956D01*
X862281Y373296D02*
X862255Y373226D01*
X862225Y373156D01*
X862193Y373089D01*
X862156Y373023D01*
X862117Y372959D01*
X862074Y372897D01*
X862028Y372838D01*
X861980Y372780D01*
X861929Y372726D01*
X861875Y372673D01*
X861818Y372624D01*
X861759Y372577D01*
X861698Y372534D01*
X861635Y372493D01*
X861570Y372456D01*
X861503Y372421D01*
X861434Y372391D01*
X861364Y372363D01*
X861293Y372340D01*
X861221Y372319D01*
X861148Y372303D01*
X861074Y372290D01*
X860999Y372280D01*
X860924Y372275D01*
X860849Y372273D01*
X859212Y373910D02*
X862486Y378002D01*
X814119Y360081D02*
X812482Y360081D01*
X812404Y360083D01*
X812326Y360088D01*
X812249Y360098D01*
X812172Y360111D01*
X812096Y360127D01*
X812021Y360147D01*
X811947Y360171D01*
X811874Y360198D01*
X811802Y360229D01*
X811732Y360263D01*
X811664Y360300D01*
X811597Y360341D01*
X811532Y360385D01*
X811470Y360431D01*
X811410Y360481D01*
X811352Y360533D01*
X811297Y360588D01*
X811245Y360646D01*
X811195Y360706D01*
X811149Y360768D01*
X811105Y360833D01*
X811064Y360900D01*
X811027Y360968D01*
X810993Y361038D01*
X810962Y361110D01*
X810935Y361183D01*
X810911Y361257D01*
X810891Y361332D01*
X810875Y361408D01*
X810862Y361485D01*
X810852Y361562D01*
X810847Y361640D01*
X810845Y361718D01*
X810845Y365810D01*
X810847Y365890D01*
X810853Y365970D01*
X810863Y366050D01*
X810876Y366129D01*
X810894Y366208D01*
X810915Y366285D01*
X810941Y366361D01*
X810970Y366436D01*
X811002Y366510D01*
X811038Y366582D01*
X811078Y366652D01*
X811121Y366719D01*
X811167Y366785D01*
X811217Y366848D01*
X811269Y366909D01*
X811324Y366968D01*
X811383Y367023D01*
X811443Y367075D01*
X811507Y367125D01*
X811573Y367171D01*
X811640Y367214D01*
X811710Y367254D01*
X811782Y367290D01*
X811856Y367322D01*
X811930Y367351D01*
X812007Y367377D01*
X812084Y367398D01*
X812163Y367416D01*
X812242Y367429D01*
X812322Y367439D01*
X812402Y367445D01*
X812482Y367447D01*
X814119Y367447D01*
X819010Y367447D02*
X816555Y360081D01*
X821466Y360081D02*
X819010Y367447D01*
X817169Y361923D02*
X820852Y361923D01*
X824574Y360081D02*
X824574Y367447D01*
X826621Y367447D01*
X826710Y367445D01*
X826799Y367439D01*
X826888Y367429D01*
X826976Y367416D01*
X827064Y367399D01*
X827151Y367377D01*
X827236Y367352D01*
X827321Y367324D01*
X827404Y367291D01*
X827486Y367255D01*
X827566Y367216D01*
X827644Y367173D01*
X827720Y367127D01*
X827795Y367077D01*
X827867Y367024D01*
X827936Y366968D01*
X828003Y366909D01*
X828068Y366848D01*
X828129Y366783D01*
X828188Y366716D01*
X828244Y366647D01*
X828297Y366575D01*
X828347Y366500D01*
X828393Y366424D01*
X828436Y366346D01*
X828475Y366266D01*
X828511Y366184D01*
X828544Y366101D01*
X828572Y366016D01*
X828597Y365931D01*
X828619Y365844D01*
X828636Y365756D01*
X828649Y365668D01*
X828659Y365579D01*
X828665Y365490D01*
X828667Y365401D01*
X828665Y365312D01*
X828659Y365223D01*
X828649Y365134D01*
X828636Y365046D01*
X828619Y364958D01*
X828597Y364871D01*
X828572Y364786D01*
X828544Y364701D01*
X828511Y364618D01*
X828475Y364536D01*
X828436Y364456D01*
X828393Y364378D01*
X828347Y364302D01*
X828297Y364227D01*
X828244Y364155D01*
X828188Y364086D01*
X828129Y364019D01*
X828068Y363954D01*
X828003Y363893D01*
X827936Y363834D01*
X827867Y363778D01*
X827795Y363725D01*
X827720Y363675D01*
X827644Y363629D01*
X827566Y363586D01*
X827486Y363547D01*
X827404Y363511D01*
X827321Y363478D01*
X827236Y363450D01*
X827151Y363425D01*
X827064Y363403D01*
X826976Y363386D01*
X826888Y363373D01*
X826799Y363363D01*
X826710Y363357D01*
X826621Y363355D01*
X824574Y363355D01*
X827030Y363355D02*
X828667Y360081D01*
X832133Y360081D02*
X832133Y367447D01*
X834180Y367447D01*
X834269Y367445D01*
X834358Y367439D01*
X834447Y367429D01*
X834535Y367416D01*
X834623Y367399D01*
X834710Y367377D01*
X834795Y367352D01*
X834880Y367324D01*
X834963Y367291D01*
X835045Y367255D01*
X835125Y367216D01*
X835203Y367173D01*
X835279Y367127D01*
X835354Y367077D01*
X835426Y367024D01*
X835495Y366968D01*
X835562Y366909D01*
X835627Y366848D01*
X835688Y366783D01*
X835747Y366716D01*
X835803Y366647D01*
X835856Y366575D01*
X835906Y366500D01*
X835952Y366424D01*
X835995Y366346D01*
X836034Y366266D01*
X836070Y366184D01*
X836103Y366101D01*
X836131Y366016D01*
X836156Y365931D01*
X836178Y365844D01*
X836195Y365756D01*
X836208Y365668D01*
X836218Y365579D01*
X836224Y365490D01*
X836226Y365401D01*
X836224Y365312D01*
X836218Y365223D01*
X836208Y365134D01*
X836195Y365046D01*
X836178Y364958D01*
X836156Y364871D01*
X836131Y364786D01*
X836103Y364701D01*
X836070Y364618D01*
X836034Y364536D01*
X835995Y364456D01*
X835952Y364378D01*
X835906Y364302D01*
X835856Y364227D01*
X835803Y364155D01*
X835747Y364086D01*
X835688Y364019D01*
X835627Y363954D01*
X835562Y363893D01*
X835495Y363834D01*
X835426Y363778D01*
X835354Y363725D01*
X835279Y363675D01*
X835203Y363629D01*
X835125Y363586D01*
X835045Y363547D01*
X834963Y363511D01*
X834880Y363478D01*
X834795Y363450D01*
X834710Y363425D01*
X834623Y363403D01*
X834535Y363386D01*
X834447Y363373D01*
X834358Y363363D01*
X834269Y363357D01*
X834180Y363355D01*
X832133Y363355D01*
X834589Y363355D02*
X836226Y360081D01*
X839981Y360081D02*
X839981Y367447D01*
X839162Y360081D02*
X840799Y360081D01*
X840799Y367447D02*
X839162Y367447D01*
X844046Y360081D02*
X847320Y360081D01*
X844046Y360081D02*
X844046Y367447D01*
X847320Y367447D01*
X846501Y364173D02*
X844046Y364173D01*
X850421Y367447D02*
X850421Y360081D01*
X850421Y367447D02*
X852468Y367447D01*
X852557Y367445D01*
X852646Y367439D01*
X852735Y367429D01*
X852823Y367416D01*
X852911Y367399D01*
X852998Y367377D01*
X853083Y367352D01*
X853168Y367324D01*
X853251Y367291D01*
X853333Y367255D01*
X853413Y367216D01*
X853491Y367173D01*
X853567Y367127D01*
X853642Y367077D01*
X853714Y367024D01*
X853783Y366968D01*
X853850Y366909D01*
X853915Y366848D01*
X853976Y366783D01*
X854035Y366716D01*
X854091Y366647D01*
X854144Y366575D01*
X854194Y366500D01*
X854240Y366424D01*
X854283Y366346D01*
X854322Y366266D01*
X854358Y366184D01*
X854391Y366101D01*
X854419Y366016D01*
X854444Y365931D01*
X854466Y365844D01*
X854483Y365756D01*
X854496Y365668D01*
X854506Y365579D01*
X854512Y365490D01*
X854514Y365401D01*
X854512Y365312D01*
X854506Y365223D01*
X854496Y365134D01*
X854483Y365046D01*
X854466Y364958D01*
X854444Y364871D01*
X854419Y364786D01*
X854391Y364701D01*
X854358Y364618D01*
X854322Y364536D01*
X854283Y364456D01*
X854240Y364378D01*
X854194Y364302D01*
X854144Y364227D01*
X854091Y364155D01*
X854035Y364086D01*
X853976Y364019D01*
X853915Y363954D01*
X853850Y363893D01*
X853783Y363834D01*
X853714Y363778D01*
X853642Y363725D01*
X853567Y363675D01*
X853491Y363629D01*
X853413Y363586D01*
X853333Y363547D01*
X853251Y363511D01*
X853168Y363478D01*
X853083Y363450D01*
X852998Y363425D01*
X852911Y363403D01*
X852823Y363386D01*
X852735Y363373D01*
X852646Y363363D01*
X852557Y363357D01*
X852468Y363355D01*
X850421Y363355D01*
X852877Y363355D02*
X854514Y360081D01*
X858047Y364173D02*
X860093Y364173D01*
X860182Y364171D01*
X860271Y364165D01*
X860360Y364155D01*
X860448Y364142D01*
X860536Y364125D01*
X860623Y364103D01*
X860708Y364078D01*
X860793Y364050D01*
X860876Y364017D01*
X860958Y363981D01*
X861038Y363942D01*
X861116Y363899D01*
X861192Y363853D01*
X861267Y363803D01*
X861339Y363750D01*
X861408Y363694D01*
X861475Y363635D01*
X861540Y363574D01*
X861601Y363509D01*
X861660Y363442D01*
X861716Y363373D01*
X861769Y363301D01*
X861819Y363226D01*
X861865Y363150D01*
X861908Y363072D01*
X861947Y362992D01*
X861983Y362910D01*
X862016Y362827D01*
X862044Y362742D01*
X862069Y362657D01*
X862091Y362570D01*
X862108Y362482D01*
X862121Y362394D01*
X862131Y362305D01*
X862137Y362216D01*
X862139Y362127D01*
X862137Y362038D01*
X862131Y361949D01*
X862121Y361860D01*
X862108Y361772D01*
X862091Y361684D01*
X862069Y361597D01*
X862044Y361512D01*
X862016Y361427D01*
X861983Y361344D01*
X861947Y361262D01*
X861908Y361182D01*
X861865Y361104D01*
X861819Y361028D01*
X861769Y360953D01*
X861716Y360881D01*
X861660Y360812D01*
X861601Y360745D01*
X861540Y360680D01*
X861475Y360619D01*
X861408Y360560D01*
X861339Y360504D01*
X861267Y360451D01*
X861192Y360401D01*
X861116Y360355D01*
X861038Y360312D01*
X860958Y360273D01*
X860876Y360237D01*
X860793Y360204D01*
X860708Y360176D01*
X860623Y360151D01*
X860536Y360129D01*
X860448Y360112D01*
X860360Y360099D01*
X860271Y360089D01*
X860182Y360083D01*
X860093Y360081D01*
X858047Y360081D01*
X858047Y367447D01*
X860093Y367447D01*
X860172Y367445D01*
X860251Y367439D01*
X860330Y367430D01*
X860408Y367417D01*
X860485Y367399D01*
X860561Y367379D01*
X860636Y367354D01*
X860710Y367326D01*
X860783Y367295D01*
X860854Y367259D01*
X860923Y367221D01*
X860990Y367179D01*
X861055Y367134D01*
X861118Y367086D01*
X861179Y367035D01*
X861236Y366981D01*
X861292Y366925D01*
X861344Y366866D01*
X861394Y366804D01*
X861440Y366740D01*
X861484Y366674D01*
X861524Y366606D01*
X861560Y366536D01*
X861594Y366464D01*
X861624Y366390D01*
X861650Y366316D01*
X861673Y366240D01*
X861691Y366163D01*
X861707Y366086D01*
X861718Y366007D01*
X861726Y365929D01*
X861730Y365850D01*
X861730Y365770D01*
X861726Y365691D01*
X861718Y365613D01*
X861707Y365534D01*
X861691Y365457D01*
X861673Y365380D01*
X861650Y365304D01*
X861624Y365230D01*
X861594Y365156D01*
X861560Y365084D01*
X861524Y365014D01*
X861484Y364946D01*
X861440Y364880D01*
X861394Y364816D01*
X861344Y364754D01*
X861292Y364695D01*
X861236Y364639D01*
X861179Y364585D01*
X861118Y364534D01*
X861055Y364486D01*
X860990Y364441D01*
X860923Y364399D01*
X860854Y364361D01*
X860783Y364325D01*
X860710Y364294D01*
X860636Y364266D01*
X860561Y364241D01*
X860485Y364221D01*
X860408Y364203D01*
X860330Y364190D01*
X860251Y364181D01*
X860172Y364175D01*
X860093Y364173D01*
X865001Y365401D02*
X865001Y362127D01*
X865001Y365401D02*
X865003Y365490D01*
X865009Y365579D01*
X865019Y365668D01*
X865032Y365756D01*
X865049Y365844D01*
X865071Y365931D01*
X865096Y366016D01*
X865124Y366101D01*
X865157Y366184D01*
X865193Y366266D01*
X865232Y366346D01*
X865275Y366424D01*
X865321Y366500D01*
X865371Y366575D01*
X865424Y366647D01*
X865480Y366716D01*
X865539Y366783D01*
X865600Y366848D01*
X865665Y366909D01*
X865732Y366968D01*
X865801Y367024D01*
X865873Y367077D01*
X865948Y367127D01*
X866024Y367173D01*
X866102Y367216D01*
X866182Y367255D01*
X866264Y367291D01*
X866347Y367324D01*
X866432Y367352D01*
X866517Y367377D01*
X866604Y367399D01*
X866692Y367416D01*
X866780Y367429D01*
X866869Y367439D01*
X866958Y367445D01*
X867047Y367447D01*
X867136Y367445D01*
X867225Y367439D01*
X867314Y367429D01*
X867402Y367416D01*
X867490Y367399D01*
X867577Y367377D01*
X867662Y367352D01*
X867747Y367324D01*
X867830Y367291D01*
X867912Y367255D01*
X867992Y367216D01*
X868070Y367173D01*
X868146Y367127D01*
X868221Y367077D01*
X868293Y367024D01*
X868362Y366968D01*
X868429Y366909D01*
X868494Y366848D01*
X868555Y366783D01*
X868614Y366716D01*
X868670Y366647D01*
X868723Y366575D01*
X868773Y366500D01*
X868819Y366424D01*
X868862Y366346D01*
X868901Y366266D01*
X868937Y366184D01*
X868970Y366101D01*
X868998Y366016D01*
X869023Y365931D01*
X869045Y365844D01*
X869062Y365756D01*
X869075Y365668D01*
X869085Y365579D01*
X869091Y365490D01*
X869093Y365401D01*
X869093Y362127D01*
X869091Y362038D01*
X869085Y361949D01*
X869075Y361860D01*
X869062Y361772D01*
X869045Y361684D01*
X869023Y361597D01*
X868998Y361512D01*
X868970Y361427D01*
X868937Y361344D01*
X868901Y361262D01*
X868862Y361182D01*
X868819Y361104D01*
X868773Y361028D01*
X868723Y360953D01*
X868670Y360881D01*
X868614Y360812D01*
X868555Y360745D01*
X868494Y360680D01*
X868429Y360619D01*
X868362Y360560D01*
X868293Y360504D01*
X868221Y360451D01*
X868146Y360401D01*
X868070Y360355D01*
X867992Y360312D01*
X867912Y360273D01*
X867830Y360237D01*
X867747Y360204D01*
X867662Y360176D01*
X867577Y360151D01*
X867490Y360129D01*
X867402Y360112D01*
X867314Y360099D01*
X867225Y360089D01*
X867136Y360083D01*
X867047Y360081D01*
X866958Y360083D01*
X866869Y360089D01*
X866780Y360099D01*
X866692Y360112D01*
X866604Y360129D01*
X866517Y360151D01*
X866432Y360176D01*
X866347Y360204D01*
X866264Y360237D01*
X866182Y360273D01*
X866102Y360312D01*
X866024Y360355D01*
X865948Y360401D01*
X865873Y360451D01*
X865801Y360504D01*
X865732Y360560D01*
X865665Y360619D01*
X865600Y360680D01*
X865539Y360745D01*
X865480Y360812D01*
X865424Y360881D01*
X865371Y360953D01*
X865321Y361028D01*
X865275Y361104D01*
X865232Y361182D01*
X865193Y361262D01*
X865157Y361344D01*
X865124Y361427D01*
X865096Y361512D01*
X865071Y361597D01*
X865049Y361684D01*
X865032Y361772D01*
X865019Y361860D01*
X865009Y361949D01*
X865003Y362038D01*
X865001Y362127D01*
X871907Y360081D02*
X874362Y367447D01*
X876817Y360081D01*
X876203Y361923D02*
X872520Y361923D01*
X879926Y360081D02*
X879926Y367447D01*
X881972Y367447D01*
X882061Y367445D01*
X882150Y367439D01*
X882239Y367429D01*
X882327Y367416D01*
X882415Y367399D01*
X882502Y367377D01*
X882587Y367352D01*
X882672Y367324D01*
X882755Y367291D01*
X882837Y367255D01*
X882917Y367216D01*
X882995Y367173D01*
X883071Y367127D01*
X883146Y367077D01*
X883218Y367024D01*
X883287Y366968D01*
X883354Y366909D01*
X883419Y366848D01*
X883480Y366783D01*
X883539Y366716D01*
X883595Y366647D01*
X883648Y366575D01*
X883698Y366500D01*
X883744Y366424D01*
X883787Y366346D01*
X883826Y366266D01*
X883862Y366184D01*
X883895Y366101D01*
X883923Y366016D01*
X883948Y365931D01*
X883970Y365844D01*
X883987Y365756D01*
X884000Y365668D01*
X884010Y365579D01*
X884016Y365490D01*
X884018Y365401D01*
X884016Y365312D01*
X884010Y365223D01*
X884000Y365134D01*
X883987Y365046D01*
X883970Y364958D01*
X883948Y364871D01*
X883923Y364786D01*
X883895Y364701D01*
X883862Y364618D01*
X883826Y364536D01*
X883787Y364456D01*
X883744Y364378D01*
X883698Y364302D01*
X883648Y364227D01*
X883595Y364155D01*
X883539Y364086D01*
X883480Y364019D01*
X883419Y363954D01*
X883354Y363893D01*
X883287Y363834D01*
X883218Y363778D01*
X883146Y363725D01*
X883071Y363675D01*
X882995Y363629D01*
X882917Y363586D01*
X882837Y363547D01*
X882755Y363511D01*
X882672Y363478D01*
X882587Y363450D01*
X882502Y363425D01*
X882415Y363403D01*
X882327Y363386D01*
X882239Y363373D01*
X882150Y363363D01*
X882061Y363357D01*
X881972Y363355D01*
X879926Y363355D01*
X882381Y363355D02*
X884018Y360081D01*
X887434Y360081D02*
X887434Y367447D01*
X889480Y367447D01*
X889569Y367445D01*
X889658Y367439D01*
X889747Y367429D01*
X889835Y367416D01*
X889923Y367399D01*
X890010Y367377D01*
X890095Y367352D01*
X890180Y367324D01*
X890263Y367291D01*
X890345Y367255D01*
X890425Y367216D01*
X890503Y367173D01*
X890579Y367127D01*
X890654Y367077D01*
X890726Y367024D01*
X890795Y366968D01*
X890862Y366909D01*
X890927Y366848D01*
X890988Y366783D01*
X891047Y366716D01*
X891103Y366647D01*
X891156Y366575D01*
X891206Y366500D01*
X891252Y366424D01*
X891295Y366346D01*
X891334Y366266D01*
X891370Y366184D01*
X891403Y366101D01*
X891431Y366016D01*
X891456Y365931D01*
X891478Y365844D01*
X891495Y365756D01*
X891508Y365668D01*
X891518Y365579D01*
X891524Y365490D01*
X891526Y365401D01*
X891526Y362127D01*
X891524Y362038D01*
X891518Y361949D01*
X891508Y361860D01*
X891495Y361772D01*
X891478Y361684D01*
X891456Y361597D01*
X891431Y361512D01*
X891403Y361427D01*
X891370Y361344D01*
X891334Y361262D01*
X891295Y361182D01*
X891252Y361104D01*
X891206Y361028D01*
X891156Y360953D01*
X891103Y360881D01*
X891047Y360812D01*
X890988Y360745D01*
X890927Y360680D01*
X890862Y360619D01*
X890795Y360560D01*
X890726Y360504D01*
X890654Y360451D01*
X890579Y360401D01*
X890503Y360355D01*
X890425Y360312D01*
X890345Y360273D01*
X890263Y360237D01*
X890180Y360204D01*
X890095Y360176D01*
X890010Y360151D01*
X889923Y360129D01*
X889835Y360112D01*
X889747Y360099D01*
X889658Y360089D01*
X889569Y360083D01*
X889480Y360081D01*
X887434Y360081D01*
X810845Y355255D02*
X810845Y347889D01*
X810845Y355255D02*
X812891Y355255D01*
X812980Y355253D01*
X813069Y355247D01*
X813158Y355237D01*
X813246Y355224D01*
X813334Y355207D01*
X813421Y355185D01*
X813506Y355160D01*
X813591Y355132D01*
X813674Y355099D01*
X813756Y355063D01*
X813836Y355024D01*
X813914Y354981D01*
X813990Y354935D01*
X814065Y354885D01*
X814137Y354832D01*
X814206Y354776D01*
X814273Y354717D01*
X814338Y354656D01*
X814399Y354591D01*
X814458Y354524D01*
X814514Y354455D01*
X814567Y354383D01*
X814617Y354308D01*
X814663Y354232D01*
X814706Y354154D01*
X814745Y354074D01*
X814781Y353992D01*
X814814Y353909D01*
X814842Y353824D01*
X814867Y353739D01*
X814889Y353652D01*
X814906Y353564D01*
X814919Y353476D01*
X814929Y353387D01*
X814935Y353298D01*
X814937Y353209D01*
X814935Y353120D01*
X814929Y353031D01*
X814919Y352942D01*
X814906Y352854D01*
X814889Y352766D01*
X814867Y352679D01*
X814842Y352594D01*
X814814Y352509D01*
X814781Y352426D01*
X814745Y352344D01*
X814706Y352264D01*
X814663Y352186D01*
X814617Y352110D01*
X814567Y352035D01*
X814514Y351963D01*
X814458Y351894D01*
X814399Y351827D01*
X814338Y351762D01*
X814273Y351701D01*
X814206Y351642D01*
X814137Y351586D01*
X814065Y351533D01*
X813990Y351483D01*
X813914Y351437D01*
X813836Y351394D01*
X813756Y351355D01*
X813674Y351319D01*
X813591Y351286D01*
X813506Y351258D01*
X813421Y351233D01*
X813334Y351211D01*
X813246Y351194D01*
X813158Y351181D01*
X813069Y351171D01*
X812980Y351165D01*
X812891Y351163D01*
X810845Y351163D01*
X813301Y351163D02*
X814937Y347889D01*
X818369Y347889D02*
X821643Y347889D01*
X818369Y347889D02*
X818369Y355255D01*
X821643Y355255D01*
X820824Y351981D02*
X818369Y351981D01*
X824040Y355255D02*
X826495Y347889D01*
X828950Y355255D01*
X831764Y347889D02*
X833810Y347889D01*
X833899Y347891D01*
X833988Y347897D01*
X834077Y347907D01*
X834165Y347920D01*
X834253Y347937D01*
X834340Y347959D01*
X834425Y347984D01*
X834510Y348012D01*
X834593Y348045D01*
X834675Y348081D01*
X834755Y348120D01*
X834833Y348163D01*
X834909Y348209D01*
X834984Y348259D01*
X835056Y348312D01*
X835125Y348368D01*
X835192Y348427D01*
X835257Y348488D01*
X835318Y348553D01*
X835377Y348620D01*
X835433Y348689D01*
X835486Y348761D01*
X835536Y348836D01*
X835582Y348912D01*
X835625Y348990D01*
X835664Y349070D01*
X835700Y349152D01*
X835733Y349235D01*
X835761Y349320D01*
X835786Y349405D01*
X835808Y349492D01*
X835825Y349580D01*
X835838Y349668D01*
X835848Y349757D01*
X835854Y349846D01*
X835856Y349935D01*
X835854Y350024D01*
X835848Y350113D01*
X835838Y350202D01*
X835825Y350290D01*
X835808Y350378D01*
X835786Y350465D01*
X835761Y350550D01*
X835733Y350635D01*
X835700Y350718D01*
X835664Y350800D01*
X835625Y350880D01*
X835582Y350958D01*
X835536Y351034D01*
X835486Y351109D01*
X835433Y351181D01*
X835377Y351250D01*
X835318Y351317D01*
X835257Y351382D01*
X835192Y351443D01*
X835125Y351502D01*
X835056Y351558D01*
X834984Y351611D01*
X834909Y351661D01*
X834833Y351707D01*
X834755Y351750D01*
X834675Y351789D01*
X834593Y351825D01*
X834510Y351858D01*
X834425Y351886D01*
X834340Y351911D01*
X834253Y351933D01*
X834165Y351950D01*
X834077Y351963D01*
X833988Y351973D01*
X833899Y351979D01*
X833810Y351981D01*
X834220Y355255D02*
X831764Y355255D01*
X834220Y355255D02*
X834299Y355253D01*
X834378Y355247D01*
X834457Y355238D01*
X834535Y355225D01*
X834612Y355207D01*
X834688Y355187D01*
X834763Y355162D01*
X834837Y355134D01*
X834910Y355103D01*
X834981Y355067D01*
X835050Y355029D01*
X835117Y354987D01*
X835182Y354942D01*
X835245Y354894D01*
X835306Y354843D01*
X835363Y354789D01*
X835419Y354733D01*
X835471Y354674D01*
X835521Y354612D01*
X835567Y354548D01*
X835611Y354482D01*
X835651Y354414D01*
X835687Y354344D01*
X835721Y354272D01*
X835751Y354198D01*
X835777Y354124D01*
X835800Y354048D01*
X835818Y353971D01*
X835834Y353894D01*
X835845Y353815D01*
X835853Y353737D01*
X835857Y353658D01*
X835857Y353578D01*
X835853Y353499D01*
X835845Y353421D01*
X835834Y353342D01*
X835818Y353265D01*
X835800Y353188D01*
X835777Y353112D01*
X835751Y353038D01*
X835721Y352964D01*
X835687Y352892D01*
X835651Y352822D01*
X835611Y352754D01*
X835567Y352688D01*
X835521Y352624D01*
X835471Y352562D01*
X835419Y352503D01*
X835363Y352447D01*
X835306Y352393D01*
X835245Y352342D01*
X835182Y352294D01*
X835117Y352249D01*
X835050Y352207D01*
X834981Y352169D01*
X834910Y352133D01*
X834837Y352102D01*
X834763Y352074D01*
X834688Y352049D01*
X834612Y352029D01*
X834535Y352011D01*
X834457Y351998D01*
X834378Y351989D01*
X834299Y351983D01*
X834220Y351981D01*
X832583Y351981D01*
D12*
X445600Y486000D03*
X449600Y486000D03*
X453600Y486000D03*
X457600Y486000D03*
X461600Y486000D03*
X465600Y486000D03*
X469600Y486000D03*
X473600Y486000D03*
X477600Y486000D03*
X481600Y486000D03*
X485600Y486000D03*
X489600Y486000D03*
X493600Y486000D03*
X497600Y486000D03*
X501600Y486000D03*
X505600Y486000D03*
X509600Y486000D03*
X513600Y486000D03*
X517600Y486000D03*
X521600Y486000D03*
X525600Y486000D03*
X529600Y486000D03*
X533600Y486000D03*
X537600Y486000D03*
X541600Y486000D03*
X545600Y486000D03*
X549600Y486000D03*
X553600Y486000D03*
X557600Y486000D03*
X561600Y486000D03*
X565600Y486000D03*
X569600Y486000D03*
X573600Y486000D03*
X577600Y486000D03*
X581600Y486000D03*
X445600Y455200D03*
X449600Y455200D03*
X453600Y455200D03*
X457600Y455200D03*
X461600Y455200D03*
X465600Y455200D03*
X469600Y455200D03*
X473600Y455200D03*
X477600Y455200D03*
X481600Y455200D03*
X485600Y455200D03*
X489600Y455200D03*
X493600Y455200D03*
X497600Y455200D03*
X501600Y455200D03*
X505600Y455200D03*
X509600Y455200D03*
X513600Y455200D03*
X517600Y455200D03*
X521600Y455200D03*
X525600Y455200D03*
X529600Y455200D03*
X533600Y455200D03*
X537600Y455200D03*
X541600Y455200D03*
X545600Y455200D03*
X549600Y455200D03*
X553600Y455200D03*
X557600Y455200D03*
X561600Y455200D03*
X565600Y455200D03*
X569600Y455200D03*
X573600Y455200D03*
X577600Y455200D03*
X581600Y455200D03*
X445650Y359050D03*
X449650Y359050D03*
X453650Y359050D03*
X457650Y359050D03*
X461650Y359050D03*
X465650Y359050D03*
X469650Y359050D03*
X473650Y359050D03*
X477650Y359050D03*
X481650Y359050D03*
X485650Y359050D03*
X489650Y359050D03*
X493650Y359050D03*
X497650Y359050D03*
X501650Y359050D03*
X505650Y359050D03*
X509650Y359050D03*
X513650Y359050D03*
X517650Y359050D03*
X521650Y359050D03*
X525650Y359050D03*
X529650Y359050D03*
X533650Y359050D03*
X537650Y359050D03*
X541650Y359050D03*
X545650Y359050D03*
X549650Y359050D03*
X553650Y359050D03*
X557650Y359050D03*
X561650Y359050D03*
X565650Y359050D03*
X569650Y359050D03*
X573650Y359050D03*
X577650Y359050D03*
X581650Y359050D03*
X445650Y328250D03*
X449650Y328250D03*
X453650Y328250D03*
X457650Y328250D03*
X461650Y328250D03*
X465650Y328250D03*
X469650Y328250D03*
X473650Y328250D03*
X477650Y328250D03*
X481650Y328250D03*
X485650Y328250D03*
X489650Y328250D03*
X493650Y328250D03*
X497650Y328250D03*
X501650Y328250D03*
X505650Y328250D03*
X509650Y328250D03*
X513650Y328250D03*
X517650Y328250D03*
X521650Y328250D03*
X525650Y328250D03*
X529650Y328250D03*
X533650Y328250D03*
X537650Y328250D03*
X541650Y328250D03*
X545650Y328250D03*
X549650Y328250D03*
X553650Y328250D03*
X557650Y328250D03*
X561650Y328250D03*
X565650Y328250D03*
X569650Y328250D03*
X573650Y328250D03*
X577650Y328250D03*
X581650Y328250D03*
D13*
X249200Y664300D02*
X249200Y684300D01*
X188200Y684300D02*
X188200Y664300D01*
X208200Y626300D02*
X228200Y626300D01*
D14*
X388100Y608500D03*
X435100Y608500D03*
X482100Y608500D03*
D15*
X369050Y703800D03*
X501150Y703800D03*
D16*
X559000Y692700D03*
X559000Y629300D03*
D17*
X610000Y653500D03*
X610000Y670500D03*
X644000Y653500D03*
X644000Y670500D03*
X679000Y660500D03*
X679000Y643500D03*
D18*
X682945Y691825D02*
X675055Y691825D01*
X675055Y699715D01*
X682945Y699715D01*
X682945Y691825D01*
X682945Y695205D02*
X675055Y695205D01*
X675055Y698585D02*
X682945Y698585D01*
X682945Y674285D02*
X675055Y674285D01*
X675055Y682175D01*
X682945Y682175D01*
X682945Y674285D01*
X682945Y677665D02*
X675055Y677665D01*
X675055Y681045D02*
X682945Y681045D01*
D19*
X150600Y447966D03*
X133600Y447966D03*
X150600Y469466D03*
X133600Y469466D03*
X151600Y494966D03*
X134600Y494966D03*
D20*
X729000Y685530D03*
X729000Y676000D03*
X729000Y666470D03*
X755000Y666470D03*
X755000Y685530D03*
D17*
X713272Y693556D03*
X713272Y676556D03*
X801050Y667278D03*
X801050Y650278D03*
X817112Y667278D03*
X817112Y650278D03*
D19*
X728848Y643508D03*
X711848Y643508D03*
D17*
X744268Y643262D03*
X744268Y626262D03*
D21*
X214200Y332000D03*
X214200Y351000D03*
X193200Y341500D03*
D19*
X155300Y328952D03*
X172300Y328952D03*
X231300Y332500D03*
X248300Y332500D03*
D18*
X168525Y347055D02*
X168525Y354945D01*
X176415Y354945D01*
X176415Y347055D01*
X168525Y347055D01*
X168525Y350435D02*
X176415Y350435D01*
X176415Y353815D02*
X168525Y353815D01*
X150985Y354945D02*
X150985Y347055D01*
X150985Y354945D02*
X158875Y354945D01*
X158875Y347055D01*
X150985Y347055D01*
X150985Y350435D02*
X158875Y350435D01*
X158875Y353815D02*
X150985Y353815D01*
D19*
X243684Y539332D03*
X226684Y539332D03*
X226284Y560732D03*
X243284Y560732D03*
X242684Y581332D03*
X225684Y581332D03*
D17*
X262062Y581012D03*
X262062Y564012D03*
D22*
X958500Y275000D03*
X958500Y339000D03*
D23*
X956250Y307000D03*
X956250Y313500D03*
X956250Y300500D03*
X956250Y294000D03*
X956250Y320000D03*
D24*
X983000Y295000D03*
X983000Y319000D03*
D25*
X854000Y272000D03*
X854000Y281500D03*
X854000Y291000D03*
X829000Y291000D03*
X829000Y272000D03*
D26*
X884500Y275900D03*
X927500Y275900D03*
D19*
X832066Y408108D03*
X849066Y408108D03*
D27*
X153194Y297446D03*
X153194Y272046D03*
X153194Y246646D03*
X153194Y221246D03*
X153194Y195846D03*
X153194Y170446D03*
D19*
X845500Y310000D03*
X828500Y310000D03*
D17*
X937500Y323600D03*
X937500Y340600D03*
X876444Y299886D03*
X876444Y316886D03*
D19*
X808038Y285352D03*
X791038Y285352D03*
X832228Y431984D03*
X815228Y431984D03*
D28*
X795820Y533450D03*
X795820Y526950D03*
X795820Y520450D03*
X795820Y513950D03*
X795820Y507450D03*
X795820Y500950D03*
X795820Y494450D03*
X795820Y487950D03*
X795820Y481450D03*
X795820Y474950D03*
X795820Y468450D03*
X795820Y461950D03*
X854580Y461950D03*
X854580Y468450D03*
X854580Y474950D03*
X854580Y481450D03*
X854580Y487950D03*
X854580Y494450D03*
X854580Y500950D03*
X854580Y507450D03*
X854580Y513950D03*
X854580Y520450D03*
X854580Y526950D03*
X854580Y533450D03*
D19*
X781546Y431984D03*
X798546Y431984D03*
X847400Y555800D03*
X830400Y555800D03*
D29*
X213000Y170308D03*
X213000Y195708D03*
X238400Y170308D03*
X238400Y195708D03*
X263800Y170308D03*
X263800Y195708D03*
X289200Y170308D03*
X289200Y195708D03*
X314600Y170308D03*
X314600Y195708D03*
X340000Y170308D03*
X340000Y195708D03*
X365400Y170308D03*
X365400Y195708D03*
X390800Y170308D03*
X390800Y195708D03*
X416200Y170308D03*
X416200Y195708D03*
X441600Y170308D03*
X441600Y195708D03*
X467000Y170308D03*
X467000Y195708D03*
X492400Y170308D03*
X492400Y195708D03*
X517800Y170308D03*
X517800Y195708D03*
X543200Y170308D03*
X543200Y195708D03*
X568600Y170308D03*
X568600Y195708D03*
X594000Y170308D03*
X594000Y195708D03*
X619400Y170308D03*
X619400Y195708D03*
X644800Y170308D03*
X644800Y195708D03*
X670200Y170308D03*
X670200Y195708D03*
X695600Y170308D03*
X695600Y195708D03*
X721000Y170308D03*
X721000Y195708D03*
X746400Y170308D03*
X746400Y195708D03*
D30*
X251750Y456816D03*
X251750Y469516D03*
X251750Y482216D03*
X251750Y494916D03*
X172250Y494916D03*
X172250Y482216D03*
X172250Y469516D03*
X172250Y456816D03*
D31*
X125234Y536032D03*
X204734Y536032D03*
X125234Y581032D03*
X204734Y581032D03*
D32*
X904912Y163250D03*
X904912Y192750D03*
D33*
X920912Y178000D03*
D34*
X312166Y684702D03*
X312166Y642702D03*
D35*
X778256Y683398D03*
X778256Y668898D03*
D21*
X211422Y399440D03*
X211422Y418440D03*
X190422Y408940D03*
D19*
X154060Y386080D03*
X171060Y386080D03*
X229752Y399542D03*
X246752Y399542D03*
D18*
X167131Y404995D02*
X167131Y412885D01*
X175021Y412885D01*
X175021Y404995D01*
X167131Y404995D01*
X167131Y408375D02*
X175021Y408375D01*
X175021Y411755D02*
X167131Y411755D01*
X149591Y412885D02*
X149591Y404995D01*
X149591Y412885D02*
X157481Y412885D01*
X157481Y404995D01*
X149591Y404995D01*
X149591Y408375D02*
X157481Y408375D01*
X157481Y411755D02*
X149591Y411755D01*
D36*
X903884Y510074D03*
X903884Y505074D03*
X903884Y500074D03*
X903884Y495074D03*
X903884Y490074D03*
X903884Y485074D03*
X903884Y480074D03*
X903884Y475074D03*
X903884Y470074D03*
X903884Y465074D03*
X903884Y460074D03*
X903884Y455074D03*
X903884Y450074D03*
X903884Y445074D03*
X903884Y440074D03*
X903884Y435074D03*
X903884Y430074D03*
X903884Y425074D03*
X903884Y420074D03*
D37*
X913384Y392574D03*
X962884Y386574D03*
X962884Y543574D03*
X913384Y537574D03*
D38*
X961850Y177858D03*
X981250Y177858D03*
X981250Y216858D03*
X961850Y216858D03*
D25*
X814632Y612292D03*
X814632Y621792D03*
X814632Y631292D03*
X789632Y631292D03*
X789632Y612292D03*
D39*
X871500Y596444D03*
X871500Y621444D03*
X871500Y641444D03*
X871500Y666444D03*
D40*
X898600Y565744D03*
X898600Y697144D03*
D19*
X797678Y595376D03*
X780678Y595376D03*
D17*
X773684Y622690D03*
X773684Y639690D03*
D19*
X813190Y599440D03*
X830190Y599440D03*
D41*
X861460Y149784D03*
X850460Y149784D03*
X839460Y149784D03*
X828460Y149784D03*
X817460Y149784D03*
X806460Y149784D03*
X795460Y149784D03*
X784460Y149784D03*
D42*
X876560Y176584D03*
D43*
X876210Y189284D03*
D44*
X876210Y215384D03*
X769710Y209684D03*
D45*
X769710Y177834D03*
D46*
X802010Y222134D03*
X843910Y222134D03*
D17*
X885444Y235594D03*
X885444Y252594D03*
X821690Y235340D03*
X821690Y252340D03*
X800862Y235340D03*
X800862Y252340D03*
X864108Y235594D03*
X864108Y252594D03*
X843026Y235594D03*
X843026Y252594D03*
X779526Y235340D03*
X779526Y252340D03*
M02*
